<!-- Generator: Adobe Illustrator 22.0.1, SVG Export Plug-In  -->
<svg version="1.1"
	 xmlns="http://www.w3.org/2000/svg" xmlns:xlink="http://www.w3.org/1999/xlink" xmlns:a="http://ns.adobe.com/AdobeSVGViewerExtensions/3.0/"
	 x="0px" y="0px" width="536.059px" height="251.112px" viewBox="0 0 536.059 251.112"
	 style="enable-background:new 0 0 536.059 251.112;" xml:space="preserve">
<style type="text/css">
	.st0{fill:#3EBAB8;}
	.st1{fill:#08626B;}
	.st2{fill-rule:evenodd;clip-rule:evenodd;fill:#3EBAB8;}
</style>
<defs>
</defs>
<g>
	<path d="M63.197,251.008C30.956,248.894,5.14,228.866,0,192.952V86.266h28.386v100.657c0,15.943,12.137,31.743,28.557,34.458
		L56.915,86.237l78.647,0.028c12.279,1,19.133,1.829,35.611,13.829V86.266h28.557l0.343,101.657
		c-0.343,19.829,17.563,34.657,35.354,34.458c22.929-0.258,35.69-18.515,35.69-35.657v-43.314h28.56v50.485h42.839l-28.871-79.058
		h-56.804v79.029l-28.554,0.028V86.266h105.461l29.957,82.057V86.266l28.557,0.057v136.143h42.75v28.572h-71.707l-10.424-28.572
		h-64.03c-4.512,6.687-22.729,28.572-51.883,28.629c-21.703,0.028-42.321-8.743-53.944-27
		c-10.023,14.743-24.045,23.457-40.408,26.457v-29.143c14.45-4.657,28.129-22.771,28.557-52.771
		c0.371-26.2-14.479-53.801-35.611-53.801H85.501V215.38c10.309-7.515,14.193-20.258,14.278-27.4v-44.571h28.558v44.285
		C128.337,222.495,95.439,253.123,63.197,251.008L63.197,251.008z"/>
	<rect y="86.266" class="st0" width="28.386" height="28.571"/>
	<rect x="435.013" y="222.465" class="st1" width="28.728" height="28.572"/>
	<g>
		<polygon class="st2" points="434.25,85.686 491.935,139.658 478.715,62.801 449.215,43.314 		"/>
		<polygon class="st2" points="361.602,0 387.787,34.629 425.197,31.857 		"/>
		<polygon class="st2" points="436.65,17.8 475.572,34 424.17,23.543 		"/>
		<polygon class="st2" points="426.398,36.258 441.99,56.029 408.549,37.943 		"/>
		<polygon class="st2" points="483.055,65.172 496.705,144.401 536.059,91.629 		"/>
		<polygon class="st2" points="460.123,115.286 465.949,192.915 494.592,147.143 		"/>
	</g>
</g>
</svg>