<svg xmlns="http://www.w3.org/2000/svg" width="81.339" height="99.999" viewBox="0 0 81.339 99.999">
  <g id="Group_403" data-name="Group 403" transform="translate(-1161.634 -388.398)">
    <path id="Path_3373" data-name="Path 3373" d="M1202.265,488.4l-1.584-.9c-14.251-8.066-28.739-19.647-35.757-35.782-6.976-16.025-2.6-37.733,10.7-48.967,8.163-6.49,12.818-9.642,26.775-14.354h0a86.683,86.683,0,0,1,26.607,14.592c13.292,11.233,17.646,32.7,10.673,48.729-7.027,16.137-21.6,27.729-35.831,35.782l-1.584.9" fill="#b38e05"/>
    <path id="Path_3374" data-name="Path 3374" d="M1220.763,412.667c8.862,7.572,12.14,22.913,7.252,34.231-4.821,11.174-14.727,19.987-25.779,26.73-11.04-6.743-20.891-15.547-25.716-26.73-4.894-11.343-1.587-26.9,7.293-34.457,6.883-5.69,8.805-7.125,18.414-10.488a67.149,67.149,0,0,1,18.536,10.714m-.462.625a65.38,65.38,0,0,0-18.072-10.447c-9.373,3.277-11.248,4.678-17.956,10.225-8.661,7.371-11.889,22.54-7.114,33.6,4.709,10.9,14.312,19.49,25.078,26.068,10.777-6.58,20.435-15.168,25.14-26.068,4.766-11.034,1.57-25.992-7.076-33.378" fill="#fff"/>
    <path id="Path_3375" data-name="Path 3375" d="M1202.92,390.2a80.865,80.865,0,0,1,25.247,13.909c12.871,10.878,17.086,31.67,10.332,47.189-6.8,15.63-20.918,26.854-34.7,34.654l-1.538.867-1.536-.867c-13.8-7.811-27.827-19.031-34.626-34.654-6.754-15.519-2.524-36.543,10.362-47.421,8.791-7.209,11.591-9.1,25.106-13.665l.672-.226Zm-.011.8-.666-.21-.657.223c-13.231,4.468-16.181,6.527-24.789,13.586-12.614,10.65-16.756,31.236-10.146,46.432,6.658,15.3,20.6,26.491,34.113,34.135l1.5.852,1.5-.852c13.493-7.637,27.521-18.833,34.182-34.135,6.61-15.2,2.486-35.554-10.12-46.2A81,81,0,0,0,1202.909,391" fill="#fff"/>
    <path id="Path_3376" data-name="Path 3376" d="M1202.877,393.612a75.153,75.153,0,0,1,23.458,12.925c11.959,10.109,15.877,29.428,9.6,43.848-6.32,14.523-19.436,24.952-32.237,32.2l-1.428.809-1.429-.809c-12.818-7.256-25.855-17.68-32.173-32.2-6.277-14.42-2.346-33.954,9.629-44.063,8.166-6.7,10.769-8.457,23.327-12.7l.626-.212Zm-.011.936-.615-.194-.615.2c-12.3,4.152-14.842,5.875-22.84,12.434-11.723,9.9-15.573,29.023-9.426,43.144,6.184,14.213,18.95,24.421,31.5,31.525l1.4.791,1.4-.791c12.534-7.1,25.379-17.307,31.566-31.525,6.145-14.119,2.311-33.038-9.4-42.935a73.543,73.543,0,0,0-22.964-12.654" fill="#fff"/>
    <path id="Path_3377" data-name="Path 3377" d="M1236.585,432.931l-3.4.237a.943.943,0,0,1,.094.228,1.237,1.237,0,0,1,.044.253.584.584,0,0,1,0,.072.431.431,0,0,1,0,.071l-.749.05a1.507,1.507,0,0,0-.267-.522,1.035,1.035,0,0,0-.412-.3l-.053-.8,4.662-.325Z" fill="#fff"/>
    <path id="Path_3378" data-name="Path 3378" d="M1231.754,431.355l-.339-2.134.877-.138.2,1.247.474-.06a.732.732,0,0,1-.106-.186,1.473,1.473,0,0,1-.063-.25.977.977,0,0,1,.194-.8,1.284,1.284,0,0,1,.819-.413l.88-.138a1.5,1.5,0,0,1,1.08.151,1.479,1.479,0,0,1,.3,1.88,1.514,1.514,0,0,1-.98.474l-.306.04-.168-1.037.369-.049a.911.911,0,0,0,.356-.1.231.231,0,0,0-.058-.338.84.84,0,0,0-.37.009l-.886.139a.8.8,0,0,0-.351.106.191.191,0,0,0-.051.184.244.244,0,0,0,.113.193.485.485,0,0,0,.277.027l.138.871Z" fill="#fff"/>
    <path id="Path_3379" data-name="Path 3379" d="M1232.508,428.028c-.028.013-.005-.022-.04-.01l-.143.04a1.2,1.2,0,0,1-.953-.052,1.3,1.3,0,0,1-.516-.834,1.255,1.255,0,0,1,.027-1,1.7,1.7,0,0,1,1.022-.55,1.525,1.525,0,0,1,.494-.075.392.392,0,0,1,.263.122.4.4,0,0,1,.175-.262,1.962,1.962,0,0,1,.563-.212l.527-.139a1.308,1.308,0,0,1,1.006.064,1.57,1.57,0,0,1,.508,1.836,1.393,1.393,0,0,1-.888.551l-.367.1-.27-1.011.352-.105a.812.812,0,0,0,.34-.138.2.2,0,0,0,.024-.181.191.191,0,0,0-.114-.147.879.879,0,0,0-.36.051l-.311.083c-.243.064-.391.144-.44.237a.853.853,0,0,0,.035.548l.049.18-.778.207a1.61,1.61,0,0,0-.267-.647c-.072-.069-.2-.075-.379-.028a.8.8,0,0,0-.32.131.155.155,0,0,0-.031.167.167.167,0,0,0,.116.133.617.617,0,0,0,.307-.034h.109Z" fill="#fff"/>
    <path id="Path_3380" data-name="Path 3380" d="M1230.725,423.757a.225.225,0,0,0,.137.158.634.634,0,0,0,.317-.057.978.978,0,0,0,.375-.192.219.219,0,0,0,.005-.212.213.213,0,0,0-.142-.156.739.739,0,0,0-.373.075.79.79,0,0,0-.319.174.232.232,0,0,0,0,.21m2.035-.472.5-.182a.755.755,0,0,0,.33-.176.211.211,0,0,0,0-.208c-.035-.089-.077-.145-.134-.163a.758.758,0,0,0-.372.078l-.5.179a.829.829,0,0,0-.332.179.242.242,0,0,0,0,.212.226.226,0,0,0,.136.157.773.773,0,0,0,.369-.076m.154,1.033a1.086,1.086,0,0,1-.379.069.5.5,0,0,1-.278-.1.415.415,0,0,1-.155.25,1.053,1.053,0,0,1-.348.2l-.206.075a1.308,1.308,0,0,1-1,.013,1.482,1.482,0,0,1-.645-1.762,1.278,1.278,0,0,1,.778-.637l.2-.073a1.029,1.029,0,0,1,.394-.074.233.233,0,0,0,.429-.157,1.016,1.016,0,0,1,.337-.189l.631-.23a1.512,1.512,0,0,1,1.089-.056,1.234,1.234,0,0,1,.656.781,1.211,1.211,0,0,1,0,1.007,1.482,1.482,0,0,1-.871.652Z" fill="#fff"/>
    <path id="Path_3381" data-name="Path 3381" d="M1201.922,392.3a.508.508,0,1,1,.508.507.506.506,0,0,1-.508-.507" fill="#fff"/>
    <path id="Path_3382" data-name="Path 3382" d="M1204.427,393.053a.509.509,0,1,1,.507.506.507.507,0,0,1-.507-.506" fill="#fff"/>
    <path id="Path_3383" data-name="Path 3383" d="M1206.826,393.993a.508.508,0,1,1,.508.507.506.506,0,0,1-.508-.507" fill="#fff"/>
    <path id="Path_3384" data-name="Path 3384" d="M1209.223,394.953a.508.508,0,1,1,.508.508.508.508,0,0,1-.508-.508" fill="#fff"/>
    <path id="Path_3385" data-name="Path 3385" d="M1211.607,396.179a.506.506,0,1,1,.505.507.506.506,0,0,1-.505-.507" fill="#fff"/>
    <path id="Path_3386" data-name="Path 3386" d="M1213.95,397.334a.508.508,0,1,1,.508.507.5.5,0,0,1-.508-.507" fill="#fff"/>
    <path id="Path_3387" data-name="Path 3387" d="M1216.135,398.63a.507.507,0,1,1,.507.508.506.506,0,0,1-.507-.508" fill="#fff"/>
    <path id="Path_3388" data-name="Path 3388" d="M1217.719,400.345a.507.507,0,0,1,.621-.359.513.513,0,0,1,.36.623.508.508,0,0,1-.981-.264" fill="#fff"/>
    <path id="Path_3389" data-name="Path 3389" d="M1219.946,401.717a.506.506,0,1,1,.358.622.5.5,0,0,1-.358-.622" fill="#fff"/>
    <path id="Path_3390" data-name="Path 3390" d="M1222.016,403.248a.508.508,0,1,1,.981.264.5.5,0,0,1-.619.357.51.51,0,0,1-.362-.621" fill="#fff"/>
    <path id="Path_3391" data-name="Path 3391" d="M1224.085,404.8a.507.507,0,1,1,.979.264.5.5,0,0,1-.617.357.508.508,0,0,1-.362-.621" fill="#fff"/>
    <path id="Path_3392" data-name="Path 3392" d="M1226.2,406.494a.506.506,0,1,1,.354.622.506.506,0,0,1-.354-.622" fill="#fff"/>
    <path id="Path_3393" data-name="Path 3393" d="M1228.032,408.321a.507.507,0,1,1,.359.622.51.51,0,0,1-.359-.622" fill="#fff"/>
    <path id="Path_3394" data-name="Path 3394" d="M1229.806,410.139a.508.508,0,1,1,.358.622.508.508,0,0,1-.358-.622" fill="#fff"/>
    <path id="Path_3395" data-name="Path 3395" d="M1231.383,411.744a.508.508,0,1,1,.089.714.507.507,0,0,1-.089-.714" fill="#fff"/>
    <path id="Path_3396" data-name="Path 3396" d="M1232.817,413.928a.509.509,0,1,1,.09.715.511.511,0,0,1-.09-.715" fill="#fff"/>
    <path id="Path_3397" data-name="Path 3397" d="M1234.13,416.147a.508.508,0,1,1,.8.628.508.508,0,0,1-.8-.628" fill="#fff"/>
    <path id="Path_3398" data-name="Path 3398" d="M1235.221,418.435a.508.508,0,1,1,.088.713.509.509,0,0,1-.088-.713" fill="#fff"/>
    <path id="Path_3399" data-name="Path 3399" d="M1236.343,420.814a.508.508,0,1,1,.8.627.508.508,0,0,1-.8-.627" fill="#fff"/>
    <path id="Path_3400" data-name="Path 3400" d="M1237.065,423.17a.508.508,0,1,1,.087.714.506.506,0,0,1-.087-.714" fill="#fff"/>
    <path id="Path_3401" data-name="Path 3401" d="M1237.782,425.539a.505.505,0,0,1,.71-.089.508.508,0,1,1-.71.089" fill="#fff"/>
    <path id="Path_3402" data-name="Path 3402" d="M1238.36,428.1a.508.508,0,0,1,.445.914.508.508,0,0,1-.445-.914" fill="#fff"/>
    <path id="Path_3403" data-name="Path 3403" d="M1238.786,430.685a.508.508,0,1,1-.231.679.506.506,0,0,1,.231-.679" fill="#fff"/>
    <path id="Path_3404" data-name="Path 3404" d="M1238.992,433.256a.508.508,0,1,1-.233.679.5.5,0,0,1,.233-.679" fill="#fff"/>
    <path id="Path_3405" data-name="Path 3405" d="M1238.972,435.789a.5.5,0,0,1,.675.234.507.507,0,1,1-.675-.234" fill="#fff"/>
    <path id="Path_3406" data-name="Path 3406" d="M1238.934,438.42a.509.509,0,0,1,.446.914.5.5,0,0,1-.676-.235.508.508,0,0,1,.23-.679" fill="#fff"/>
    <path id="Path_3407" data-name="Path 3407" d="M1238.637,440.853a.509.509,0,1,1-.232.679.512.512,0,0,1,.232-.679" fill="#fff"/>
    <path id="Path_3408" data-name="Path 3408" d="M1238.244,443.3a.509.509,0,1,1,.445.915.509.509,0,0,1-.445-.915" fill="#fff"/>
    <path id="Path_3409" data-name="Path 3409" d="M1238.019,445.731a.509.509,0,1,1-.5.517.511.511,0,0,1,.5-.517" fill="#fff"/>
    <path id="Path_3410" data-name="Path 3410" d="M1237.21,448.252a.508.508,0,1,1-.5.514.507.507,0,0,1,.5-.514" fill="#fff"/>
    <path id="Path_3411" data-name="Path 3411" d="M1236.309,450.667a.509.509,0,1,1-.5.517.512.512,0,0,1,.5-.517" fill="#fff"/>
    <path id="Path_3412" data-name="Path 3412" d="M1235.219,452.955a.508.508,0,1,1-.5.517.509.509,0,0,1,.5-.517" fill="#fff"/>
    <path id="Path_3413" data-name="Path 3413" d="M1234.076,455.327a.507.507,0,1,1-.5.514.5.5,0,0,1,.5-.514" fill="#fff"/>
    <path id="Path_3414" data-name="Path 3414" d="M1232.778,457.4a.509.509,0,1,1,.015,1.017.509.509,0,0,1-.015-1.017" fill="#fff"/>
    <path id="Path_3415" data-name="Path 3415" d="M1231.467,459.479a.507.507,0,1,1-.5.516.511.511,0,0,1,.5-.516" fill="#fff"/>
    <path id="Path_3416" data-name="Path 3416" d="M1230.02,461.641a.508.508,0,0,1-.316.966.508.508,0,0,1,.316-.966" fill="#fff"/>
    <path id="Path_3417" data-name="Path 3417" d="M1228.432,463.715a.511.511,0,0,1,.325.642.507.507,0,1,1-.325-.642" fill="#fff"/>
    <path id="Path_3418" data-name="Path 3418" d="M1226.794,465.707a.515.515,0,0,1,.326.642.508.508,0,0,1-.967-.313.512.512,0,0,1,.641-.329" fill="#fff"/>
    <path id="Path_3419" data-name="Path 3419" d="M1225.019,467.52a.508.508,0,1,1-.639.326.5.5,0,0,1,.639-.326" fill="#fff"/>
    <path id="Path_3420" data-name="Path 3420" d="M1223.169,469.386a.508.508,0,0,1,.322.641.5.5,0,0,1-.638.325.508.508,0,1,1,.316-.966" fill="#fff"/>
    <path id="Path_3421" data-name="Path 3421" d="M1221.319,471.1a.508.508,0,1,1-.638.327.508.508,0,0,1,.638-.327" fill="#fff"/>
    <path id="Path_3422" data-name="Path 3422" d="M1219.294,472.819a.509.509,0,1,1-.638.327.506.506,0,0,1,.638-.327" fill="#fff"/>
    <path id="Path_3423" data-name="Path 3423" d="M1217.679,474.558a.508.508,0,1,1-.7.139.508.508,0,0,1,.7-.139" fill="#fff"/>
    <path id="Path_3424" data-name="Path 3424" d="M1215.553,476.169a.507.507,0,1,1-.7.137.506.506,0,0,1,.7-.137" fill="#fff"/>
    <path id="Path_3425" data-name="Path 3425" d="M1213.38,477.683a.513.513,0,0,1,.136.709.507.507,0,1,1-.136-.709" fill="#fff"/>
    <path id="Path_3426" data-name="Path 3426" d="M1211.245,479.155a.506.506,0,1,1-.7.136.5.5,0,0,1,.7-.136" fill="#fff"/>
    <path id="Path_3427" data-name="Path 3427" d="M1208.844,480.71a.509.509,0,1,1-.7.141.508.508,0,0,1,.7-.141" fill="#fff"/>
    <path id="Path_3428" data-name="Path 3428" d="M1206.419,482.244a.508.508,0,1,1-.706.135.507.507,0,0,1,.706-.135" fill="#fff"/>
    <path id="Path_3429" data-name="Path 3429" d="M1204.165,483.6a.508.508,0,1,1-.567.843.508.508,0,0,1,.567-.843" fill="#fff"/>
    <path id="Path_3430" data-name="Path 3430" d="M1199.311,392.949a.508.508,0,1,1,.508.508.507.507,0,0,1-.508-.508" fill="#fff"/>
    <path id="Path_3431" data-name="Path 3431" d="M1196.938,393.839a.508.508,0,1,1,.508.507.506.506,0,0,1-.508-.507" fill="#fff"/>
    <path id="Path_3432" data-name="Path 3432" d="M1194.487,394.747a.508.508,0,1,1,.509.508.507.507,0,0,1-.509-.508" fill="#fff"/>
    <path id="Path_3433" data-name="Path 3433" d="M1192.006,395.791a.508.508,0,1,1,.506.508.507.507,0,0,1-.506-.508" fill="#fff"/>
    <path id="Path_3434" data-name="Path 3434" d="M1189.608,396.818a.508.508,0,1,1,.507.508.509.509,0,0,1-.507-.508" fill="#fff"/>
    <path id="Path_3435" data-name="Path 3435" d="M1187.243,398.089a.508.508,0,1,1,.508.507.505.505,0,0,1-.508-.507" fill="#fff"/>
    <path id="Path_3436" data-name="Path 3436" d="M1185.329,399.933a.507.507,0,1,0-.357.622.507.507,0,0,0,.357-.622" fill="#fff"/>
    <path id="Path_3437" data-name="Path 3437" d="M1183.257,401.381a.508.508,0,1,0-.358.622.509.509,0,0,0,.358-.622" fill="#fff"/>
    <path id="Path_3438" data-name="Path 3438" d="M1181.157,402.912a.509.509,0,1,0-.359.622.51.51,0,0,0,.359-.622" fill="#fff"/>
    <path id="Path_3439" data-name="Path 3439" d="M1179.188,404.539a.507.507,0,0,0-.979.263.507.507,0,1,0,.979-.263" fill="#fff"/>
    <path id="Path_3440" data-name="Path 3440" d="M1177.061,406.3a.509.509,0,1,0-.359.622.509.509,0,0,0,.359-.622" fill="#fff"/>
    <path id="Path_3441" data-name="Path 3441" d="M1175.163,408.138a.509.509,0,1,0-.361.622.511.511,0,0,0,.361-.622" fill="#fff"/>
    <path id="Path_3442" data-name="Path 3442" d="M1173.392,409.947a.5.5,0,0,0-.619-.357.507.507,0,1,0,.619.357" fill="#fff"/>
    <path id="Path_3443" data-name="Path 3443" d="M1171.883,411.637a.506.506,0,1,0-.085.713.5.5,0,0,0,.085-.713" fill="#fff"/>
    <path id="Path_3444" data-name="Path 3444" d="M1170.436,413.873a.508.508,0,1,0-.086.714.508.508,0,0,0,.086-.714" fill="#fff"/>
    <path id="Path_3445" data-name="Path 3445" d="M1169.2,416.045a.508.508,0,1,0-.087.714.51.51,0,0,0,.087-.714" fill="#fff"/>
    <path id="Path_3446" data-name="Path 3446" d="M1168.054,418.331a.508.508,0,0,0-.713-.087.508.508,0,1,0,.713.087" fill="#fff"/>
    <path id="Path_3447" data-name="Path 3447" d="M1167.136,420.814a.508.508,0,1,0-.8.627.508.508,0,0,0,.8-.627" fill="#fff"/>
    <path id="Path_3448" data-name="Path 3448" d="M1166.311,423.068a.508.508,0,1,0-.088.713.509.509,0,0,0,.088-.713" fill="#fff"/>
    <path id="Path_3449" data-name="Path 3449" d="M1165.695,425.539a.509.509,0,1,0-.089.714.514.514,0,0,0,.089-.714" fill="#fff"/>
    <path id="Path_3450" data-name="Path 3450" d="M1165.028,428.1a.509.509,0,1,0,.231.679.5.5,0,0,0-.231-.679" fill="#fff"/>
    <path id="Path_3451" data-name="Path 3451" d="M1164.6,430.685a.508.508,0,1,0,.232.679.509.509,0,0,0-.232-.679" fill="#fff"/>
    <path id="Path_3452" data-name="Path 3452" d="M1164.392,433.256a.508.508,0,0,0-.445.913.509.509,0,0,0,.679-.234.5.5,0,0,0-.234-.679" fill="#fff"/>
    <path id="Path_3453" data-name="Path 3453" d="M1164.257,435.737a.509.509,0,1,0,.232.68.507.507,0,0,0-.232-.68" fill="#fff"/>
    <path id="Path_3454" data-name="Path 3454" d="M1164.448,438.42a.509.509,0,1,0,.231.679.508.508,0,0,0-.231-.679" fill="#fff"/>
    <path id="Path_3455" data-name="Path 3455" d="M1164.743,440.853a.509.509,0,1,0,.234.679.507.507,0,0,0-.234-.679" fill="#fff"/>
    <path id="Path_3456" data-name="Path 3456" d="M1165.133,443.3a.509.509,0,1,0,.235.679.508.508,0,0,0-.235-.679" fill="#fff"/>
    <path id="Path_3457" data-name="Path 3457" d="M1165.491,445.785a.5.5,0,0,0-.514.5.506.506,0,0,0,.5.518.508.508,0,1,0,.018-1.016" fill="#fff"/>
    <path id="Path_3458" data-name="Path 3458" d="M1166.219,448.3a.509.509,0,0,0-.017,1.018.515.515,0,0,0,.518-.5.509.509,0,0,0-.5-.518" fill="#fff"/>
    <path id="Path_3459" data-name="Path 3459" d="M1167.144,450.692a.508.508,0,1,0,.5.519.512.512,0,0,0-.5-.519" fill="#fff"/>
    <path id="Path_3460" data-name="Path 3460" d="M1168.258,452.955a.508.508,0,1,0-.017,1.016.508.508,0,0,0,.017-1.016" fill="#fff"/>
    <path id="Path_3461" data-name="Path 3461" d="M1169.454,455.375a.509.509,0,1,0-.017,1.018.508.508,0,0,0,.515-.5.513.513,0,0,0-.5-.519" fill="#fff"/>
    <path id="Path_3462" data-name="Path 3462" d="M1170.7,457.457a.509.509,0,1,0,.5.516.511.511,0,0,0-.5-.516" fill="#fff"/>
    <path id="Path_3463" data-name="Path 3463" d="M1172.087,459.532a.508.508,0,1,0,.5.514.506.506,0,0,0-.5-.514" fill="#fff"/>
    <path id="Path_3464" data-name="Path 3464" d="M1173.3,461.716a.51.51,0,0,0-.325.642.508.508,0,0,0,.966-.313.51.51,0,0,0-.641-.329" fill="#fff"/>
    <path id="Path_3465" data-name="Path 3465" d="M1174.836,463.768a.508.508,0,1,0,.638.327.507.507,0,0,0-.638-.327" fill="#fff"/>
    <path id="Path_3466" data-name="Path 3466" d="M1176.575,465.707a.507.507,0,0,0-.326.642.507.507,0,0,0,.965-.313.509.509,0,0,0-.639-.329" fill="#fff"/>
    <path id="Path_3467" data-name="Path 3467" d="M1178.242,467.572a.507.507,0,1,0,.639.324.5.5,0,0,0-.639-.324" fill="#fff"/>
    <path id="Path_3468" data-name="Path 3468" d="M1180.067,469.49a.508.508,0,1,0,.641.328.508.508,0,0,0-.641-.328" fill="#fff"/>
    <path id="Path_3469" data-name="Path 3469" d="M1181.913,471.154a.507.507,0,1,0,.638.324.506.506,0,0,0-.638-.324" fill="#fff"/>
    <path id="Path_3470" data-name="Path 3470" d="M1183.905,472.925a.508.508,0,1,0,.641.328.506.506,0,0,0-.641-.328" fill="#fff"/>
    <path id="Path_3471" data-name="Path 3471" d="M1185.917,474.558a.508.508,0,1,0,.567.842.508.508,0,0,0-.567-.842" fill="#fff"/>
    <path id="Path_3472" data-name="Path 3472" d="M1187.93,476.224a.506.506,0,0,0-.136.7.507.507,0,1,0,.136-.7" fill="#fff"/>
    <path id="Path_3473" data-name="Path 3473" d="M1190.157,477.748a.507.507,0,1,0,.705.138.508.508,0,0,0-.705-.138" fill="#fff"/>
    <path id="Path_3474" data-name="Path 3474" d="M1192.263,479.234a.508.508,0,1,0,.7.138.508.508,0,0,0-.7-.138" fill="#fff"/>
    <path id="Path_3475" data-name="Path 3475" d="M1194.662,480.765a.512.512,0,0,0-.137.71.51.51,0,1,0,.137-.71" fill="#fff"/>
    <path id="Path_3476" data-name="Path 3476" d="M1197.114,482.324a.509.509,0,1,0,.568.844.509.509,0,0,0-.568-.844" fill="#fff"/>
    <path id="Path_3477" data-name="Path 3477" d="M1199.311,483.7a.509.509,0,0,0-.138.706.508.508,0,1,0,.138-.706" fill="#fff"/>
    <path id="Path_3478" data-name="Path 3478" d="M1202.18,484.127a.509.509,0,0,0,.568.844.509.509,0,1,0-.568-.844" fill="#fff"/>
    <path id="Path_3479" data-name="Path 3479" d="M1202.149,433.286a1.658,1.658,0,0,1,1.567,1.508c0,.086-.121.555-.079.559.12.027.046.272.046.354s-.028.559-.335.584c-.029.293-.1.689-.1.774a1.02,1.02,0,0,0,.718,1.224c.167.076.614-1.075,1.618-1.158a1.862,1.862,0,0,1,1.847,1.47l.032.5c.117.03.387.107.527.15l-.129,5.251c-.4.309-.535.672-.888,1a16.876,16.876,0,0,1,1.416,1.179c.417,1.875,2.051,13.2,2.051,13.2s-6.845-1.3-7.872,4.7c-.08.206-.636-.142-.7.085-.453-5.824-7.689-4.781-7.689-4.781.045-.014.137-8.093.259-8.688.037-.186.611-.075.614-.157l.366-4.85c.032-.135.286-.3.354-.449l1.408-.03c-.043-.059-.457-.467-.457-.688a2.114,2.114,0,0,1,.1-.714,2.028,2.028,0,0,1,.428-1.159c.008-.039.059-.039.059-.081a1.957,1.957,0,0,1,.262-.914v-1.515c-.006-1.988,2.333-1.931,3.471-2.66V436.57c-.062-.515-.326-.44-.407-.706-.181-.619-.024-.606-.024-.606l-.04-.861a1.683,1.683,0,0,1,1.587-1.111" fill="#fff"/>
    <path id="Path_3480" data-name="Path 3480" d="M1202.231,433.821l.034.128c.056-.031.131-.133.211-.133.592,0,.854.771.854,1.244,0,.081-.131.52-.131.606s.1.185.1.268a.952.952,0,0,1-.324.505v-.448c-.1-.059-.2-.092-.28-.157l-.053.054a1.187,1.187,0,0,1,.13.38c0,.084-.063.12-.063.2s.1.106.175.179v.574c0,.084-.115.152-.175.2.026.022.026.054.049.084a3.108,3.108,0,0,1,.3-.233,1.527,1.527,0,0,0,.148.832c-.4.092.449.345.646.422a4.527,4.527,0,0,1-.349.522c.019.2-.134.283-.228.391-.663-.422-1.789-.572-1.789-.724,0-.084.333-.057.231-.623a7.019,7.019,0,0,0-.46-1.014.191.191,0,0,0,.08-.042c.169.171.411.4.578.4s.161-.092.161-.184-.023-.185-.114-.185-.114.1-.2.1-.309-.134-.309-.221c0-.511.754-.4.754-.486s-.4-.12-.4-.2c0-.2.247-.261.439-.232.064-.013.03-.489.03-.573,0-.2-.022-.572.191-.572a.132.132,0,0,1,.12.067h.357c.027-.027.022,0,.022-.084,0-.315-.468-.277-.368-.338a.294.294,0,0,0,.1-.228.929.929,0,0,0-.491-.178c-.44,0-1.2.142-1.208.984v.7c0,.084-.084.117-.127.155-.026-.308-.154-.521-.148-.621.069-.911-.043-.273.5-1.325.039,0,.052.09.142.1a.647.647,0,0,0,.281-.3h.122c0,.083.036.1.061.157a.3.3,0,0,0,.254-.173c.027-.026.136.019.136.019" fill="#b38e05"/>
    <path id="Path_3481" data-name="Path 3481" d="M1201.548,434.892h.367v.59a.47.47,0,0,1-.377.248c-.1.007-.217-.109-.3-.2a.249.249,0,0,1-.171-.236c0-.153.3-.192.264-.234s-.175-.01-.027-.118Z" fill="#c8b91e"/>
    <path id="Path_3482" data-name="Path 3482" d="M1201.7,435.87h.148c.047.2-.279.335-.413.4-.029-.189.151-.235.265-.4" fill="#c8b91e"/>
    <path id="Path_3483" data-name="Path 3483" d="M1206.686,437.868a2.11,2.11,0,0,1,.606.811v.706c0,.008.16.109.331.217l-.105,4.75a7.626,7.626,0,0,1-1,1.216l.224.233a.37.37,0,0,1-.248.186l-2.313-.016a4.133,4.133,0,0,1-2.076.443l-.092-.148a4.856,4.856,0,0,1,.848-.385,1.02,1.02,0,0,0-.536-.237c-.085,0-2.3.308-2.383.308-.046,0-.131-.255.1-.5a14.516,14.516,0,0,0,3.824-.391s.594.366.6.366c.08.015.465.077.611.088l-.818-.614c0-1.019-.081-4.391-.058-4.5.072.1.083.08.3.027a5.159,5.159,0,0,0-.026-1.059c.071-.164.253-.092.369-.109.039-.067.041-.611-.04-.618a.97.97,0,0,1,.208-.26c.038,0,.154.016.154.1s-.067.015-.067.1a4.563,4.563,0,0,0,.1.9c.5-.024.355-.593.426-.917l.042-.414c.079.032.155.063.155.148s-.1.421-.1.5-.005.329.184.324c.153.012.184-.056.21-.16v-.659c-.029-.027-.026-.083-.1-.125a.415.415,0,0,1,.233-.2c.081,0,.148.065.207.065.16-.049.152-.111.224-.183" fill="#b38e05"/>
    <path id="Path_3484" data-name="Path 3484" d="M1204.3,438.656c.075.072.006.456.006.541,0,.292-.549.2-.549.653,0,.006-.227-.157-.391-.236.483,0,.634-.611.934-.958" fill="#c8b91e"/>
    <path id="Path_3485" data-name="Path 3485" d="M1203.677,444.288l.006.411a.659.659,0,0,1-.635-.024,2.149,2.149,0,0,1,.629-.387" fill="#c8b91e"/>
    <path id="Path_3486" data-name="Path 3486" d="M1199.688,448.173a2.927,2.927,0,0,1,.121.449c-.7-.244-1.173.381-1.668,2.078-.022,0-.2.138-.188.087.136-.587.41-3.48,1.735-2.614" fill="#b38e05"/>
    <path id="Path_3487" data-name="Path 3487" d="M1197.621,449.487c-.41,1.689-.995,5.515-.995,5.6s-.512,4.171-.8,4.171h-.731a85.026,85.026,0,0,1,2.257-9.451c.065-.182.287-.4.265-.315" fill="#b38e05"/>
    <path id="Path_3488" data-name="Path 3488" d="M1196.159,451.489l-1.217,4.7c-.049-.078-.042-3.259.069-4.714a6.81,6.81,0,0,0,1.148.01" fill="#b38e05"/>
    <path id="Path_3489" data-name="Path 3489" d="M1205.047,458.731c.124.013.331.1.315.265h-.25c-.052-.068-.158-.08-.158-.164s.056-.066.093-.1" fill="#c8b91e"/>
    <path id="Path_3490" data-name="Path 3490" d="M1206.669,438.356a.191.191,0,0,1,.076.183,1.538,1.538,0,0,0-.1.573.216.216,0,0,1-.294.078c0-.113-.035-.247-.035-.331,0-.189.113-.537.351-.5" fill="#fff"/>
    <path id="Path_3491" data-name="Path 3491" d="M1201.384,435.3l.233,0c-.041.058-.1.058-.189.084-.037,0-.037,0-.073-.049Z" fill="#fff"/>
    <path id="Path_3492" data-name="Path 3492" d="M1202.711,435.313c.045-.006.25.011.231.089-.144.044-.186.013-.221,0-.075-.046-.01-.082-.01-.086" fill="#fff"/>
    <path id="Path_3493" data-name="Path 3493" d="M1201.83,436.742h.27a.144.144,0,0,1-.04.132l-.383-.05c.049-.016.071-.082.153-.082" fill="#fff"/>
    <path id="Path_3494" data-name="Path 3494" d="M1206.961,446.02c.02,0,.68.534.584.507-2.277-.627-1.917,1.97-2.193,3.213-.091.423-.648,3.245-.834,3.952-.036.153-.167.094-.222.2-.015-.081.146-1.593.287-2.811-.232.073-.2.644-.494.515v-.251c0-.085.692-2.173.9-3.262a4.346,4.346,0,0,1,.367-1.4c.258-.413,1.488-.642,1.6-.661m-9.515,9.967c0-.486,1.387-3.493,1.816-3.49h.41a2.25,2.25,0,0,0-.353.826c.085-.028.9-.379,1.2-.216.071.04.414.224.459.535a2.265,2.265,0,0,0-.634-.055,3.448,3.448,0,0,0-2.114,1.554l-.005.02-.643,1.517a5.314,5.314,0,0,1-.131-.691m.755-.806a.068.068,0,0,0-.015.018Z" fill="#b38e05"/>
    <path id="Path_3495" data-name="Path 3495" d="M1200.514,449.884c-.089-.188-.464-.12-.5-.164a4.287,4.287,0,0,1,.685-.508,15.1,15.1,0,0,1,.888,2.924c.05-.065.145-.126.157-.161-.641-2.733-.5-3.427-.717-3.97-.171-.27-.6-.608-.269-.586.081.008.926.114,1.01.114a1.61,1.61,0,0,0,.456-.061,3.38,3.38,0,0,0,1.772-.676c-.161.6-.5,1.8-1.015,1.872a6.533,6.533,0,0,1-.873-.041c.2.476.409.8.839.858a2.154,2.154,0,0,1,.575-.535v.109c.005.485-1.014,1.827-1.014,1.844a.849.849,0,0,0,.2.358,15.831,15.831,0,0,0,1.832-3.457,6.714,6.714,0,0,1-.28,1.822,13.918,13.918,0,0,1-1.2,3.069c-.593.661.535,4.262.445,5.526-.3.417-1.285.246-1.143.393.195.2,1.55.918,1.7-.419.123-.54.279-1.727.391-2.045.131-.358-.352-.6-.352-.98,0-.806.782-.59,1.241-.59.659,0,1,.138,1.406.138a3.139,3.139,0,0,0,.74-.151s-.066-2.715-.076-2.717c.015-.085.186-.126.2-.158,0,0,.42,3.244.4,3.253l-.184-.009c-.114.039-1.3.229-1.3.451,0,.084.034.064.038.112.615,0,.915,0,.917,0s0,.249,0,.282c-.009.313.051.039-.187.31a2.079,2.079,0,0,0,.2.818c1.3-.14,1.416.237,1.416.1,0-.442-.39-4.912-.781-7.812l.306.537,1.274,8.144c0,.04.081.357-.71.306-.023.583.417,1.486.344,1.63l-1.386,0v-.487h-2.332c-.077,0-.214-.279-.238-.3a1.425,1.425,0,0,1,.664-.23c-.045-.173-.254-.288-.291-.442.026-.025.095-.025.117-.054.1.07.553.707.638.707s.179-.1.264-.1.214.133.295.133a1.771,1.771,0,0,0,.4-.112c-.071-.082-.212-.222-.164-.256a2.712,2.712,0,0,1,.295.134c.15.018.131-.191.131-.191-.4-.409-.5-.3-.86-.592-.47-.4-.63-.892-.928-1.046-.073-.034-.063-.756-.159-.756-.172,0-.36-.33-.592.022a6.113,6.113,0,0,0-.614,2.008c-.024.081.066.237.1.294-.093.089-.194.1-.261.21.005,0,0,1.977,0,1.98l-.789.761-.569,1.036-.537,1.972h-.537c-.328-2.229-1.458-3.572-1.558-3.483l-.362-.32c-.081,0-.07-.118-.151-.118s-.294-.242-.329-.242a3.848,3.848,0,0,1-1.151-.18c.036-.082.1-.256.147-.256l.878.159c.3.1.39-.316.565-.481.037,0,.115.067.151.114a.792.792,0,0,1-.131.237c.029.023.06.088.088.117h.512c.065-.062.155-.136.155-.218a.735.735,0,0,0,.008-.278.961.961,0,0,1,.159-.135v-.164c0-.084-.276-.42-.322-.665a15.386,15.386,0,0,1-.34-1.879.486.486,0,0,0-.522-.252c-.2,0-.99.664-.99,1.088,0,.083.112.715.1.8-.05.517-.9.945-.788,1.47h-.956c-.025-.051-.257-.392.342-1.344.723-.705.68-1.175,1-1.929a6.334,6.334,0,0,1,1.449-.535c.655,0,.6.765,1.239,1.393a.939.939,0,0,0,.871.167s-.3-.129-.577-4.8c-.044.033-.59-2.012-.953-2.874" fill="#b38e05"/>
    <path id="Path_3496" data-name="Path 3496" d="M1198.43,447.165c-.516.1-1.451,1.335-1.582,1.621-.062.132-.552,2.191-.629,2.27l-.6.006a8.847,8.847,0,0,1,0-.921,3.149,3.149,0,0,0,.191-.4,25.654,25.654,0,0,1,.2-3.493,13.493,13.493,0,0,1,1.572-.061.221.221,0,0,0,.288-.088l.03-.006a.947.947,0,0,0,.086.083c.024-.031.122.063.225-.055L1198.06,445a.909.909,0,0,1-.184-.248c.138-.076.267-.074.384-.143a8.338,8.338,0,0,0,.3,1.981c.054-.032.272.048.3-.192V446a1.31,1.31,0,0,0-.005-.632l.068-1.165c0-.048-.116-.429-.055-.483-.341-.726-.774-.671-.994-.648.173-.356.433-.346.538-.427.276-.217.15-.624.15-.707s.1-.287.1-.37-.043-.463-.361-.509a1.457,1.457,0,0,1,.556-1.087,2.346,2.346,0,0,0-.026.551c.031.342.229.944.229,1.026a1.3,1.3,0,0,0,0,.52c0,.027.139.348.279.413.23-.16-.161-.623.212-.663.259-.026.138.127.245.291.089.139.432.706,1.317.2l.037.245c.7-.334.531-1.072.616-1.733.04-.006.162.03.216.2l.106.706c0,.46.62.713.833.713.262,0,.4-.359.616-.556.041-.006.084.069.152.143v1.026c-.079.006-.179.033-.261.038-.968.023-1.1-.54-1.544-.54-.29,0-.557.875-1.841.876a1.367,1.367,0,0,1-.693-.414,1.228,1.228,0,0,0,.323,1.125,10.555,10.555,0,0,1,1.867-.173,4.972,4.972,0,0,1,.95,0,8.7,8.7,0,0,1,1.2-.391v.483a1.54,1.54,0,0,0-.245-.025c-.5,0-1.025.616-1.969.616-.084,0-1.271-.106-1.354-.118-.471-.074-.736-.068-.663.44.012.08.124.648.124.732s-.217.823-.208.836c.982.956-.209.48-.943.622m-.736-1.263a2.046,2.046,0,0,1-.608-.981.6.6,0,1,1,.712.954Z" fill="#b38e05"/>
    <path id="Path_3497" data-name="Path 3497" d="M1190.021,458.1c.034-.018.073,0,.119.039a2.087,2.087,0,0,0,.541.817,1,1,0,0,0,.232.235c-.4.8-3.393,1.124-4.056-1.093a6.8,6.8,0,0,0,3.164,0m5.64,3.093a2.446,2.446,0,0,1-2.088,1.457,2.41,2.41,0,0,1-1.67-.547c1.66-.271,1.99-1.019,2.07-1.2a5.687,5.687,0,0,0,1.688.293m-6.346-5.2a4.9,4.9,0,0,0,.388.514,4.963,4.963,0,0,1-1.892.042,3.761,3.761,0,0,0,2.017.265,2.315,2.315,0,0,0-.066.952c-2.393.242-3.887-.484-4.618-1.773Z" fill="#fff"/>
    <path id="Path_3498" data-name="Path 3498" d="M1181.3,450.063a12.421,12.421,0,0,0,7.027,3.073c-.009.05.268.11.258.182a3.844,3.844,0,0,0-.046.741,8.874,8.874,0,0,1-2.456-.555,5.231,5.231,0,0,0,2.488.9,3.977,3.977,0,0,0,.3,1.041c-3.662.129-7.019-2.694-7.572-5.386m7.726.654s.018,0,.046.018a6.578,6.578,0,0,0,2.034,1.043l.063,1.01a2.95,2.95,0,0,1-.932-.4,4.316,4.316,0,0,0,.951.749l.067,1.084c-1.415-.537-2.807-2.21-2.229-3.5M1185.144,456a4.084,4.084,0,0,1-.408-1.079,6.071,6.071,0,0,0,4.518.984c.019.031.041.063.061.1Zm5.8-6.651c0,.011,0,.02,0,.029a2.038,2.038,0,0,1-.206-.029Zm-.82,0a7.988,7.988,0,0,0,.875.633l.076,1.218a4.862,4.862,0,0,1-2.342-1.851Zm-2.308,0a3.491,3.491,0,0,0,.522.812,5.555,5.555,0,0,0-.107.642,11.441,11.441,0,0,1-3.354-1.454Zm-3.16,0a15.683,15.683,0,0,0,3.549,1.976,2.662,2.662,0,0,0,.279,1.257,15.011,15.011,0,0,1-6.416-3.233Z" fill="#fff"/>
    <path id="Path_3499" data-name="Path 3499" d="M1190.329,448.027a2.036,2.036,0,0,0,.261.085c-.089-.026-.175-.055-.261-.085m-1.6,1.322a3.081,3.081,0,0,1-.424-2.664,4.557,4.557,0,0,0,2.021,1.342c.086.03.172.059.261.085s.2.057.3.081l.067,1.067c-.005.031-.007.061-.011.089h-.21c-.477-.107-.938-.425-.986-.386.083.062.117.159.375.386Zm1.432-3.329a3.769,3.769,0,0,0,.614.408l.034.538,0,.69a5.092,5.092,0,0,1-2.243-1.636Zm-2.806,0c.124.217.224.346.228.361a7.567,7.567,0,0,1-.839-.361Zm-1.443,0a11.7,11.7,0,0,0,1.414.857,3.958,3.958,0,0,0-.067,1.609,20.291,20.291,0,0,1-4.149-2.466Zm-4.113,0a24.453,24.453,0,0,0,5.956,3.2l.055.131h-2.939c-.241-.153-.5-.312-.761-.493.172.174.353.334.541.493h-2.589a11.147,11.147,0,0,1-2.564-3.329Z" fill="#fff"/>
    <path id="Path_3500" data-name="Path 3500" d="M1190.746,445.907l0-.032v.032Zm-2.173.113a3.8,3.8,0,0,1-.824-3.133,5.467,5.467,0,0,0,2.916,1.672l.036.614a6.413,6.413,0,0,0,.043.7l0,.032c-.23.033-.791-.365-1.32-.6a4.222,4.222,0,0,0,.738.713Zm1.761-3.327c.042.03.09.055.131.085.069.074.141,1.272.165,1.312a5.531,5.531,0,0,1-2.275-1.4Zm-3.46,0a2.364,2.364,0,0,0-.095,1.174c-.322-.2-1.008-.651-1.713-1.174Zm-2.928,0a14.479,14.479,0,0,0,2.86,1.832c.025.013-.027-.01,0,0a4.458,4.458,0,0,0,.553,1.493h-.611a22.957,22.957,0,0,1-3.409-2.191,13.893,13.893,0,0,0,2.579,2.191h-2.8a16.016,16.016,0,0,1-3.224-3.327Zm-5.222,0a10.311,10.311,0,0,0,3.078,3.327h-2.3a10.822,10.822,0,0,1-1.054-3.327Z" fill="#fff"/>
    <path id="Path_3501" data-name="Path 3501" d="M1183.383,430.972c.561.487,1.028,3.391,2.257,3.959a5.366,5.366,0,0,0-.009,1.469,5.449,5.449,0,0,1-.947-.908,3.409,3.409,0,0,0,1.026,1.332,3.872,3.872,0,0,0,.7,1.5,7.616,7.616,0,0,1-3.675-5.858c0-.422.181-1.565.648-1.49m3.416,3.8a8.742,8.742,0,0,0,3.411,2.366l.077,1.27a4.08,4.08,0,0,1-1.544-.586,3.157,3.157,0,0,0,1.571,1.146v1.219a5.572,5.572,0,0,1-3.91-4.566,1.074,1.074,0,0,1,.395-.849m1.553,7.92a4.118,4.118,0,0,1-1.359-3.461c.107-.249.172-.426.2-.4a5.841,5.841,0,0,0,3.24,1.926l.058.911v.529a10.643,10.643,0,0,1-1.566-.653c.088.281.821.758,1.415,1.145Zm-3.285,0a13.529,13.529,0,0,1-1.3-1.071,17.006,17.006,0,0,1-4.685-12.956c.327-2.4.672-6.709,3.333-8.464.071-.052.181.024.1.167a14.5,14.5,0,0,0-1.459,6.344c0,3.408.657,9.232,4.954,12.312,0,.055-.013.122-.015.2a3.737,3.737,0,0,0,.053,1.039,4.729,4.729,0,0,0,.3,1.122,16.922,16.922,0,0,1-3.522-3.5c.151.918,2.534,3.457,4.181,4.5a1.89,1.89,0,0,0-.133.3Zm-5.178,0a16.416,16.416,0,0,1-2.971-9.692,7.979,7.979,0,0,1,1.016-4.1c.215-.257.34-.226.249.219-.806,3.965,1.245,9.9,5.761,13.571Zm-1.444,0a6.292,6.292,0,0,1-.081-.961,4.182,4.182,0,0,0,.358.961Z" fill="#fff"/>
    <path id="Path_3502" data-name="Path 3502" d="M1189.66,453.715s.017,0,.046.016a2.92,2.92,0,0,0,1.578.983c0,.183.021.524.052.956a3.748,3.748,0,0,1-.555-.283,4.209,4.209,0,0,0,.572.5c.031.366.07.783.129,1.2-1.177-.5-2.383-2.109-1.822-3.369" fill="#fff"/>
    <path id="Path_3503" data-name="Path 3503" d="M1191.921,458.966a1.581,1.581,0,0,1-1.436-2,2.721,2.721,0,0,0,1.053.514,6.232,6.232,0,0,0,.383,1.486" fill="#fff"/>
    <path id="Path_3504" data-name="Path 3504" d="M1193.259,460.51a1.388,1.388,0,0,1-1.945-1.132,2.9,2.9,0,0,0,.921.163,2.529,2.529,0,0,0,1.024.969" fill="#fff"/>
    <path id="Path_3505" data-name="Path 3505" d="M1190.775,460.219a1.8,1.8,0,0,0,1.57,1.032c-1,.8-2.953.549-3.072-.824a2.191,2.191,0,0,0,1.5-.208" fill="#fff"/>
    <path id="Path_3506" data-name="Path 3506" d="M1198.407,461.529a2.062,2.062,0,0,1-1.722,1.356c-.4.049-1.384.21-1.727-.232a2.783,2.783,0,0,0,1.5-1.457,6.484,6.484,0,0,1,1.947.333" fill="#fff"/>
    <path id="Path_3507" data-name="Path 3507" d="M1199.917,462.626c.028.076-.1.162-.081.244-.523.341-1.376.427-1.6-.014a2.352,2.352,0,0,0,.773-1.052,2.549,2.549,0,0,1,.908.822" fill="#fff"/>
    <path id="Path_3508" data-name="Path 3508" d="M1214.586,458.1c-.038-.018-.076,0-.118.039a2.032,2.032,0,0,1-.544.817.963.963,0,0,1-.233.235c.4.8,3.392,1.124,4.058-1.093a6.793,6.793,0,0,1-3.163,0m-5.639,3.093a2.441,2.441,0,0,0,2.085,1.457,2.413,2.413,0,0,0,1.669-.547c-1.659-.271-1.989-1.019-2.069-1.2a5.677,5.677,0,0,1-1.685.293m6.342-5.2a4.754,4.754,0,0,1-.388.514,4.971,4.971,0,0,0,1.893.042,3.766,3.766,0,0,1-2.018.265,2.288,2.288,0,0,1,.069.952c2.389.242,3.886-.484,4.615-1.773Z" fill="#fff"/>
    <path id="Path_3509" data-name="Path 3509" d="M1222.875,450.063a12.42,12.42,0,0,1-7.029,3.073,1.655,1.655,0,0,1,.031.182,3.356,3.356,0,0,1,.044.741,8.841,8.841,0,0,0,2.456-.555,5.208,5.208,0,0,1-2.487.9,3.662,3.662,0,0,1-.3,1.041,7.4,7.4,0,0,0,7.287-5.386m-7.294.654s-.017,0-.049.018a6.5,6.5,0,0,1-2.033,1.043l-.06,1.01a2.979,2.979,0,0,0,.932-.4,4.277,4.277,0,0,1-.956.749l-.064,1.084c1.413-.537,2.806-2.21,2.23-3.5M1219.46,456a3.912,3.912,0,0,0,.407-1.079,6.068,6.068,0,0,1-4.519.984l-.059.1Zm.777-6.651a15.7,15.7,0,0,1-3.547,1.976,2.649,2.649,0,0,1-.277,1.257,14.825,14.825,0,0,0,6.389-3.233Zm-3.157,0a3.686,3.686,0,0,1-.52.812,5.928,5.928,0,0,1,.1.642,11.383,11.383,0,0,0,3.352-1.454Zm-2.593,0a8.928,8.928,0,0,1-.878.633l-.075,1.218a4.865,4.865,0,0,0,2.339-1.851Zm-.823,0c0,.011,0,.02.006.029a2.019,2.019,0,0,0,.2-.029Z" fill="#fff"/>
    <path id="Path_3510" data-name="Path 3510" d="M1214.277,448.027a2.069,2.069,0,0,1-.264.085c.089-.026.18-.055.264-.085m-.4,1.322c.479-.107.938-.425.988-.386-.085.062-.118.159-.376.386h1.388a3.1,3.1,0,0,0,.427-2.664,4.576,4.576,0,0,1-2.023,1.342c-.084.03-.175.059-.264.085s-.191.057-.295.081l-.065,1.067c0,.031.005.061.011.089Zm9.142-3.329a23.44,23.44,0,0,1-5.879,3.2l-.056.131h2.936c.247-.153.5-.312.762-.493a6.9,6.9,0,0,1-.541.493h2.563a10.984,10.984,0,0,0,2.519-3.329Zm-4.326,0a11.552,11.552,0,0,1-1.414.857,3.891,3.891,0,0,1,.071,1.609,20.18,20.18,0,0,0,4.146-2.466Zm-1.443,0a3.833,3.833,0,0,1-.23.361,7.464,7.464,0,0,0,.844-.361Zm-2.807,0a3.778,3.778,0,0,1-.612.408l-.034.538-.005.69a5.089,5.089,0,0,0,2.242-1.636Z" fill="#fff"/>
    <path id="Path_3511" data-name="Path 3511" d="M1213.859,445.907v0Zm2.171.113a3.809,3.809,0,0,0,.831-3.133,5.51,5.51,0,0,1-2.92,1.672l-.037.614a6.029,6.029,0,0,1-.045.7v.032c.23.033.791-.365,1.32-.6a4.2,4.2,0,0,1-.74.713Zm10-3.327a10.318,10.318,0,0,1-3.017,3.327h2.3a10.666,10.666,0,0,0,1-3.327Zm-5.372,0a14.389,14.389,0,0,1-2.863,1.832c-.024.013.018,0-.007.013a4.439,4.439,0,0,1-.544,1.482h.612a22.832,22.832,0,0,0,3.413-2.191,13.854,13.854,0,0,1-2.582,2.191h2.8a16.1,16.1,0,0,0,3.225-3.327Zm-2.926,0a2.4,2.4,0,0,1,.095,1.174c.319-.2,1.008-.651,1.707-1.174Zm-3.462,0c-.044.03-.088.055-.133.085-.07.074-.137,1.272-.166,1.312a5.528,5.528,0,0,0,2.278-1.4Z" fill="#fff"/>
    <path id="Path_3512" data-name="Path 3512" d="M1221.222,430.972c-.562.487-1.03,3.391-2.254,3.959a5.442,5.442,0,0,1,.005,1.469,5.412,5.412,0,0,0,.947-.908,3.391,3.391,0,0,1-1.027,1.332,3.867,3.867,0,0,1-.7,1.5,7.618,7.618,0,0,0,3.677-5.858c-.005-.422-.184-1.565-.65-1.49m-3.418,3.8a8.726,8.726,0,0,1-3.407,2.366l-.08,1.27a4.11,4.11,0,0,0,1.547-.586,3.179,3.179,0,0,1-1.574,1.146v1.219a5.572,5.572,0,0,0,3.91-4.566,1.069,1.069,0,0,0-.4-.849m8.519,7.92a6.105,6.105,0,0,0,.06-.961,4.306,4.306,0,0,1-.351.961Zm-1.6,0a16.423,16.423,0,0,0,2.97-9.692,7.959,7.959,0,0,0-1.016-4.1c-.214-.257-.34-.226-.253.219.809,3.965-1.242,9.9-5.76,13.571Zm-5.183,0a14.13,14.13,0,0,0,1.307-1.071,17.008,17.008,0,0,0,4.683-12.956c-.327-2.4-.673-6.709-3.332-8.464-.068-.052-.184.024-.108.167a14.448,14.448,0,0,1,1.459,6.344c0,3.408-.656,9.232-4.954,12.312.008.055.011.122.017.2a3.829,3.829,0,0,1-.05,1.039,5.161,5.161,0,0,1-.3,1.122,16.949,16.949,0,0,0,3.522-3.5c-.153.918-2.537,3.457-4.183,4.5a1.721,1.721,0,0,1,.132.3Zm-3.284,0a4.111,4.111,0,0,0,1.358-3.461c-.106-.249-.17-.426-.191-.4a5.842,5.842,0,0,1-3.245,1.926l-.057.911v.529a10.742,10.742,0,0,0,1.571-.653c-.093.281-.82.758-1.416,1.145Z" fill="#fff"/>
    <path id="Path_3513" data-name="Path 3513" d="M1214.946,453.715s-.019,0-.047.016a2.926,2.926,0,0,1-1.577.983c0,.183-.022.524-.055.956a3.484,3.484,0,0,0,.558-.283,4.454,4.454,0,0,1-.572.5c-.033.366-.072.783-.125,1.2,1.174-.5,2.377-2.109,1.818-3.369" fill="#fff"/>
    <path id="Path_3514" data-name="Path 3514" d="M1212.681,458.966a1.577,1.577,0,0,0,1.436-2,2.7,2.7,0,0,1-1.049.514,6.166,6.166,0,0,1-.387,1.486" fill="#fff"/>
    <path id="Path_3515" data-name="Path 3515" d="M1211.231,460.628c.605.281,1.941-.077,1.946-1.133a4.525,4.525,0,0,1-.809.046,3.107,3.107,0,0,1-1.137,1.087" fill="#fff"/>
    <path id="Path_3516" data-name="Path 3516" d="M1213.832,460.219a1.818,1.818,0,0,1-1.572,1.032c1,.8,2.952.549,3.073-.824a2.188,2.188,0,0,1-1.5-.208" fill="#fff"/>
    <path id="Path_3517" data-name="Path 3517" d="M1206.2,461.529a2.057,2.057,0,0,0,1.725,1.356c.394.049,1.267.21,1.614-.232a2.4,2.4,0,0,1-1.391-1.457,6.485,6.485,0,0,0-1.948.333" fill="#fff"/>
    <path id="Path_3518" data-name="Path 3518" d="M1204.686,462.626c-.027.076.1.162.082.244.522.341,1.379.427,1.6-.014a2.324,2.324,0,0,1-.77-1.052,2.571,2.571,0,0,0-.913.822" fill="#fff"/>
    <path id="Path_3519" data-name="Path 3519" d="M1191.054,437.065a3.87,3.87,0,0,1,.99.475c.027.007.321.342.3.537l.66,18.869a2.474,2.474,0,0,0,2.147,2.489l3.019.351s3.52-.114,3.973,4.495h.313c.455-4.609,3.975-4.495,3.975-4.495l3.019-.351a2.475,2.475,0,0,0,2.146-2.489l.662-18.869c-.017-.2.273-.53.3-.537a3.772,3.772,0,0,1,.987-.475l-1.253,20.143c.007,3.069-3.179,3.171-3.179,3.171a9.442,9.442,0,0,0-3.936.681,3.981,3.981,0,0,0-1.868,3.29c-.031,1.12-.423,1.048-.711,1.024l-.555-.008c-.271.042-.668.1-.762-1.016a3.963,3.963,0,0,0-1.864-3.29,9.453,9.453,0,0,0-3.936-.681s-3.188-.1-3.181-3.171Z" fill="#fff"/>
    <path id="Path_3520" data-name="Path 3520" d="M1195.82,411.457l2.818,2.93,2.82-2.93Zm2.1,3.674L1195.1,412.2v5.858Zm8.762,7.612,2.82,2.929v-5.857Zm2.1,3.674-2.819-2.927-2.817,2.927Zm-13.25-15.964h13.536a10.308,10.308,0,0,0-13.536,0m14.935,1.452v14.066a11.363,11.363,0,0,0,0-14.066m-1.4,15.518h-13.536a10.308,10.308,0,0,0,13.536,0m-14.933-1.452V411.9a11.353,11.353,0,0,0,0,14.066m.966-6.156v5.857l2.818-2.929Zm.717,6.6h5.638l-2.82-2.928Zm13.683-8.356V412.2l-2.82,2.928Zm-.719-6.6h-5.636l2.817,2.93Zm-17.928,7.483c0-6.692,5.01-11.9,11.447-11.9s11.448,5.21,11.448,11.9-5.012,11.9-11.448,11.9-11.447-5.209-11.447-11.9m4.818.017,6.613,6.866,6.607-6.866-6.612-6.87Z" fill="#fff"/>
    <path id="Path_3521" data-name="Path 3521" d="M1206.45,423.246l-3.379-2.385-.767,4.166-.767-4.166-3.378,2.385,2.294-3.509-4.011-.8,4.011-.8-2.294-3.512,3.378,2.383.767-4.167.767,4.167,3.379-2.383-2.292,3.512,4.009.8-4.009.8Z" fill="#fff"/>
    <path id="Path_3522" data-name="Path 3522" d="M1227.192,417.992l2.393-1.094,1.07,2.462-2.4,1.094Z" fill="#fff"/>
    <path id="Path_3523" data-name="Path 3523" d="M1200.9,400.2l1.8-3.212,1.8,3.212Z" fill="#fff"/>
    <path id="Path_3524" data-name="Path 3524" d="M1173.41,417.874a1.717,1.717,0,1,1,1.714,1.768,1.742,1.742,0,0,1-1.714-1.768" fill="#fff"/>
    <path id="Path_3525" data-name="Path 3525" d="M1179.208,415.6l-3.71-2.988,1.325-1.629.707.571-.662.811.631.508.633-.778.7.564-.635.778,1.672,1.348Z" fill="#fff"/>
    <path id="Path_3526" data-name="Path 3526" d="M1180.941,413.521l-.65-.671a10.466,10.466,0,0,1-1.43-1.759,4.5,4.5,0,0,1-.634-1.563l.678-.655a4.741,4.741,0,0,1,1.555.692,10.7,10.7,0,0,1,1.715,1.474l.651.671-.761.729-.547-.565-.372.358.548.563Zm-.417-1.93.371-.357a10.967,10.967,0,0,0-.894-.813,5,5,0,0,0-.751-.515,4.775,4.775,0,0,0,.489.768,10.233,10.233,0,0,0,.785.917" fill="#fff"/>
    <path id="Path_3527" data-name="Path 3527" d="M1181.493,408.668a1.947,1.947,0,0,1-.548-1.15,1.274,1.274,0,0,1,.573-.92,1.3,1.3,0,0,1,1.02-.365,1.954,1.954,0,0,1,1.018.772l.215.266-.83.667-.37-.452a.734.734,0,0,0-.276-.249.228.228,0,0,0-.208.064c-.076.062-.116.123-.11.185a.655.655,0,0,0,.17.3l.088.109,1.332,1.636c.113.138.2.219.259.232a.255.255,0,0,0,.206-.069.244.244,0,0,0,.11-.191.809.809,0,0,0-.194-.323l-.066-.081-.453-.557.829-.67.366.448a1.941,1.941,0,0,1,.546,1.152,1.652,1.652,0,0,1-1.593,1.282,1.954,1.954,0,0,1-1.017-.769Z" fill="#fff"/>
    <path id="Path_3528" data-name="Path 3528" d="M1186.194,407.233l.087.11c.11.143.2.222.258.236a.237.237,0,0,0,.2-.066.242.242,0,0,0,.117-.193,1,1,0,0,0-.218-.362l-.035-.046-2.079-2.645.832-.647,1.992,2.534a1.943,1.943,0,0,1,.526,1.162,1.256,1.256,0,0,1-.577.906,1.274,1.274,0,0,1-1.022.338,1.979,1.979,0,0,1-1-.791l-1.991-2.535.833-.647Z" fill="#fff"/>
    <path id="Path_3529" data-name="Path 3529" d="M1186.457,402.874l.874-.588,2.161,3.188.9-.609.507.751-1.778,1.193Z" fill="#fff"/>
    <path id="Path_3530" data-name="Path 3530" d="M1189.174,402.133l-.422-.76,2-1.1.423.76-.535.3,1.888,3.391-.923.51-1.891-3.394Z" fill="#fff"/>
    <path id="Path_3531" data-name="Path 3531" d="M1193.56,404.175l-.4-.845a10.911,10.911,0,0,1-.774-2.125,4.593,4.593,0,0,1-.087-1.685l.857-.4a4.665,4.665,0,0,1,1.241,1.155,10.41,10.41,0,0,1,1.139,1.953l.4.841-.954.445-.335-.712-.468.217.332.712Zm.236-1.96.47-.217a11.111,11.111,0,0,0-.581-1.057,4.964,4.964,0,0,0-.538-.73,4.5,4.5,0,0,0,.206.885,11.956,11.956,0,0,0,.443,1.119" fill="#fff"/>
    <path id="Path_3532" data-name="Path 3532" d="M1196.388,398.786l1.058,2.745.168-.063a.381.381,0,0,0,.223-.163.605.605,0,0,0-.067-.374l-.042-.11-.7-1.8c-.07-.186-.139-.294-.2-.323a.386.386,0,0,0-.279.026Zm-1.309-.467,1.317-.505a1.257,1.257,0,0,1,.986-.049,1.386,1.386,0,0,1,.623.8l.788,2.046a1.365,1.365,0,0,1,.078,1.015,1.224,1.224,0,0,1-.766.616l-1.319.505Z" fill="#fff"/>
    <path id="Path_3533" data-name="Path 3533" d="M1209.13,399.338,1207.885,402l.157.075a.377.377,0,0,0,.275.047c.064-.024.136-.127.221-.306l.052-.108.821-1.75a.6.6,0,0,0,.092-.367.363.363,0,0,0-.211-.18Zm-.571-1.262,1.279.593a1.242,1.242,0,0,1,.721.67,1.362,1.362,0,0,1-.153,1.008l-.927,1.982a1.388,1.388,0,0,1-.678.766,1.261,1.261,0,0,1-.98-.123l-1.279-.593Z" fill="#fff"/>
    <path id="Path_3534" data-name="Path 3534" d="M1209.768,403.931l2.241-4.193,1.9,1.006-.425.8-.97-.512-.381.712.932.494-.422.793-.935-.495-.581,1.093,1.01.534-.427.8Z" fill="#fff"/>
    <path id="Path_3535" data-name="Path 3535" d="M1213.97,406.243l.491-.79a10.736,10.736,0,0,1,1.374-1.8,4.633,4.633,0,0,1,1.37-.991l.8.5a4.618,4.618,0,0,1-.294,1.668,10.65,10.65,0,0,1-1.026,2.012l-.495.789-.9-.556.42-.665-.438-.274-.418.667Zm1.779-.87.439.274a10.794,10.794,0,0,0,.574-1.059,4.925,4.925,0,0,0,.321-.85,4.57,4.57,0,0,0-.628.657,11.286,11.286,0,0,0-.706.978" fill="#fff"/>
    <path id="Path_3536" data-name="Path 3536" d="M1219.673,404.211l1.16.807a1.185,1.185,0,0,1,.594.8,1.7,1.7,0,0,1-.415,1.072,1.86,1.86,0,0,1-.432.46.569.569,0,0,1-.4.131l-1.033,2.153-.91-.63,1.013-1.911-.21-.147L1217.8,408.7l-.867-.6Zm-.2,2.056.143.1a.417.417,0,0,0,.326.1.7.7,0,0,0,.3-.283.629.629,0,0,0,.138-.343.339.339,0,0,0-.173-.247l-.17-.123Z" fill="#fff"/>
    <path id="Path_3537" data-name="Path 3537" d="M1222.055,406.949l.539-.685,1.8,1.4-.538.684-.486-.377-2.4,3.056-.835-.646,2.4-3.057Z" fill="#fff"/>
    <path id="Path_3538" data-name="Path 3538" d="M1222.079,411.888l3.133-3.582,1.621,1.4-.595.683-.827-.717-.531.608.8.69-.593.678-.8-.69-.814.934.861.747-.595.683Z" fill="#fff"/>
    <path id="Path_3539" data-name="Path 3539" d="M1227.993,413.077l.125-.175a.577.577,0,0,0,.2-.273.284.284,0,0,0-.082-.25.265.265,0,0,0-.181-.1.247.247,0,0,0-.193.066q-.168.147-.128,1.108c.008.12.014.215.016.28a1.544,1.544,0,0,1-.119.725,1.837,1.837,0,0,1-.495.616,1.448,1.448,0,0,1-1,.428,1.306,1.306,0,0,1-.915-.523,1.351,1.351,0,0,1-.413-.977,1.462,1.462,0,0,1,.584-.927l.263-.2.7.8-.231.169a.937.937,0,0,0-.26.314.225.225,0,0,0,.048.243.2.2,0,0,0,.19.075.445.445,0,0,0,.242-.119.882.882,0,0,0,.25-.347,1.989,1.989,0,0,0,.07-.62c0-.049,0-.119,0-.21a2.056,2.056,0,0,1,.487-1.619,1.147,1.147,0,0,1,.895-.321,1.409,1.409,0,0,1,.876.53,1.092,1.092,0,0,1-.141,1.833l-.148.2Z" fill="#fff"/>
    <path id="Path_3540" data-name="Path 3540" d="M1205.233,474.313l1.569,2.5.149-.1a.38.38,0,0,0,.189-.2.611.611,0,0,0-.139-.353l-.062-.1-1.025-1.634c-.109-.171-.195-.265-.262-.281a.37.37,0,0,0-.266.076Zm-1.375-.207,1.2-.742a1.246,1.246,0,0,1,.957-.24,1.389,1.389,0,0,1,.768.674l1.165,1.855a1.38,1.38,0,0,1,.275.982,1.244,1.244,0,0,1-.637.753l-1.2.744Z" fill="#fff"/>
    <path id="Path_3541" data-name="Path 3541" d="M1209.4,476.233l-2.668-3.936,1.785-1.2.507.75-.91.612.453.669.877-.588.5.742-.875.587.7,1.027.95-.637.505.749Z" fill="#fff"/>
    <path id="Path_3542" data-name="Path 3542" d="M1212.6,469.866l-.092-.1a.6.6,0,0,0-.262-.214.288.288,0,0,0-.256.065.257.257,0,0,0-.115.173.241.241,0,0,0,.053.194c.09.121.456.189,1.1.2.123.005.213.006.28.006a1.55,1.55,0,0,1,.72.169,1.82,1.82,0,0,1,.585.537,1.421,1.421,0,0,1,.356,1.022,1.293,1.293,0,0,1-.586.87,1.364,1.364,0,0,1-1.008.341,1.449,1.449,0,0,1-.89-.641l-.2-.241.853-.643.175.207a.912.912,0,0,0,.295.283.227.227,0,0,0,.244-.031.21.21,0,0,0,.093-.183.433.433,0,0,0-.1-.248.851.851,0,0,0-.333-.273,1.914,1.914,0,0,0-.616-.114c-.049,0-.12-.006-.213-.014a2.066,2.066,0,0,1-1.586-.59,1.131,1.131,0,0,1-.258-.913,1.294,1.294,0,0,1,2.42-.565l.115.118Z" fill="#fff"/>
    <path id="Path_3543" data-name="Path 3543" d="M1216.106,471.4l-.6-.715a10.519,10.519,0,0,1-1.3-1.855,4.53,4.53,0,0,1-.527-1.6l.724-.606a4.687,4.687,0,0,1,1.5.8,10.653,10.653,0,0,1,1.607,1.59l.6.713-.809.678-.506-.6-.4.328.508.6Zm-.28-1.954.4-.33a11.093,11.093,0,0,0-.837-.873,4.583,4.583,0,0,0-.713-.565,5.094,5.094,0,0,0,.434.8,11.59,11.59,0,0,0,.72.968" fill="#fff"/>
    <path id="Path_3544" data-name="Path 3544" d="M1215.59,465.649l.732-.652a4.974,4.974,0,0,1,.593.216c.217.087.445.195.688.318l-.841-.929.777-.7,3.192,3.528-.777.7-.624-.694a5.316,5.316,0,0,0-.878-.775,4.645,4.645,0,0,0-1-.529l2.118,2.342-.783.7Z" fill="#fff"/>
    <path id="Path_3545" data-name="Path 3545" d="M1218.6,464.1l-.622-.615,1.62-1.608.614.613-.432.436,2.756,2.74-.745.742-2.757-2.741Z" fill="#fff"/>
    <path id="Path_3546" data-name="Path 3546" d="M1221.142,462.5a1.932,1.932,0,0,1-.722-1.05,1.273,1.273,0,0,1,.419-1,1.287,1.287,0,0,1,.952-.52,1.945,1.945,0,0,1,1.126.6l1.259,1.129a1.908,1.908,0,0,1,.721,1.052,1.255,1.255,0,0,1-.418.994,1.269,1.269,0,0,1-.951.519,1.958,1.958,0,0,1-1.129-.6Zm.613-.88,1.57,1.406a.713.713,0,0,0,.292.19.229.229,0,0,0,.192-.1.233.233,0,0,0,.081-.2.815.815,0,0,0-.244-.289l-.079-.068-1.547-1.39a.764.764,0,0,0-.312-.2.235.235,0,0,0-.192.1.25.25,0,0,0-.085.2c.01.059.085.146.217.266Z" fill="#fff"/>
    <path id="Path_3547" data-name="Path 3547" d="M1224.748,457.334l2.36,1.768.108-.137a.408.408,0,0,0,.105-.26c-.011-.067-.1-.162-.257-.279l-.1-.072-1.548-1.162c-.161-.119-.274-.176-.344-.166a.358.358,0,0,0-.22.166Zm-1.36.293.851-1.121a1.25,1.25,0,0,1,.808-.562,1.4,1.4,0,0,1,.958.356l1.755,1.316a1.4,1.4,0,0,1,.614.818,1.26,1.26,0,0,1-.322.93l-.85,1.119Z" fill="#fff"/>
    <path id="Path_3548" data-name="Path 3548" d="M1226.678,455.757a1.965,1.965,0,0,1-.876-.928,1.634,1.634,0,0,1,1.117-1.71,1.963,1.963,0,0,1,1.205.42l1.424.919a1.941,1.941,0,0,1,.876.929,1.623,1.623,0,0,1-1.114,1.706,1.948,1.948,0,0,1-1.21-.42Zm.468-.969,1.773,1.146a.677.677,0,0,0,.32.141.237.237,0,0,0,.171-.128.233.233,0,0,0,.048-.214.826.826,0,0,0-.287-.249l-.087-.055-1.747-1.13a.805.805,0,0,0-.339-.155.234.234,0,0,0-.175.128.231.231,0,0,0-.052.21.663.663,0,0,0,.255.229Z" fill="#fff"/>
    <path id="Path_3549" data-name="Path 3549" d="M1232.954,451.508l-3.2-1.694a2.181,2.181,0,0,0,.429.672,3.329,3.329,0,0,0,.833.576l.237.127,1.462.769-.491.922-1.7-.9a3.519,3.519,0,0,0-.952-.367,2.2,2.2,0,0,0-.8.026l3.2,1.692-.5.928-4.213-2.23.659-1.234a3.049,3.049,0,0,1,.683-.081,4.419,4.419,0,0,1,.762.062,3.788,3.788,0,0,1-.479-.58,2.916,2.916,0,0,1-.317-.614l.659-1.233,4.214,2.228Z" fill="#fff"/>
    <path id="Path_3550" data-name="Path 3550" d="M1229.528,447.529l.394-.972,4.426,1.78-.4.973Z" fill="#fff"/>
    <path id="Path_3551" data-name="Path 3551" d="M1230.263,445.724l.27-.937a6.249,6.249,0,0,1,.618-.134c.232-.04.485-.066.754-.087l-1.207-.346.286-1,4.586,1.308-.286,1.005-.9-.255a4.976,4.976,0,0,0-1.157-.2,4.65,4.65,0,0,0-1.131.076l3.045.869-.291,1.012Z" fill="#fff"/>
    <path id="Path_3552" data-name="Path 3552" d="M1232.685,442.693a1.982,1.982,0,0,1-1.173-.513,1.275,1.275,0,0,1-.176-1.065,1.293,1.293,0,0,1,.524-.935,1.714,1.714,0,0,1,1.191-.108l.042.025-.184,1.044-.191-.045a.738.738,0,0,0-.374-.009.234.234,0,0,0-.113.183.248.248,0,0,0,.037.214.7.7,0,0,0,.327.115l.136.023,1.934.336a1.045,1.045,0,0,0,.47.019.252.252,0,0,0,.139-.214.264.264,0,0,0-.061-.253,1.128,1.128,0,0,0-.483-.154l-.113-.019-.512-.09-.051.274-.77-.133.217-1.237,2.83.5-.078.44-.221.1a1.1,1.1,0,0,1,.135.388,1.476,1.476,0,0,1-.019.458,1.146,1.146,0,0,1-.528.878,1.968,1.968,0,0,1-1.268.075Z" fill="#fff"/>
    <path id="Path_3553" data-name="Path 3553" d="M1233.261,439.14a1.969,1.969,0,0,1-1.219-.386,1.637,1.637,0,0,1,.142-2.033,1.946,1.946,0,0,1,1.261-.215l1.692.118a1.957,1.957,0,0,1,1.22.387,1.628,1.628,0,0,1-.141,2.033,1.96,1.96,0,0,1-1.26.215Zm-.063-1.069,2.11.146a.681.681,0,0,0,.35-.031.237.237,0,0,0,.084-.2.232.232,0,0,0-.062-.209.81.81,0,0,0-.371-.081l-.108-.007-2.074-.144a.739.739,0,0,0-.37.031.227.227,0,0,0-.1.194.238.238,0,0,0,.059.208.642.642,0,0,0,.337.078Z" fill="#fff"/>
    <path id="Path_3554" data-name="Path 3554" d="M1171.49,422.861l-.133-.042a.631.631,0,0,0-.344-.048.218.218,0,0,0-.131.167.235.235,0,0,0,.014.225.9.9,0,0,0,.381.179l.055.016,3.22,1.011-.316,1-3.085-.968a1.949,1.949,0,0,1-1.1-.658,1.62,1.62,0,0,1,.61-1.929,1.961,1.961,0,0,1,1.276.091l3.085.968-.314,1Z" fill="#fff"/>
    <path id="Path_3555" data-name="Path 3555" d="M1174,426.157l-.216.951a5.027,5.027,0,0,1-.61.171c-.227.052-.477.1-.744.134l1.225.271-.224,1.018-4.66-1.029.229-1.019.91.2a5.159,5.159,0,0,0,1.168.125,4.729,4.729,0,0,0,1.122-.146l-3.091-.684.231-1.024Z" fill="#fff"/>
    <rect id="Rectangle_130" data-name="Rectangle 130" width="1.05" height="4.772" transform="translate(1168.418 429.957) rotate(-82.532)" fill="#fff"/>
    <path id="Path_3556" data-name="Path 3556" d="M1172.958,432.338l-1.369-.085a15.4,15.4,0,0,0-1.581-.033,4.335,4.335,0,0,0-.916.137,3.825,3.825,0,0,0,.894.255,14.669,14.669,0,0,0,1.573.156l1.367.084-.062,1.04-1.44-.089a9.091,9.091,0,0,1-1.97-.294,3.9,3.9,0,0,1-1.308-.65l.065-1.117a4.069,4.069,0,0,1,1.38-.488,9.293,9.293,0,0,1,2-.05l1.435.086Z" fill="#fff"/>
    <path id="Path_3557" data-name="Path 3557" d="M1168.046,434.73l4.772-.126.056,2.143-.906.022-.028-1.091-.811.02.027,1.055-.906.021-.022-1.053-1.246.033.031,1.141-.909.022Z" fill="#fff"/>
    <path id="Path_3558" data-name="Path 3558" d="M1172.885,437.5l.158,1.4a1.2,1.2,0,0,1-.206.978,1.748,1.748,0,0,1-1.083.4,1.948,1.948,0,0,1-.635-.015.567.567,0,0,1-.362-.213l-2.31.652-.124-1.092,2.106-.513-.029-.253-2.137.241-.121-1.043Zm-1.686,1.211.022.173a.409.409,0,0,0,.136.309.7.7,0,0,0,.41.036.58.58,0,0,0,.349-.127.341.341,0,0,0,.076-.29l-.026-.209Z" fill="#fff"/>
    <path id="Path_3559" data-name="Path 3559" d="M1172.3,442.743l.113-.07a.547.547,0,0,0,.3-.148.272.272,0,0,0,.05-.259.287.287,0,0,0-.111-.175.274.274,0,0,0-.2-.035c-.146.035-.36.338-.642.915-.053.113-.093.2-.122.255a1.528,1.528,0,0,1-.453.577,1.875,1.875,0,0,1-.73.309,1.469,1.469,0,0,1-1.086-.1,1.3,1.3,0,0,1-.551-.894,1.338,1.338,0,0,1,.1-1.054,1.471,1.471,0,0,1,.955-.541l.341-.062.234,1.039-.3.052a.9.9,0,0,0-.379.151.224.224,0,0,0-.077.234.221.221,0,0,0,.131.162.5.5,0,0,0,.271.007.861.861,0,0,0,.387-.188,1.945,1.945,0,0,0,.359-.512c.022-.039.056-.105.1-.185.372-.7.769-1.095,1.2-1.19a1.153,1.153,0,0,1,.944.142,1.385,1.385,0,0,1,.516.882,1.368,1.368,0,0,1-.075,1.035,1.416,1.416,0,0,1-.926.512l-.149.078Z" fill="#fff"/>
    <path id="Path_3560" data-name="Path 3560" d="M1174.115,444.1l.316,1-4.55,1.425-.315-1Z" fill="#fff"/>
    <path id="Path_3561" data-name="Path 3561" d="M1174.314,447.269l-2.711,1.172.072.162a.4.4,0,0,0,.174.218.629.629,0,0,0,.371-.087l.11-.046,1.78-.768c.182-.081.286-.151.315-.214a.372.372,0,0,0-.042-.277Zm.412-1.324.564,1.288a1.251,1.251,0,0,1,.1.977,1.372,1.372,0,0,1-.788.655l-2.013.875a1.413,1.413,0,0,1-1.017.123,1.249,1.249,0,0,1-.653-.736l-.565-1.288Z" fill="#fff"/>
    <path id="Path_3562" data-name="Path 3562" d="M1171.812,451.177l.832-.429a10.892,10.892,0,0,1,2.1-.862,4.679,4.679,0,0,1,1.691-.162l.437.836a4.719,4.719,0,0,1-1.107,1.285,10.576,10.576,0,0,1-1.909,1.215l-.83.43-.488-.93.7-.362-.243-.457-.7.362Zm1.98.152.235.458a11.788,11.788,0,0,0,1.039-.621,5.177,5.177,0,0,0,.711-.571,4.587,4.587,0,0,0-.88.249,11.419,11.419,0,0,0-1.1.485" fill="#fff"/>
    <path id="Path_3563" data-name="Path 3563" d="M1177.4,453.3l-2.52,1.536.093.151a.4.4,0,0,0,.2.192.627.627,0,0,0,.356-.138l.1-.061,1.654-1.007c.17-.1.266-.188.283-.255a.385.385,0,0,0-.078-.271Zm.223-1.366.739,1.2a1.232,1.232,0,0,1,.229.955,1.383,1.383,0,0,1-.686.757l-1.875,1.142a1.4,1.4,0,0,1-.988.267,1.253,1.253,0,0,1-.748-.642l-.739-1.2Z" fill="#fff"/>
    <path id="Path_3564" data-name="Path 3564" d="M1176.579,459.028l.742-.566a10.685,10.685,0,0,1,1.916-1.213,4.652,4.652,0,0,1,1.638-.451l.571.748a4.639,4.639,0,0,1-.863,1.458,10.729,10.729,0,0,1-1.668,1.524l-.741.569-.644-.832.626-.479-.314-.408-.626.479Zm1.972-.191.315.407a11.467,11.467,0,0,0,.916-.79,5.169,5.169,0,0,0,.6-.686,4.395,4.395,0,0,0-.822.4,10.949,10.949,0,0,0-1.005.671" fill="#fff"/>
    <path id="Path_3565" data-name="Path 3565" d="M1180.512,461.725l-.106.094a.68.68,0,0,0-.226.265.235.235,0,0,0,.075.2.239.239,0,0,0,.2.106.894.894,0,0,0,.355-.229l.046-.037,2.562-2.179.689.8-2.46,2.09a1.936,1.936,0,0,1-1.14.571,1.619,1.619,0,0,1-1.323-1.535,1.948,1.948,0,0,1,.754-1.032l2.455-2.086.687.8Z" fill="#fff"/>
    <path id="Path_3566" data-name="Path 3566" d="M1183.868,461.771l.635-.6,1.575,1.649-.631.6-.429-.444-2.825,2.669-.726-.762,2.826-2.669Z" fill="#fff"/>
    <path id="Path_3567" data-name="Path 3567" d="M1185.381,464.313a1.946,1.946,0,0,1,1.089-.669,1.264,1.264,0,0,1,.979.46,1.94,1.94,0,0,1,.292.345l-.53-.011.073.1.569.15a.582.582,0,0,1,.077.382,1.947,1.947,0,0,1-.651,1.091l-1.192,1.2a1.932,1.932,0,0,1-1.087.668,1.279,1.279,0,0,1-.982-.458,1.266,1.266,0,0,1-.478-.968,1.917,1.917,0,0,1,.655-1.093Zm.862.647-1.483,1.5a.7.7,0,0,0-.2.288.228.228,0,0,0,.093.192.233.233,0,0,0,.2.087.765.765,0,0,0,.3-.232l.074-.071,1.457-1.48a.758.758,0,0,0,.22-.3.228.228,0,0,0-.091-.2.241.241,0,0,0-.193-.093.654.654,0,0,0-.279.2Z" fill="#fff"/>
    <path id="Path_3568" data-name="Path 3568" d="M1188.934,465.584l.737.646a6.292,6.292,0,0,1-.148.612c-.066.226-.147.464-.243.717l.835-.941.784.692-3.16,3.557-.788-.691.618-.7a5.32,5.32,0,0,0,.68-.954,4.592,4.592,0,0,0,.412-1.05l-2.1,2.36-.791-.7Z" fill="#fff"/>
    <path id="Path_3569" data-name="Path 3569" d="M1190.649,468.881a1.94,1.94,0,0,1,1.026-.759,1.283,1.283,0,0,1,1.017.371,1.269,1.269,0,0,1,.561.925,1.928,1.928,0,0,1-.555,1.143l-1.081,1.3a1.936,1.936,0,0,1-1.023.764,1.3,1.3,0,0,1-1.017-.374,1.271,1.271,0,0,1-.561-.924,1.936,1.936,0,0,1,.553-1.145Zm.915.57-1.348,1.625a.7.7,0,0,0-.177.3.235.235,0,0,0,.111.183.226.226,0,0,0,.206.07.763.763,0,0,0,.281-.253l.068-.082,1.325-1.6a.839.839,0,0,0,.194-.32.253.253,0,0,0-.109-.187.244.244,0,0,0-.2-.077.683.683,0,0,0-.26.228Z" fill="#fff"/>
    <path id="Path_3570" data-name="Path 3570" d="M1193.976,475.466l2.158-2.9a2.231,2.231,0,0,0-.731.321,3.341,3.341,0,0,0-.7.738l-.157.213-.984,1.321-.844-.62L1193.86,473a3.283,3.283,0,0,0,.506-.881,2.114,2.114,0,0,0,.093-.788l-2.158,2.9-.845-.625,2.838-3.814,1.133.832a3.439,3.439,0,0,1-.024.682,3.976,3.976,0,0,1-.177.738,3.648,3.648,0,0,1,.65-.382,3.177,3.177,0,0,1,.656-.223l1.133.832-2.837,3.815Z" fill="#fff"/>
    <path id="Path_3571" data-name="Path 3571" d="M1195.646,476.622l.515-.777a10.658,10.658,0,0,1,1.419-1.766,4.612,4.612,0,0,1,1.4-.955l.79.519a4.7,4.7,0,0,1-.343,1.66,10.716,10.716,0,0,1-1.075,1.983l-.519.774-.878-.576.434-.658-.428-.282-.436.653Zm1.8-.82.431.282a11.087,11.087,0,0,0,.6-1.043,4.819,4.819,0,0,0,.341-.841,5.1,5.1,0,0,0-.645.638,11.7,11.7,0,0,0-.73.964" fill="#fff"/>
    <path id="Path_3572" data-name="Path 3572" d="M1187.183,463.959l.02.511,1.017.033-.213-.612Z" fill="#fff"/>
    <path id="Path_3573" data-name="Path 3573" d="M1202.38,475.559c.183,0,.336.374.336.832,0,0-.127.735-.167,1.123l1.081-.159c.441,0,.8.149.8.334s-.36.336-.8.336c0,0-.731-.126-1.075-.166l.161,1.129c0,.46-.153.83-.336.83s-.334-.37-.334-.83c0,0,.125-.764.166-1.12-.382.049-1.084.157-1.084.157-.44,0-.8-.15-.8-.336s.359-.334.8-.334c0,0,.7.123,1.074.166-.048-.395-.156-1.13-.156-1.13,0-.458.149-.832.334-.832" fill="#fff"/>
  </g>
</svg>
