<svg xmlns="http://www.w3.org/2000/svg" xmlns:xlink="http://www.w3.org/1999/xlink" width="80.792" height="100.719" viewBox="0 0 80.792 100.719">
  <defs>
    <clipPath id="clip-path">
      <path id="Path_3245" data-name="Path 3245" d="M694.671,456.962c4.351-.683,7.557-6.523,8.015-9.612,2.977,5.149,7.328,8.239,16.486,8.239s13.052-3.089,16.028-8.239c.459,3.09,4.351,8.929,8.014,9.612Z" transform="translate(-694.671 -447.35)" stroke="#fff" stroke-miterlimit="10" stroke-width="0.502" clip-rule="evenodd"/>
    </clipPath>
  </defs>
  <g id="Group_396" data-name="Group 396" transform="translate(-673.619 -373.981)">
    <path id="Path_3201" data-name="Path 3201" d="M677.241,437.444c-6.9-15.982-2.494-37.466,10.5-48.5,2.639-2.491,7.1-5.1,11.921-7.589,4.776-2.469,9.507-4.627,14.315-7.018,4.827,2.4,9.559,4.549,14.355,7.017,4.842,2.494,9.334,5.106,11.973,7.6,12.983,11.038,17.387,32.514,10.486,48.491-7.068,16.368-21.878,28.372-36.814,36.891C699.03,465.811,684.309,453.811,677.241,437.444Z" transform="translate(0)" fill="#fff" stroke="#231f20" stroke-miterlimit="3.864" stroke-width="0.634"/>
    <path id="Path_3202" data-name="Path 3202" d="M677.927,437.4c6.8,15.745,20.932,27.72,36.209,36.457,15.279-8.737,29.488-20.713,36.288-36.457,6.81-15.768,2.437-36.983-10.349-47.843-2.572-2.433-7-5.017-11.845-7.513-4.8-2.469-9.965-4.839-14.094-6.887-4.127,2.048-9.279,4.418-14.053,6.887-4.826,2.5-9.235,5.079-11.808,7.513C675.489,400.413,671.117,421.628,677.927,437.4Z" transform="translate(-0.159 -0.178)" fill="none" stroke="#231f20" stroke-miterlimit="3.864" stroke-width="0.366"/>
    <path id="Path_3203" data-name="Path 3203" d="M687.768,407.875c5.078-11.235,17.89-17.368,28.483-21.245,10.6,3.877,23.479,10,28.563,21.245,6.964,15.4,2.2,30.877-7.994,42.426A107.98,107.98,0,0,1,722.8,463.535a77.535,77.535,0,0,1-6.553,4.692,77.75,77.75,0,0,1-6.514-4.693A109.3,109.3,0,0,1,695.76,450.3C685.568,438.752,680.8,423.279,687.768,407.875Z" transform="translate(-2.276 -2.67)" fill="none" stroke="#231f20" stroke-miterlimit="3.864" stroke-width="0.634"/>
    <path id="Path_3204" data-name="Path 3204" d="M747.564,426.083a35.362,35.362,0,0,0-3.11-17.723c-5.35-11.879-19.788-17.913-28.041-20.949-8.25,3.036-22.612,9.07-27.962,20.949a35.169,35.169,0,0,0-3.094,17.723Z" transform="translate(-2.437 -2.839)" fill="none" stroke="#231f20" stroke-miterlimit="3.864" stroke-width="0.366"/>
    <path id="Path_3205" data-name="Path 3205" d="M685.5,437.591a44.082,44.082,0,0,0,10.912,23.633,104.186,104.186,0,0,0,20.063,17.7,102.959,102.959,0,0,0,20.139-17.7,44.091,44.091,0,0,0,10.911-23.633Z" transform="translate(-2.498 -14.038)" fill="#2f5ba7"/>
    <path id="Path_3206" data-name="Path 3206" d="M698.23,471.873l-1.568,1.412-1-1.108-.332.3,1,1.109-1.09.981-1.073-1.191-.332.3,1.4,1.56,3.323-2.992Z" transform="translate(-4.357 -21.419)" fill="#231f20" fill-rule="evenodd"/>
    <path id="Path_3207" data-name="Path 3207" d="M695.206,467.878l-.352-.42-1.2.576-.908-1.081.76-1.1-.352-.42-2.618,3.837.422.5Zm-2.728-.552.759.9-2.2,1.077-.008-.01Z" transform="translate(-3.633 -20.007)" fill="#231f20" fill-rule="evenodd"/>
    <path id="Path_3208" data-name="Path 3208" d="M686.807,461.914a1.249,1.249,0,0,0-.511,1.839c.691,1.065,1.833.5,2.677-.048.9-.581,1.985-1.346,1.234-2.5a1.127,1.127,0,0,0-.949-.542,1.724,1.724,0,0,0-.939.3c-.081.039-.16.091-.243.13l.269.414c.092-.045.18-.095.272-.141.442-.215.915-.374,1.237.121.493.761-.648,1.487-1.17,1.8-.5.321-1.526.978-1.995.258-.337-.52-.052-.912.386-1.212Z" transform="translate(-2.622 -18.958)" fill="#231f20" fill-rule="evenodd"/>
    <path id="Path_3209" data-name="Path 3209" d="M686.171,456.91a1.351,1.351,0,0,0-1.134-2.431l-3.075,1.433.21.449L685.084,455a.85.85,0,1,1,.715,1.536l-2.912,1.358.21.447Z" transform="translate(-1.729 -17.571)" fill="#231f20" fill-rule="evenodd"/>
    <path id="Path_3210" data-name="Path 3210" d="M683.678,447.731l-.42.152.624,1.715-3.782,1.377.17.465,4.2-1.529Z" transform="translate(-1.325 -16.118)" fill="#231f20" fill-rule="evenodd"/>
    <path id="Path_3211" data-name="Path 3211" d="M678.776,445.943l-.26-1.127,3.921-.905-.111-.482-3.922.905-.26-1.127-.436.1.632,2.737Z" transform="translate(-0.805 -15.123)" fill="#231f20" fill-rule="evenodd"/>
    <path id="Path_3212" data-name="Path 3212" d="M681.546,438.932l-.048-.546-1.312-.215-.124-1.408,1.253-.463-.048-.547-4.345,1.643.057.654Zm-1.918-2.017.1,1.177-2.421-.38,0-.012Z" transform="translate(-0.635 -13.487)" fill="#231f20" fill-rule="evenodd"/>
    <path id="Path_3213" data-name="Path 3213" d="M681.213,430.447c.042-1.209-1.1-1.464-2.184-1.538s-2.24.077-2.289,1.473l-.043,1.226,4.47.157Zm-4.051.682.027-.792c.027-.8.712-.917,1.732-.917,1.336,0,1.868.315,1.843,1.043l-.028.792Z" transform="translate(-0.586 -11.98)" fill="#231f20" fill-rule="evenodd"/>
    <path id="Path_3214" data-name="Path 3214" d="M683.114,418.883c.355-1.158-.677-1.7-1.71-2.05s-2.183-.507-2.592.828l-.359,1.175,4.276,1.307Zm-4.089-.389.233-.759c.233-.764.925-.7,1.91-.438,1.291.344,1.723.788,1.51,1.484l-.231.758Z" transform="translate(-0.967 -9.278)" fill="#231f20" fill-rule="evenodd"/>
    <path id="Path_3215" data-name="Path 3215" d="M685.925,411.333l-.414-.167-.657,1.625-1.531-.619.612-1.514-.414-.168-.612,1.515-1.372-.554.653-1.614-.414-.168-.839,2.074,4.146,1.675Z" transform="translate(-1.506 -7.76)" fill="#231f20" fill-rule="evenodd"/>
    <rect id="Rectangle_123" data-name="Rectangle 123" width="0.495" height="4.472" transform="translate(684.529 395.409) rotate(-48.998)" fill="#231f20"/>
    <path id="Path_3216" data-name="Path 3216" d="M695.031,398.209c.109.126.227.252.337.37l-.009.008c-.182-.118-.308-.2-.438-.268l-3.359-1.93-.609.528,2.935,3.376.373-.325-2.339-2.691c-.149-.171-.305-.342-.459-.51l.009-.008a3.556,3.556,0,0,0,.569.4l3.291,1.878.612-.532-2.933-3.375-.374.324Z" transform="translate(-3.724 -4.567)" fill="#231f20" fill-rule="evenodd"/>
    <path id="Path_3217" data-name="Path 3217" d="M700.462,392.341l-1.222.856.257.366.816-.571c.412.578.825,1.314.05,1.807-.748.472-1.4-.521-1.789-1.077-.437-.625-1.071-1.551-.259-2.1.47-.315.88-.135,1.2.311l.409-.287a1.251,1.251,0,0,0-1.887-.376c-1.058.742-.492,1.875.106,2.729s1.444,1.886,2.533,1.123a1,1,0,0,0,.4-1.218l.009-.007.4.572.313-.218Z" transform="translate(-5.15 -3.618)" fill="#231f20" fill-rule="evenodd"/>
    <path id="Path_3218" data-name="Path 3218" d="M707.388,390.672l-.224-.388-1.517.877-.826-1.431,1.415-.816-.224-.387-1.415.816-.739-1.28,1.507-.87-.224-.388-1.936,1.118,2.236,3.873Z" transform="translate(-6.415 -2.708)" fill="#231f20" fill-rule="evenodd"/>
    <path id="Path_3219" data-name="Path 3219" d="M712.7,387.006c.072.15.153.3.229.445l-.01.005c-.145-.162-.245-.271-.354-.372l-2.745-2.734-.724.353,1.96,4.019.445-.217-1.562-3.2c-.1-.2-.207-.409-.312-.612l.01,0a3.679,3.679,0,0,0,.446.534l2.694,2.666.728-.356-1.959-4.019-.445.217Z" transform="translate(-7.708 -1.992)" fill="#231f20" fill-rule="evenodd"/>
    <rect id="Rectangle_124" data-name="Rectangle 124" width="0.494" height="4.473" transform="translate(706.763 380.255) rotate(-23)" fill="#231f20"/>
    <path id="Path_3220" data-name="Path 3220" d="M723.729,383.627l-.092-.437-1.715.364-.343-1.615,1.6-.34-.093-.438-1.6.34-.307-1.447,1.7-.362-.093-.438-2.187.465.93,4.374Z" transform="translate(-10.234 -1.069)" fill="#231f20" fill-rule="evenodd"/>
    <path id="Path_3221" data-name="Path 3221" d="M728.728,380.147l.682.146c.326.069.912.212.764.966a.768.768,0,0,1-1.018.625l-.764-.163Zm-.427,2.012.845.179a.715.715,0,0,1,.574.969,4.088,4.088,0,0,0-.085,1.147l.566.12.021-.1c-.117-.025-.112-.225-.112-.31.024-.337.063-.664.114-.994.055-.6-.046-.809-.6-.981l0-.012a.956.956,0,0,0,1.041-.772c.244-1-.29-1.367-1.2-1.561l-1.125-.24-.93,4.374.484.1Z" transform="translate(-11.729 -1.145)" fill="#231f20" fill-rule="evenodd"/>
    <path id="Path_3222" data-name="Path 3222" d="M734.138,386.554l1.819-4.086-.453-.2-1.818,4.085Zm1.4-4.718.365.164,1.056-.451-.594-.265Z" transform="translate(-13.108 -1.509)" fill="#231f20" fill-rule="evenodd"/>
    <path id="Path_3223" data-name="Path 3223" d="M737.239,388.421l.492.241.86-1.014,1.27.62-.249,1.311.493.24.83-4.57-.589-.287Zm2.717-.605-1.062-.517,1.573-1.88.011.005Z" transform="translate(-13.89 -2.308)" fill="#231f20" fill-rule="evenodd"/>
    <path id="Path_3224" data-name="Path 3224" d="M750.263,390.359l-.45-.315-.471,3.012-.995,1.421.406.283.995-1.421,2.678-1.466-.449-.315-2.145,1.234Z" transform="translate(-16.33 -3.412)" fill="#231f20" fill-rule="evenodd"/>
    <path id="Path_3225" data-name="Path 3225" d="M755.675,401.028l.366.407,1.177-.618.945,1.05-.721,1.124.366.407,2.482-3.927-.439-.488Zm2.745.456-.79-.876,2.162-1.154.009.009Z" transform="translate(-17.978 -5.413)" fill="#231f20" fill-rule="evenodd"/>
    <path id="Path_3226" data-name="Path 3226" d="M764.076,404.815l.37.591c.176.283.48.8-.166,1.221a.768.768,0,0,1-1.156-.3l-.413-.662Zm-1.744,1.091.458.733a.714.714,0,0,1-.3,1.086,4.086,4.086,0,0,0-.885.735l.307.491L762,408.9c-.064-.1.084-.236.146-.3.258-.218.521-.416.794-.608.468-.377.549-.6.288-1.115l.009-.007a.958.958,0,0,0,1.28.214c.89-.521.781-1.157.285-1.95l-.61-.975-3.793,2.369.264.42Z" transform="translate(-19.005 -6.55)" fill="#231f20" fill-rule="evenodd"/>
    <path id="Path_3227" data-name="Path 3227" d="M765.416,415.144a3.984,3.984,0,0,0,1.8-.321c.958-.367,2.024-.95,1.547-2.19-.467-1.219-1.647-.932-2.605-.564-1.153.455-2.216,1.029-1.749,2.248a1.372,1.372,0,0,0,.622.719l-.211.618.379.123Zm-.246-.557a.862.862,0,0,1-.348-.441c-.3-.7.4-1.177,1.336-1.529,1.21-.457,1.9-.58,2.192.187s-.3,1.137-1.5,1.612a3.579,3.579,0,0,1-1.27.27l.162-.509-.4-.128Z" transform="translate(-19.85 -8.217)" fill="#231f20" fill-rule="evenodd"/>
    <path id="Path_3228" data-name="Path 3228" d="M767.437,419.55a1.154,1.154,0,0,0-.827,1.589c.2.787.7,1.208,1.476,1.015l3.292-.821-.119-.48-3.119.777a.85.85,0,1,1-.409-1.643l3.117-.777-.12-.48Z" transform="translate(-20.339 -9.749)" fill="#231f20" fill-rule="evenodd"/>
    <rect id="Rectangle_125" data-name="Rectangle 125" width="4.472" height="0.495" transform="translate(747.162 415.628) rotate(-7)" fill="#231f20"/>
    <path id="Path_3229" data-name="Path 3229" d="M772.152,431.2v1.156h-4.025v.5h4.025v1.156h.447V431.2Z" transform="translate(-20.683 -12.487)" fill="#231f20" fill-rule="evenodd"/>
    <path id="Path_3230" data-name="Path 3230" d="M767.515,440.179l.444.055.213-1.74,1.639.2-.2,1.621.444.056.2-1.622,1.468.18-.212,1.728.444.054.272-2.219-4.439-.545Z" transform="translate(-20.55 -13.968)" fill="#231f20" fill-rule="evenodd"/>
    <path id="Path_3231" data-name="Path 3231" d="M768.983,447.57a1.251,1.251,0,0,0,1.725-.82c.35-1.22-.825-1.713-1.793-1.99-1.026-.294-2.318-.615-2.7.709a1.125,1.125,0,0,0,.214,1.071,1.7,1.7,0,0,0,.838.514c.084.036.175.062.258.1l.136-.477c-.094-.038-.19-.072-.284-.112-.453-.193-.883-.445-.72-1.012.25-.871,1.548-.488,2.125-.3.568.162,1.74.51,1.5,1.336-.171.6-.654.637-1.167.5Z" transform="translate(-20.257 -15.407)" fill="#231f20" fill-rule="evenodd"/>
    <path id="Path_3232" data-name="Path 3232" d="M768.547,451.976l-.433,1.072-3.731-1.507L764.2,452l3.731,1.508-.433,1.073.415.166,1.052-2.6Z" transform="translate(-19.829 -16.954)" fill="#231f20" fill-rule="evenodd"/>
    <path id="Path_3233" data-name="Path 3233" d="M762.933,457.026a1.352,1.352,0,0,0-1.3,2.347l2.966,1.644.24-.433-2.811-1.558a.849.849,0,1,1,.821-1.48l2.81,1.558.24-.432Z" transform="translate(-19.137 -18.121)" fill="#231f20" fill-rule="evenodd"/>
    <path id="Path_3234" data-name="Path 3234" d="M761.115,465.362l-.41.565c-.2.269-.564.747-1.194.3a.766.766,0,0,1-.157-1.183l.46-.632Zm-1.664-1.209-.508.7a.714.714,0,0,1-1.119.131,4.123,4.123,0,0,0-1.012-.544l-.341.468.083.06c.07-.1.249-.01.327.025.3.158.582.326.863.509.524.291.757.285,1.141-.152l.01.007a.956.956,0,0,0,.281,1.266c.818.63,1.365.291,1.916-.465l.676-.932L758.15,462.6l-.29.4Z" transform="translate(-18.151 -19.384)" fill="#231f20" fill-rule="evenodd"/>
    <path id="Path_3235" data-name="Path 3235" d="M754.09,467.813l-.352.42.776,1.08-.909,1.083-1.213-.558-.352.42,4.234,1.91.422-.5Zm-.07,2.782.759-.9,1.442,1.981-.008.01Z" transform="translate(-17.143 -20.53)" fill="#231f20" fill-rule="evenodd"/>
    <g id="Group_391" data-name="Group 391" transform="translate(700.318 459.688)">
      <path id="Path_3236" data-name="Path 3236" d="M709.36,485.254a.9.9,0,1,0-1.282.095A.915.915,0,0,0,709.36,485.254Z" transform="translate(-707.773 -483.751)" fill="#231f20" fill-rule="evenodd"/>
      <path id="Path_3237" data-name="Path 3237" d="M712.423,489.11a1.352,1.352,0,0,0,2.114,1.653l2.089-2.673-.391-.3-1.978,2.532a.849.849,0,1,1-1.334-1.042l1.978-2.532-.39-.305Z" transform="translate(-708.722 -484.334)" fill="#231f20" fill-rule="evenodd"/>
      <path id="Path_3238" data-name="Path 3238" d="M718.444,495.13l.459.3.977-.9,1.185.77-.406,1.272.46.3,1.38-4.436-.55-.357Zm2.769-.27-.989-.643,1.79-1.674.01.007Z" transform="translate(-710.091 -485.558)" fill="#231f20" fill-rule="evenodd"/>
      <path id="Path_3239" data-name="Path 3239" d="M728.684,492.505a1.114,1.114,0,0,0-1.753-.369,1.173,1.173,0,0,0-.379,1.7,1,1,0,0,0,1,.561c.269-.024.667-.134.924-.186.475-.1.708-.247,1.078.323a.749.749,0,0,1-.29,1.119c-.624.406-.957.125-1.3-.443l-.416.269a2.525,2.525,0,0,0,.525.633,1.223,1.223,0,0,0,1.411-.07,1.257,1.257,0,0,0,.434-1.882c-.322-.5-.614-.661-1.5-.464-.247.054-.492.106-.74.161a.588.588,0,0,1-.687-.28.7.7,0,0,1,.235-1.1.685.685,0,0,1,1.04.3Z" transform="translate(-711.804 -485.512)" fill="#231f20" fill-rule="evenodd"/>
      <path id="Path_3240" data-name="Path 3240" d="M736.388,490.9c.953-.744.418-1.779-.225-2.661s-1.5-1.667-2.6-.808l-.969.756,2.754,3.524Zm-3.126-2.665.625-.488c.629-.492,1.161-.044,1.817.737.86,1.023.958,1.635.385,2.082l-.625.489Z" transform="translate(-713.164 -484.468)" fill="#231f20" fill-rule="evenodd"/>
      <path id="Path_3241" data-name="Path 3241" d="M741.986,484.068a.9.9,0,1,0-.086,1.283A.916.916,0,0,0,741.986,484.068Z" transform="translate(-714.858 -483.75)" fill="#231f20" fill-rule="evenodd"/>
    </g>
    <g id="Group_395" data-name="Group 395" transform="translate(690.047 423.45)">
      <path id="Path_3242" data-name="Path 3242" d="M718.9,441.13h3.992v2.4h1.756V447.2h8.3V459.17s-5.062,10.148-10.884,10.217c-5.9.07-11.148-10.217-11.148-10.217V437.459h5.428v6.066H718.9Z" transform="translate(-698.199 -437.459)" fill="#231f20" stroke="#fff" stroke-miterlimit="3.864" stroke-width="0.741"/>
      <path id="Path_3243" data-name="Path 3243" d="M735.985,463.931h-5.649a9.781,9.781,0,0,1-19.563,0h-5.865a10.288,10.288,0,0,0,.083,1.638,23.884,23.884,0,0,1,3.433.531,10.167,10.167,0,0,0,.832,2.486l-2.63,2.139a12.383,12.383,0,0,0,1.266,2.408,23.907,23.907,0,0,1,3.238-1.259,10.19,10.19,0,0,0,1.963,1.737l-1.208,3.167a12.357,12.357,0,0,0,2.3,1.452,23.959,23.959,0,0,1,2.175-2.711,10.17,10.17,0,0,0,2.567.523l.575,3.506a16.625,16.625,0,0,0,2.676-.051,24.033,24.033,0,0,1,.53-3.437,10.136,10.136,0,0,0,2.484-.833l2.25,2.749a16.556,16.556,0,0,0,2.293-1.382,24.008,24.008,0,0,1-1.258-3.242,10.178,10.178,0,0,0,1.735-1.964l3.321,1.253a16.533,16.533,0,0,0,1.295-2.345,23.925,23.925,0,0,1-2.709-2.178,10.177,10.177,0,0,0,.522-2.569l3.344-.536Z" transform="translate(-696.894 -443.208)" fill="#fff" fill-rule="evenodd"/>
      <g id="Group_394" data-name="Group 394" transform="translate(0 7.743)">
        <path id="Path_3244" data-name="Path 3244" d="M694.671,456.962c4.351-.683,7.557-6.523,8.015-9.612,2.977,5.149,7.328,8.239,16.486,8.239s13.052-3.089,16.028-8.239c.459,3.09,4.351,8.929,8.014,9.612Z" transform="translate(-694.671 -447.35)" fill-rule="evenodd"/>
        <g id="Group_393" data-name="Group 393" clip-path="url(#clip-path)">
          <g id="Group_392" data-name="Group 392" transform="translate(3.206 -1.145)">
            <line id="Line_90" data-name="Line 90" y1="11.905" stroke="#fff" stroke-miterlimit="3.864" stroke-width="0.502"/>
            <line id="Line_91" data-name="Line 91" y1="11.905" transform="translate(1.62)" stroke="#fff" stroke-miterlimit="3.864" stroke-width="0.502"/>
            <line id="Line_92" data-name="Line 92" y1="11.905" transform="translate(3.241)" stroke="#fff" stroke-miterlimit="3.864" stroke-width="0.502"/>
            <line id="Line_93" data-name="Line 93" y1="11.905" transform="translate(4.861)" stroke="#fff" stroke-miterlimit="3.864" stroke-width="0.502"/>
            <line id="Line_94" data-name="Line 94" y1="11.905" transform="translate(6.482)" stroke="#fff" stroke-miterlimit="3.864" stroke-width="0.502"/>
            <line id="Line_95" data-name="Line 95" y1="11.905" transform="translate(8.102)" stroke="#fff" stroke-miterlimit="3.864" stroke-width="0.502"/>
            <line id="Line_96" data-name="Line 96" y1="11.905" transform="translate(9.723)" stroke="#fff" stroke-miterlimit="3.864" stroke-width="0.502"/>
            <line id="Line_97" data-name="Line 97" y1="11.905" transform="translate(11.343)" stroke="#fff" stroke-miterlimit="3.864" stroke-width="0.502"/>
            <line id="Line_98" data-name="Line 98" y1="11.905" transform="translate(12.964)" stroke="#fff" stroke-miterlimit="3.864" stroke-width="0.502"/>
            <line id="Line_99" data-name="Line 99" y1="11.905" transform="translate(14.584)" stroke="#fff" stroke-miterlimit="3.864" stroke-width="0.502"/>
            <line id="Line_100" data-name="Line 100" y1="11.905" transform="translate(16.204)" stroke="#fff" stroke-miterlimit="3.864" stroke-width="0.502"/>
            <line id="Line_101" data-name="Line 101" y1="11.905" transform="translate(17.824)" stroke="#fff" stroke-miterlimit="3.864" stroke-width="0.502"/>
            <line id="Line_102" data-name="Line 102" y1="11.905" transform="translate(19.446)" stroke="#fff" stroke-miterlimit="3.864" stroke-width="0.502"/>
            <line id="Line_103" data-name="Line 103" y1="11.905" transform="translate(21.066)" stroke="#fff" stroke-miterlimit="3.864" stroke-width="0.502"/>
            <line id="Line_104" data-name="Line 104" y1="11.905" transform="translate(22.687)" stroke="#fff" stroke-miterlimit="3.864" stroke-width="0.502"/>
            <line id="Line_105" data-name="Line 105" y1="11.905" transform="translate(24.308)" stroke="#fff" stroke-miterlimit="3.864" stroke-width="0.502"/>
            <line id="Line_106" data-name="Line 106" y1="11.905" transform="translate(25.928)" stroke="#fff" stroke-miterlimit="3.864" stroke-width="0.502"/>
            <line id="Line_107" data-name="Line 107" y1="11.905" transform="translate(27.548)" stroke="#fff" stroke-miterlimit="3.864" stroke-width="0.502"/>
            <line id="Line_108" data-name="Line 108" y1="11.905" transform="translate(29.169)" stroke="#fff" stroke-miterlimit="3.864" stroke-width="0.502"/>
            <line id="Line_109" data-name="Line 109" y1="11.905" transform="translate(30.789)" stroke="#fff" stroke-miterlimit="3.864" stroke-width="0.502"/>
            <line id="Line_110" data-name="Line 110" y1="11.905" transform="translate(32.41)" stroke="#fff" stroke-miterlimit="3.864" stroke-width="0.502"/>
            <line id="Line_111" data-name="Line 111" y1="11.905" transform="translate(34.03)" stroke="#fff" stroke-miterlimit="3.864" stroke-width="0.502"/>
            <line id="Line_112" data-name="Line 112" y1="11.905" transform="translate(35.65)" stroke="#fff" stroke-miterlimit="3.864" stroke-width="0.502"/>
            <line id="Line_113" data-name="Line 113" y1="11.905" transform="translate(37.271)" stroke="#fff" stroke-miterlimit="3.864" stroke-width="0.502"/>
            <line id="Line_114" data-name="Line 114" y1="11.905" transform="translate(38.891)" stroke="#fff" stroke-miterlimit="3.864" stroke-width="0.502"/>
            <line id="Line_115" data-name="Line 115" y1="11.905" transform="translate(40.511)" stroke="#fff" stroke-miterlimit="3.864" stroke-width="0.502"/>
            <line id="Line_116" data-name="Line 116" y1="11.905" transform="translate(42.131)" stroke="#fff" stroke-miterlimit="3.864" stroke-width="0.502"/>
          </g>
        </g>
        <path id="Path_3246" data-name="Path 3246" d="M694.671,456.962c4.351-.683,7.557-6.523,8.015-9.612,2.977,5.149,7.328,8.239,16.486,8.239s13.052-3.089,16.028-8.239c.459,3.09,4.351,8.929,8.014,9.612Z" transform="translate(-694.671 -447.35)" fill="none" stroke="#fff" stroke-miterlimit="10" stroke-width="0.502" fill-rule="evenodd"/>
      </g>
      <path id="Path_3247" data-name="Path 3247" d="M727.743,443.767c2.517-2.877,9.35-5.034,12.946-2.877s10.428,3.236,12.585-.719c-2.877,5.754-8.63,5.034-13.664,3.237S731.7,442.329,727.743,443.767Z" transform="translate(-701.854 -438.014)" fill="#fff" fill-rule="evenodd"/>
    </g>
    <path id="Path_3248" data-name="Path 3248" d="M722.329,400.525c6.378,3.095,12.326,7.217,14.806,12.723q.3.672.564,1.343l-15.4.005Zm0,18.955v4.558h-4.949V392.514l.069-.026c8.409,3.195,20.251,8.749,24.644,18.509a32.246,32.246,0,0,1,2.917,13.037H739.56a26.285,26.285,0,0,0-.453-4.555Zm-7.748,4.558h-4.868V395.826c1.679-.833,3.269-1.573,4.868-2.234Zm-7.34-26.918c-5.922,3.269-11.6,7.742-14.361,13.877a32,32,0,0,0-2.9,13.037h5.448a26.951,26.951,0,0,1,.425-4.555l11.435.007.039-4.919-10.054.027q.263-.675.566-1.348c1.766-3.92,5.252-7.14,9.4-9.783Z" transform="translate(-3.47 -3.942)" fill="#2f5ca7" stroke="#000" stroke-miterlimit="3.864" stroke-width="0.502" fill-rule="evenodd"/>
  </g>
</svg>
