<svg xmlns="http://www.w3.org/2000/svg" width="40.349" height="17.523" viewBox="0 0 40.349 17.523">
  <path id="Path_1640" data-name="Path 1640" d="M-1894.9,1858.517a.167.167,0,0,0-.162.158l-.3,2.241.3,2.2a.166.166,0,0,0,.162.157.168.168,0,0,0,.161-.157h0l.35-2.2-.35-2.242a.169.169,0,0,0-.161-.157Zm1.659-1.224a.176.176,0,0,0-.168-.163.175.175,0,0,0-.168.163l-.4,3.624.4,3.543a.175.175,0,0,0,.168.164.176.176,0,0,0,.167-.163l.451-3.544-.451-3.624Zm6.25-3.343a.311.311,0,0,0-.305.3l-.316,6.667.316,4.308a.311.311,0,0,0,.305.3.313.313,0,0,0,.306-.3h0l.357-4.309-.357-6.667A.313.313,0,0,0-1886.994,1853.95Zm-3.235,2.317a.243.243,0,0,0-.237.233l-.356,4.417.356,4.274a.242.242,0,0,0,.237.232.243.243,0,0,0,.236-.232l.4-4.274-.4-4.418A.243.243,0,0,0-1890.229,1856.267Zm6.522,9.261a.379.379,0,0,0,.374-.371l.31-4.236-.309-8.876a.379.379,0,0,0-.374-.371.377.377,0,0,0-.374.372l-.275,8.875.275,4.238A.377.377,0,0,0-1883.707,1865.529Zm6.73.02a.518.518,0,0,0,.512-.51v0l.216-4.115-.216-10.251a.518.518,0,0,0-.512-.51.517.517,0,0,0-.512.51l-.193,10.247c0,.006.193,4.12.193,4.12A.517.517,0,0,0-1876.977,1865.549Zm-3.391-.016a.446.446,0,0,0,.443-.441v0l.263-4.172-.264-8.94a.445.445,0,0,0-.443-.441.444.444,0,0,0-.443.441l-.234,8.941.234,4.171a.444.444,0,0,0,.444.439Zm-8.251-.039a.277.277,0,0,0,.271-.267l.381-4.309-.381-4.1a.275.275,0,0,0-.271-.266.275.275,0,0,0-.271.267l-.335,4.1.335,4.309A.275.275,0,0,0-1888.618,1865.494Zm-3.209-.236a.209.209,0,0,0,.2-.2l.428-4.143-.427-4.3a.21.21,0,0,0-.2-.2.207.207,0,0,0-.2.2l-.377,4.3.377,4.142a.207.207,0,0,0,.2.2Zm13.149-13.424a.478.478,0,0,0-.478.476l-.214,8.614.214,4.145a.478.478,0,0,0,.478.473.478.478,0,0,0,.477-.476v0l.24-4.145-.24-8.615a.478.478,0,0,0-.477-.475Zm-6.678,13.7a.346.346,0,0,0,.34-.337l.333-4.28-.333-8.192a.346.346,0,0,0-.34-.337.345.345,0,0,0-.34.337l-.3,8.192.3,4.282A.344.344,0,0,0-1885.357,1865.537Zm3.721-.4v0l.286-4.209-.286-9.175a.412.412,0,0,0-.408-.406.411.411,0,0,0-.409.406l-.254,9.174.255,4.211a.41.41,0,0,0,.408.4.412.412,0,0,0,.408-.405v0Zm21.661-9.5a4.953,4.953,0,0,0-1.92.385,8.758,8.758,0,0,0-8.721-7.982,8.871,8.871,0,0,0-3.175.593c-.374.145-.474.294-.478.584v15.751a.6.6,0,0,0,.536.587c.013,0,13.668.008,13.757.008a4.963,4.963,0,0,0,4.963-4.963,4.963,4.963,0,0,0-4.962-4.964Zm-15.307-6.433a.552.552,0,0,0-.547.545l-.224,11.18.224,4.058a.55.55,0,0,0,.547.541.552.552,0,0,0,.546-.545v0l.244-4.058-.244-11.181a.552.552,0,0,0-.546-.545Z" transform="translate(1895.361 -1848.037)" fill="#fff"/>
</svg>
