<svg xmlns="http://www.w3.org/2000/svg" width="165.271" height="74.784" viewBox="0 0 165.271 74.784">
  <path id="Union_4" data-name="Union 4" d="M704.978,6134.776a1.081,1.081,0,0,1-.323-2.067c.015-.029.032-.062.048-.092a4.818,4.818,0,0,0,.293-.838c.079-.3.14-.613.191-.931s.077-.61.089-.939c.059-1.3.04-2.636.059-3.963.018-2.654.066-5.316.16-7.974.188-5.318.511-10.63,1-15.926l.38-3.971.434-3.966.217-1.737a10.347,10.347,0,0,0-1.689.558c-.1.043-.2.089-.291.137l-.139.072-.091.048a2.936,2.936,0,0,0-.354.252,2.468,2.468,0,0,0-.633.942,6.117,6.117,0,0,0-.4,2.742l.008.091a.333.333,0,1,1-.664.06l0-.011a13.963,13.963,0,0,0-.186-1.542,8.588,8.588,0,0,1-.1-1.615,3.255,3.255,0,0,1,.587-1.726,2.919,2.919,0,0,1,.753-.707l.225-.134.183-.094c.125-.06.246-.119.37-.172a12.155,12.155,0,0,1,2.653-.8l.042-.328c.192-1.318.365-2.637.576-3.954.41-2.633.891-5.261,1.5-7.872l.234-.979c.082-.326.175-.651.262-.978.168-.65.379-1.3.579-1.944l.345-.965c.117-.322.259-.644.383-.967l.212-.489a5.118,5.118,0,0,1,.229-.5c.04-.086.077-.169.122-.257l.151-.265a2.87,2.87,0,0,1,.183-.287,1.338,1.338,0,0,1,.125-.16,1.072,1.072,0,0,1,.263-.234.972.972,0,1,1,.961,1.689c.132-.092.068-.062.075-.072s-.026.006-.046.02a.485.485,0,0,0-.123.1l-.135.142c-.045.052-.086.114-.131.171a6.11,6.11,0,0,0-.466.78c-.125.29-.263.571-.371.873l-.333.905c-.2.618-.4,1.232-.573,1.865-.085.314-.179.628-.262.942l-.237.955c-.616,2.551-1.116,5.144-1.546,7.75-.217,1.289-.4,2.587-.6,3.878a8.476,8.476,0,0,1,2.168.146,5.8,5.8,0,0,1,3,1.587,5.886,5.886,0,0,1,1,1.392,7.4,7.4,0,0,1,.345.761c.088.245.18.488.253.736a18.519,18.519,0,0,1,.711,3.387c.557-.545,1.142-1.062,1.746-1.55a14.168,14.168,0,0,1,1.252-.917,7.171,7.171,0,0,1,.716-.411c.122-.068.269-.124.4-.184a3.177,3.177,0,0,1,.474-.142,2.069,2.069,0,0,1,.587-.062,1.466,1.466,0,0,1,.351.048c.063.017.125.032.185.052s.125.056.186.086a1.542,1.542,0,0,1,.336.232,1.728,1.728,0,0,1,.245.285,1.824,1.824,0,0,1,.165.288,1.644,1.644,0,0,1,.077.189,3.923,3.923,0,0,1,1.136-.993,6.932,6.932,0,0,1,1.518-.664,9.336,9.336,0,0,1,3.165-.394,7.234,7.234,0,0,1,1.62.254,4.92,4.92,0,0,1,1.584.745,3.327,3.327,0,0,1,1.178,1.5,3.612,3.612,0,0,1,.179,1.874,6.66,6.66,0,0,1-.853,2.248,24.826,24.826,0,0,0,3.278-2.955c.074-.849.182-1.7.316-2.542a29.614,29.614,0,0,1,.644-2.912,20.136,20.136,0,0,1,2.4-5.489,13.249,13.249,0,0,1,1.914-2.355,9.009,9.009,0,0,1,1.192-.988,6.3,6.3,0,0,1,.687-.41,3.111,3.111,0,0,1,.394-.172l.108-.039.128-.034.065-.015.089-.012a.973.973,0,0,1,.175,0,.993.993,0,0,1,.687.314,1.2,1.2,0,0,1,.276.582,2.82,2.82,0,0,1,0,.9,9.715,9.715,0,0,1-.371,1.5c-.306.953-.682,1.863-1.073,2.764a27.25,27.25,0,0,1-1.313,2.657c-.482.864-1.021,1.688-1.573,2.5a39.5,39.5,0,0,1-3.179,4c-.006.091-.015.183-.022.275-.04.473-.048.947-.074,1.419-.008.475-.02.957-.018,1.424a10.036,10.036,0,0,0,.311,2.636,2.758,2.758,0,0,0,.471.964.753.753,0,0,0,.605.31,1.936,1.936,0,0,0,.931-.28,4.194,4.194,0,0,0,.5-.328c.169-.128.316-.251.494-.413.708-.639,1.4-1.3,2.088-1.975.656-.642,1.3-1.3,1.912-1.964l0-.014.063-.2a4.618,4.618,0,0,1,.345-.808,2.6,2.6,0,0,1,.283-.42l.092-.109c.034-.037.082-.079.123-.117l.066-.057c.028-.02.062-.043.092-.063a.917.917,0,0,1,.242-.12,1.121,1.121,0,0,1,.165-.051,1.037,1.037,0,0,1,.279-.007.8.8,0,0,1,.323.1.827.827,0,0,1,.277.228,1.043,1.043,0,0,1,.154.272,1.483,1.483,0,0,1,.046.2.77.77,0,0,1,.009.166c0,.043,0,.086-.009.131a1.685,1.685,0,0,1-.226.627,5.7,5.7,0,0,1-.51.7c-.1.122-.2.234-.3.347,0,.018-.006.032-.008.051a7.316,7.316,0,0,0-.032,1.294,9.571,9.571,0,0,0,.168,1.321c.012.057.026.111.039.166.154-.323.3-.669.446-1.016l.539-1.346c.185-.457.363-.913.591-1.392a4.15,4.15,0,0,1,.468-.79c.029-.038.063-.08.091-.112l.077-.08c.054-.057.112-.112.18-.171a1.532,1.532,0,0,1,.665-.36c.054-.011.109-.018.165-.024a1.342,1.342,0,0,1,.191.006,1.023,1.023,0,0,1,.385.126,1.145,1.145,0,0,1,.416.416,1.927,1.927,0,0,1,.213.579,5.109,5.109,0,0,1,.094.854c.018.531,0,1.032-.029,1.532l-.045.708c-.014.229-.011.457-.015.685a6.519,6.519,0,0,0,.456,2.55,1.722,1.722,0,0,0,.288.433.662.662,0,0,0,.306.185.872.872,0,0,0,.45-.1,4.969,4.969,0,0,0,.58-.3,13.468,13.468,0,0,0,2.188-1.794l0-.008a.2.2,0,0,1,.274.008.191.191,0,0,1,.022.237,10.8,10.8,0,0,1-.893,1.2,10.046,10.046,0,0,1-1.07,1.084,4.169,4.169,0,0,1-.657.468,1.915,1.915,0,0,1-.948.287,1.758,1.758,0,0,1-1.019-.377,2.814,2.814,0,0,1-.6-.717,6.989,6.989,0,0,1-.827-3.095c-.011-.257-.028-.514-.026-.771s0-.519.009-.747c.012-.365.012-.725,0-1.076-.353.782-.668,1.653-1.019,2.511-.188.462-.382.924-.625,1.4-.065.122-.119.237-.2.362l-.112.185c-.039.062-.094.131-.142.2a1.451,1.451,0,0,1-.2.233l-.075.069a1.021,1.021,0,0,1-.114.08c-.038.025-.078.049-.12.071a1.4,1.4,0,0,1-.166.062,1.107,1.107,0,0,1-.179.038,1.369,1.369,0,0,1-.2,0,1.113,1.113,0,0,1-.351-.092,1.272,1.272,0,0,1-.242-.151,1.255,1.255,0,0,1-.154-.148,2.092,2.092,0,0,1-.323-.5,4.059,4.059,0,0,1-.172-.426,7.11,7.11,0,0,1-.214-.8,10.9,10.9,0,0,1-.18-1.243c-.89.9-1.8,1.771-2.75,2.617a6.748,6.748,0,0,1-1.323.956,3.552,3.552,0,0,1-1.766.471,2.385,2.385,0,0,1-1.013-.255,2.448,2.448,0,0,1-.787-.636,4.212,4.212,0,0,1-.785-1.564,11.478,11.478,0,0,1-.356-3.084c0-.469.015-.93.028-1.4q-.485.458-.982.9l-.57.477c-.185.163-.4.3-.58.463a5.045,5.045,0,0,0-.482.616,1.735,1.735,0,0,1-.567.521,10.6,10.6,0,0,1-2.587,1.241,17.508,17.508,0,0,1-2.2,1.8,12.886,12.886,0,0,1-1.326.812,9.23,9.23,0,0,1-1.464.649,5.524,5.524,0,0,1-1.7.324,3.245,3.245,0,0,1-.988-.14l-.254-.085c-.077-.032-.149-.069-.222-.1a3.437,3.437,0,0,1-.431-.259,2.815,2.815,0,0,1-.728-.756,2.987,2.987,0,0,1-.411-.935,4.836,4.836,0,0,1-.085-1.78,15.565,15.565,0,0,1,.773-3c.154-.46.32-.92.419-1.316a2.238,2.238,0,0,0,.052-.254c.009-.043,0-.051.008-.072l0-.2.037-.738c.009-.229.014-.446,0-.645a2.024,2.024,0,0,0-.071-.483l0-.014c-.018,0-.035.006-.06.014a1.788,1.788,0,0,0-.216.063c-.086.043-.166.068-.257.119a5.82,5.82,0,0,0-.542.313,12.666,12.666,0,0,0-1.1.8,22.2,22.2,0,0,0-2.06,1.888c-.228.239-.448.486-.662.737,0,.056,0,.111,0,.165a19.386,19.386,0,0,1-.246,3.047,12.977,12.977,0,0,1-.348,1.526,7.314,7.314,0,0,1-.627,1.533,4.2,4.2,0,0,1-.54.758,2.664,2.664,0,0,1-.9.644,2.6,2.6,0,0,1-.286.1,2.056,2.056,0,0,1-.357.057,2.123,2.123,0,0,1-.216,0,.969.969,0,0,1-.229-.039,2.372,2.372,0,0,1-.239-.077c-.074-.04-.149-.086-.222-.134a.879.879,0,0,1-.188-.16c-.054-.055-.106-.117-.156-.179a2.069,2.069,0,0,1-.182-.345,2.339,2.339,0,0,1-.14-.593,4.978,4.978,0,0,1,.212-1.765,10.58,10.58,0,0,1,.548-1.492,17.441,17.441,0,0,1,2.292-3.67,17.643,17.643,0,0,0-.764-4.681c-.065-.218-.146-.429-.222-.642a5.91,5.91,0,0,0-.256-.565,4.065,4.065,0,0,0-.69-.967,3.994,3.994,0,0,0-2.08-1.083,6.936,6.936,0,0,0-2.045-.084l-.285,2.143-.466,3.943c-.135,1.316-.289,2.631-.406,3.949-.239,2.636-.459,5.276-.619,7.917-.091,1.319-.152,2.642-.223,3.963-.051,1.321-.109,2.644-.14,3.968-.075,2.646-.1,5.292-.1,7.94l-.011,4c0,.331-.009.695-.015,1.044s-.032.691-.06,1.044a10.685,10.685,0,0,1-.131,1.105c-.02.1-.035.2-.068.307l-.042.162-.058.174a2.115,2.115,0,0,1-.208.413c-.025.039-.066.089-.1.132a1.15,1.15,0,0,1-.145.146.937.937,0,0,1-.1.079c-.045.031-.091.058-.137.086a1.452,1.452,0,0,1-.2.085,1.248,1.248,0,0,1-.149.037.9.9,0,0,1-.177.017C705.063,6134.781,705.025,6134.778,704.978,6134.776Zm-.388-2a.412.412,0,0,0-.048.04.367.367,0,0,0-.052.062.154.154,0,0,0-.018.04c0,.025.023.014.051-.011a.8.8,0,0,0,.112-.16A.461.461,0,0,0,704.59,6132.774Zm.41-.154a.625.625,0,0,1,.074,0A.507.507,0,0,0,705,6132.621Zm8.408-25.811h0Zm.93-2.255a8.914,8.914,0,0,0-.456,1.236,4.469,4.469,0,0,0-.151.789,2.427,2.427,0,0,0,.291-.419,7.99,7.99,0,0,0,.765-2.468l0-.037C714.63,6103.953,714.476,6104.251,714.338,6104.555Zm7.9-.776a3.169,3.169,0,0,0,.035,1.125,1.167,1.167,0,0,0,.456.7,1.581,1.581,0,0,0,.2.117l.108.054a.951.951,0,0,1,.092.028,1.486,1.486,0,0,0,.456.062,3.77,3.77,0,0,0,1.15-.227,7.732,7.732,0,0,0,1.2-.528,12.044,12.044,0,0,0,1.162-.71c.062-.04.12-.087.182-.131a5.145,5.145,0,0,1-.544-.118,7.136,7.136,0,0,1-1.513-.6c-.232-.123-.462-.252-.677-.383s-.414-.254-.645-.408a4.267,4.267,0,0,1-1.136-1.084A11.723,11.723,0,0,0,722.241,6103.779Zm4.286-7.6a5.376,5.376,0,0,0-1.144.493,2.074,2.074,0,0,0-.748.684.848.848,0,0,0-.069.126l-.077.151c-.052.1-.1.2-.148.3-.1.2-.175.4-.252.606a3.956,3.956,0,0,0-.254,1.155,1.6,1.6,0,0,0,.226.927,2.4,2.4,0,0,0,.765.75,8.157,8.157,0,0,0,2.345,1.182,4.648,4.648,0,0,0,.6.125,5.047,5.047,0,0,0,.607.029,4.243,4.243,0,0,0,.9-.1,14.114,14.114,0,0,0,1.747-2.043,6.023,6.023,0,0,0,1.045-2.285,1.868,1.868,0,0,0-.078-.985,1.622,1.622,0,0,0-.6-.748,4.3,4.3,0,0,0-2.28-.679c-.125-.006-.249-.011-.374-.011A7.732,7.732,0,0,0,726.527,6096.181Zm16.941-11.452a7.545,7.545,0,0,0-1,.847,11.924,11.924,0,0,0-1.686,2.117,18.769,18.769,0,0,0-2.166,5.1,27.422,27.422,0,0,0-.608,2.967q.949-1.178,1.809-2.423c.528-.789,1.044-1.584,1.5-2.41a26.151,26.151,0,0,0,1.239-2.537c.374-.876.731-1.763,1.008-2.638a7.926,7.926,0,0,0,.306-1.267l0,0C743.737,6084.55,743.6,6084.638,743.468,6084.729Zm23.036,24.93c-.154-.072-.311-.139-.456-.225s-.279-.189-.414-.288l-.356-.35c-.111-.122-.2-.259-.3-.39a5.107,5.107,0,0,1-.7-1.724,7.752,7.752,0,0,1,.115-3.307,12.367,12.367,0,0,1-2.813,1.147,7.5,7.5,0,0,1-1.747.254,4.411,4.411,0,0,1-1.844-.348,3.169,3.169,0,0,1-.83-.555,3.548,3.548,0,0,1-.616-.742,4.549,4.549,0,0,1-.627-1.743,6.112,6.112,0,0,1,0-1.789,5.874,5.874,0,0,1,.516-1.718,3.443,3.443,0,0,1,.537-.805,1.984,1.984,0,0,1,.428-.36,1.35,1.35,0,0,1,.641-.206.837.837,0,0,1,.2.008.73.73,0,0,1,.214.054.967.967,0,0,1,.356.229,1.081,1.081,0,0,1,.286.568,1.287,1.287,0,0,1-.2.965.138.138,0,0,1-.192.039.146.146,0,0,1-.028-.024l-.012-.014c-.212-.243-.343-.479-.471-.629-.058-.076-.115-.128-.129-.122s.018.017.032.021a.614.614,0,0,0-.306.217,2.347,2.347,0,0,0-.351.55,5.048,5.048,0,0,0-.382,2.839,3.376,3.376,0,0,0,.477,1.289,2.351,2.351,0,0,0,.423.5,1.953,1.953,0,0,0,.52.337,4.374,4.374,0,0,0,2.787-.009,11.458,11.458,0,0,0,2.821-1.218c.308-.182.611-.38.905-.59q.314-.769.7-1.5a6.14,6.14,0,0,1,.411-.674,15.649,15.649,0,0,0-2.182.351h0a.51.51,0,0,1-.239-.992,14.755,14.755,0,0,1,3.333-.5,7.54,7.54,0,0,1,1.741.166,4.93,4.93,0,0,1,1.689.705,3.894,3.894,0,0,1,1.255,1.406,4.856,4.856,0,0,1,.531,1.757,8.866,8.866,0,0,1-.359,3.453,7.132,7.132,0,0,1-1.718,3.089,3.866,3.866,0,0,1-1.654.97,3.165,3.165,0,0,1-.862.12A3.058,3.058,0,0,1,766.5,6109.659Zm1.635-10.075a1.528,1.528,0,0,1-.157.668l-.037.076-.032.054-.066.108a2.1,2.1,0,0,1-.137.2c-.091.129-.189.248-.286.365a9.276,9.276,0,0,1-1.347,1.233,11.072,11.072,0,0,0-.39,1.206,6.592,6.592,0,0,0-.162,2.928,3.928,3.928,0,0,0,.505,1.273,1.981,1.981,0,0,0,.941.787,2.186,2.186,0,0,0,2.309-.607,4.443,4.443,0,0,0,.834-1.147l.169-.326c.051-.114.092-.231.139-.347l.135-.349.115-.368a7.677,7.677,0,0,0,.363-2.965,3.135,3.135,0,0,0-1.252-2.351,4.016,4.016,0,0,0-1.66-.628A1.045,1.045,0,0,1,768.139,6099.583Zm-82.546,8.976a5.485,5.485,0,0,1-2.81-.84c-.108-.072-.211-.163-.316-.247a1.853,1.853,0,0,1-.3-.275l-.273-.31c-.08-.111-.152-.231-.225-.35l-.108-.178c-.031-.062-.055-.126-.082-.189l-.151-.385c-.035-.131-.062-.263-.089-.4a2.081,2.081,0,0,1-.059-.394,5.136,5.136,0,0,1,0-.6,5.447,5.447,0,0,1-1.19.764,2.531,2.531,0,0,1-.4.172c-.137.048-.273.1-.411.142a5.232,5.232,0,0,1-.859.16,4.26,4.26,0,0,1-3.218-.917,8.339,8.339,0,0,1-1.829,1.019,6.294,6.294,0,0,1-2.2.473,4.9,4.9,0,0,1-2.308-.519,4.2,4.2,0,0,1-1.812-1.7,4.266,4.266,0,0,1-.271-.571c-.04-.1-.072-.2-.1-.294a.3.3,0,0,1-.02-.075c0-.028.035-.062.058-.094.066-.067.026-.109.02-.158s-.02-.111-.029-.167a8.162,8.162,0,0,1-.537.684,5.9,5.9,0,0,1-1.777,1.389,3.986,3.986,0,0,1-1.15.365,2.829,2.829,0,0,1-1.312-.1,2.67,2.67,0,0,1-1.122-.734,3.265,3.265,0,0,1-.644-1.091,4.32,4.32,0,0,1-.22-1.049,16.647,16.647,0,0,1-1.041,1.435,11.569,11.569,0,0,1-1.01,1.1,7.5,7.5,0,0,1-.6.51,3.667,3.667,0,0,1-.776.453,2.062,2.062,0,0,1-.567.146,1.686,1.686,0,0,1-.693-.074,1.851,1.851,0,0,1-.965-.8,4.022,4.022,0,0,1-.519-1.683,6.612,6.612,0,0,1-.028-1,9.161,9.161,0,0,1-1.581,1.671,4.957,4.957,0,0,1-1.506.853,3.244,3.244,0,0,1-.968.18,2.151,2.151,0,0,1-1.229-.3,2.393,2.393,0,0,1-.824-.875,3.839,3.839,0,0,1-.353-.881,6.777,6.777,0,0,1-.172-.9c-.018.025-.034.051-.052.076a11.77,11.77,0,0,1-.962,1.179,5.7,5.7,0,0,1-1.312,1.065,3.123,3.123,0,0,1-.939.354,2.59,2.59,0,0,1-1.122-.021,2.171,2.171,0,0,1-1.079-.636,2.689,2.689,0,0,1-.545-.925,5.37,5.37,0,0,1-.269-1.66v-.042c-.117.178-.236.355-.357.531a11.87,11.87,0,0,1-1.624,1.906,5.114,5.114,0,0,1-.533.43,2.436,2.436,0,0,1-.756.368,1.3,1.3,0,0,1-.654.006,1.637,1.637,0,0,1-.487-.227,1.947,1.947,0,0,1-.6-.7,4.286,4.286,0,0,1-.4-1.346,10.7,10.7,0,0,1-.109-1.251c-.026-.817,0-1.618.054-2.413.015-.232.035-.463.054-.7l-.454.94c-.691,1.409-1.386,2.817-2.114,4.216-.366.7-.742,1.39-1.141,2.077a15.246,15.246,0,0,1-1.35,2.025c-.071.083-.146.166-.229.249a2.485,2.485,0,0,1-.277.236,1.381,1.381,0,0,1-.833.3,1.028,1.028,0,0,1-.52-.164,1.282,1.282,0,0,1-.334-.311,2.564,2.564,0,0,1-.345-.636,7.235,7.235,0,0,1-.328-1.218c-.077-.4-.134-.8-.183-1.192-.188-1.584-.265-3.153-.345-4.719l-.055-1.175-.015-.608.011-.607a19.972,19.972,0,0,1,.245-2.4,32.8,32.8,0,0,1,1.127-4.633c.065-.2.134-.4.2-.6a29.227,29.227,0,0,1-3.386,2.272,12.062,12.062,0,0,1-4.6,1.649,9.776,9.776,0,0,1-4.894-.606,10.66,10.66,0,0,1-4.009-2.856,13.309,13.309,0,0,1-2.485-4.209,16.566,16.566,0,0,1-.971-4.757,20.211,20.211,0,0,1,.314-4.821,26.749,26.749,0,0,1,1.278-4.629,21.757,21.757,0,0,1,2.182-4.307,16.416,16.416,0,0,1,3.233-3.641,12.411,12.411,0,0,1,4.329-2.343,11.244,11.244,0,0,1,4.939-.316,12.69,12.69,0,0,1,2.393.621c.2.068.383.146.577.223s.394.162.582.26a9.035,9.035,0,0,1,1.1.638,10.539,10.539,0,0,1,1.885,1.667,14.281,14.281,0,0,1,1.512,1.971,24.352,24.352,0,0,1,3.278,9.079c.122.791.226,1.581.3,2.374.055.8.12,1.589.117,2.385a23.947,23.947,0,0,1-.359,4.756l0,.017a.092.092,0,0,1-.182-.019c.011-.779-.006-1.562-.037-2.343s-.1-1.561-.177-2.339a46.447,46.447,0,0,0-.705-4.633,34.171,34.171,0,0,0-1.3-4.485,21.755,21.755,0,0,0-2.066-4.115,12.947,12.947,0,0,0-1.392-1.768,9.611,9.611,0,0,0-1.654-1.439,7.629,7.629,0,0,0-.932-.545c-.159-.085-.326-.148-.49-.22s-.345-.14-.519-.2a11.5,11.5,0,0,0-2.143-.558,9.91,9.91,0,0,0-4.348.277,11.1,11.1,0,0,0-3.86,2.094,15.1,15.1,0,0,0-2.965,3.346,20.4,20.4,0,0,0-2.045,4.04,26.242,26.242,0,0,0-1.221,4.394,18.839,18.839,0,0,0-.314,4.5,15.2,15.2,0,0,0,.875,4.386,11.975,11.975,0,0,0,2.225,3.813,9.392,9.392,0,0,0,3.52,2.536,8.53,8.53,0,0,0,4.276.545,10.814,10.814,0,0,0,4.145-1.475,26.664,26.664,0,0,0,3.778-2.585q.552-.461,1.056-.968c.2-.506.4-1.01.61-1.51.308-.729.631-1.449.976-2.165l.066-.135c.026-.049.032-.071.091-.172a.793.793,0,0,1,.3-.292.66.66,0,0,1,.343-.085.668.668,0,0,1,.343.109.794.794,0,0,1,.279.325,1.09,1.09,0,0,1,.088.254,1.872,1.872,0,0,1,.042.417,3.681,3.681,0,0,1-.317,1.338,8.271,8.271,0,0,1-1.366,2.1c-.162.188-.331.368-.5.547-.325.842-.63,1.692-.9,2.551a31.774,31.774,0,0,0-1.109,4.467,19.042,19.042,0,0,0-.24,2.26l-.012.562.012.562.049,1.17c.074,1.56.145,3.119.32,4.642a10.034,10.034,0,0,0,.437,2.15,1.557,1.557,0,0,0,.189.37.3.3,0,0,0,.055.059.549.549,0,0,0,.165-.091,1.317,1.317,0,0,0,.157-.132c.052-.052.108-.111.162-.176a13.689,13.689,0,0,0,1.21-1.881c.376-.671.739-1.358,1.078-2.057.684-1.4,1.335-2.812,1.978-4.234l.958-2.14.479-1.075.243-.539c.086-.185.162-.355.271-.568.017-.033.029-.057.062-.109a.976.976,0,0,1,.112-.146l.043-.046.054-.049c.1-.129.565-.548,1.3.4a.73.73,0,0,1,.006.323l-.014.069-.063.292c-.038.18-.072.36-.1.545-.062.368-.111.744-.154,1.123-.086.756-.145,1.527-.186,2.294s-.062,1.529-.028,2.27a9.513,9.513,0,0,0,.1,1.075,3.03,3.03,0,0,0,.256.867.6.6,0,0,0,.094.137,1.36,1.36,0,0,0,.2-.12,3.679,3.679,0,0,0,.37-.305,10.508,10.508,0,0,0,1.384-1.667,15.081,15.081,0,0,0,2-3.96l.009-.026a.749.749,0,0,1,.391-.447l.022-.009a.928.928,0,0,1,.253-.075.849.849,0,0,1,.431.06.864.864,0,0,1,.186.111.631.631,0,0,1,.122.117.927.927,0,0,1,.075.1.883.883,0,0,1,.049.089,1.211,1.211,0,0,1,.048.123c.014.042.015.054.023.083a1.066,1.066,0,0,1,.023.123,2.256,2.256,0,0,1,.018.287c0,.154-.006.277-.012.4-.011.247-.032.477-.051.708-.039.459-.071.906-.086,1.346s-.012.87.012,1.276a3.506,3.506,0,0,0,.206,1.06.735.735,0,0,0,.159.257.176.176,0,0,0,.1.045.919.919,0,0,0,.6-.168,3.739,3.739,0,0,0,.816-.7,9.18,9.18,0,0,0,.776-.978c.248-.351.485-.722.719-1.1l.353-.585c.122-.2.237-.4.394-.634.039-.058.083-.123.145-.2.032-.04.066-.083.128-.148l.048-.047c.034-.031.071-.062.108-.089l.059-.043c.035-.022.072-.043.111-.063a1.1,1.1,0,0,1,.3-.106,1.083,1.083,0,0,1,.48.012,1.2,1.2,0,0,1,.251.1,1.342,1.342,0,0,1,.172.114,1.317,1.317,0,0,1,.139.132,1.272,1.272,0,0,1,.139.194.658.658,0,0,1,.034.065c.02.04.038.083.054.122l.026.08c.018.062.023.089.032.131a2.279,2.279,0,0,1,.042.31c.02.311.014.536.014.774,0,.465-.006.9.015,1.325a6.057,6.057,0,0,0,.154,1.161,1.756,1.756,0,0,0,.151.408.456.456,0,0,0,.1.137c.012,0-.009.016.1.012a1.256,1.256,0,0,0,.39-.071,2.965,2.965,0,0,0,.895-.5,8.814,8.814,0,0,0,1.66-1.818,12.278,12.278,0,0,0,.687-1.085,8.115,8.115,0,0,0,.531-1.11l.066-.179c.028-.072.055-.143.1-.243a1.5,1.5,0,0,1,.117-.2,1.124,1.124,0,0,1,.174-.2.994.994,0,0,1,.277-.175.951.951,0,0,1,.628-.042.978.978,0,0,1,.47.291,1.247,1.247,0,0,1,.086.112c.02.031.048.079.057.1a1.027,1.027,0,0,1,.054.125l.029.088a1.436,1.436,0,0,1,.042.209,3.457,3.457,0,0,1,.023.473c0,.134,0,.26-.011.385-.026.5-.075.97-.134,1.447-.029.237-.062.476-.1.716l-.062.366-.065.33a4.641,4.641,0,0,0-.045,1.155,2.47,2.47,0,0,0,.242.958.489.489,0,0,0,.065.092.456.456,0,0,0,.085-.024,1.942,1.942,0,0,0,.42-.239,5.5,5.5,0,0,0,.463-.375,9.723,9.723,0,0,0,.885-.922,16.822,16.822,0,0,0,2.719-4.513l.009-.023c.008-.019.018-.039.028-.056.082-.151.152-.289.269-.479l.058-.088a1.007,1.007,0,0,1,.151-.171.718.718,0,0,1,.177-.122.775.775,0,0,1,.246-.072.75.75,0,0,1,.8.5.87.87,0,0,1,.04.375,2.654,2.654,0,0,1-.054.333c-.077.357-.162.676-.249,1l-.265.967a6.877,6.877,0,0,0-.208.892,3.392,3.392,0,0,0,.112,1.62,1.463,1.463,0,0,0,.881.958,1.39,1.39,0,0,0,.653.045,2.579,2.579,0,0,0,.737-.239A4.451,4.451,0,0,0,665,6102.37a6.145,6.145,0,0,0,.951-1.5,6.291,6.291,0,0,0,.306-.833c.042-.143.074-.283.106-.428.035-.171.075-.343.122-.52a4.448,4.448,0,0,1,.183-.57,1.793,1.793,0,0,1,.085-.18,1.128,1.128,0,0,1,.192-.271.85.85,0,0,1,.385-.237.813.813,0,0,1,.44-.009.837.837,0,0,1,.2.08c.028.016.055.034.082.051s.038.031.058.047a.912.912,0,0,1,.223.294,1.117,1.117,0,0,1,.068.171,1.976,1.976,0,0,1,.075.417c.008.116.009.225.006.333a3.062,3.062,0,0,1-.086.658c-.012.051-.037.132-.048.167l-.028.094c-.018.066-.035.135-.051.2-.031.14-.057.283-.079.428a5.412,5.412,0,0,0-.054.859,4.026,4.026,0,0,0,.1.817c.014.029-.006.069.08.082a.306.306,0,0,1,.086.026c.012.014.011.029.017.044a1.673,1.673,0,0,0,.049.179,2.484,2.484,0,0,0,.129.339,2.409,2.409,0,0,0,.982,1.047,3.972,3.972,0,0,0,3.209.231,7.9,7.9,0,0,0,1.586-.694,1.083,1.083,0,0,1-.043-.125l-.049-.237a3.222,3.222,0,0,1-.048-.459,6.516,6.516,0,0,1,.191-1.69,10.959,10.959,0,0,1,.487-1.569,13.2,13.2,0,0,1,.68-1.484,11.315,11.315,0,0,1,1.923-2.662,5.428,5.428,0,0,1,1.386-1.022,4.388,4.388,0,0,1,1.7-.466,4.551,4.551,0,0,1,1.737.237,5.436,5.436,0,0,1,.8.336c.066.031.126.071.189.1a1.629,1.629,0,0,1,.194.119l.209.152c.066.054.12.117.18.175a2.567,2.567,0,0,1,.3.385,3.511,3.511,0,0,1,.217.413,3.708,3.708,0,0,1,.225.651c.012-.012.023-.024.035-.038l.08-.079c.029-.028.06-.056.1-.092a1.578,1.578,0,0,1,.16-.116,1.517,1.517,0,0,1,.166-.086c.009,0,.04-.016.074-.028s.065-.019.1-.026a.991.991,0,0,1,.1-.017.923.923,0,0,1,.165,0,1.082,1.082,0,0,1,.206.034.859.859,0,0,1,.2.085,1.042,1.042,0,0,1,.2.154.856.856,0,0,1,.131.165.964.964,0,0,1,.146.426,1.174,1.174,0,0,1-.012.319,1.675,1.675,0,0,1-.075.283,3.813,3.813,0,0,1-.345.727c-.149.237-.272.4-.39.563-.474.658-.918,1.3-1.321,1.972a13.289,13.289,0,0,0-1.028,2.042,4.744,4.744,0,0,0-.386,1.987.825.825,0,0,0,.034.214l.042.208c.028.062.054.123.079.188.012.031.022.064.035.1l.055.083c.039.057.069.115.106.172s.094.1.139.152a.725.725,0,0,0,.156.142c.057.043.108.094.169.136a3.745,3.745,0,0,0,1.861.528,6.282,6.282,0,0,0,2.117-.3l.514-.183.5-.225c.343-.168.687-.357,1.024-.551a20.106,20.106,0,0,0,1.954-1.294,15,15,0,0,0,3.263-3.252,6.88,6.88,0,0,0,1.415-4.048v0a.83.83,0,1,1,1.66-.035v0a7.651,7.651,0,0,1-.094,1.381,8.031,8.031,0,0,1-.34,1.324,10.084,10.084,0,0,1-1.226,2.371,16.06,16.06,0,0,1-3.607,3.68,22.041,22.041,0,0,1-2.12,1.421c-.37.216-.741.422-1.13.616l-.62.282-.642.232a8.127,8.127,0,0,1-2.46.405C685.772,6108.564,685.683,6108.563,685.593,6108.559Zm-8.93-6.021a.512.512,0,0,1,.039.681,7.028,7.028,0,0,1-.533.588,2.68,2.68,0,0,0,.785.338,3.373,3.373,0,0,0,1.219.063,4.087,4.087,0,0,0,.607-.126c.1-.034.2-.075.294-.111a1.588,1.588,0,0,0,.285-.132,4.167,4.167,0,0,0,.944-.65c.8-1.379,1.612-2.727,2.485-4.063.328-.5.657-.987,1.012-1.478a4.994,4.994,0,0,0-.111-.673,3.145,3.145,0,0,0-.219-.634,2.316,2.316,0,0,0-.151-.272,1.429,1.429,0,0,0-.18-.216c-.034-.029-.063-.066-.1-.091s-.071-.047-.1-.072a.934.934,0,0,0-.139-.08c-.051-.026-.1-.059-.154-.08a4.363,4.363,0,0,0-.642-.255,3.408,3.408,0,0,0-1.321-.152c-1.778.123-3.073,1.883-3.971,3.605a11.7,11.7,0,0,0-.588,1.355,9.543,9.543,0,0,0-.4,1.4,5.267,5.267,0,0,0-.129,1.343c0,.015,0,.026,0,.04.119-.1.232-.205.339-.311l.011-.012a.512.512,0,0,1,.722,0Zm-20.968,1.52h0Zm12.406-4.975,0-.009A.054.054,0,0,0,668.1,6099.083Zm0-.009h0Zm-14.148-.668v-.007h0S653.957,6098.4,653.958,6098.405Zm6.64-.657h0Zm25.41-.028.009-.008h0Zm-49.137-3.008a.353.353,0,0,0,.034-.04h0S636.891,6094.683,636.871,6094.712ZM758.1,6097.6h0s0,0,0,0A.006.006,0,0,1,758.1,6097.6Z" transform="translate(-607.5 -6060.497)" fill="#fff" stroke="rgba(0,0,0,0)" stroke-width="1"/>
</svg>
