<svg xmlns="http://www.w3.org/2000/svg" width="34.711" height="42.591" viewBox="0 0 34.711 42.591">
  <g id="Group_522" data-name="Group 522" transform="translate(-1110.108 -911.885)">
    <g id="Group_306" data-name="Group 306" transform="translate(1111.134 913)">
      <path id="Path_2587" data-name="Path 2587" d="M95.215,40.325l-.361-.206C87.576,36,82.661,31.085,80.231,25.507c-2.851-6.551-.971-15.157,4.28-19.593A22.174,22.174,0,0,1,89.3,2.879c1.111-.57,2.213-1.1,3.318-1.623C93.379.9,94.133.535,94.89.161L95.218,0l.323.161c.78.386,1.552.754,2.325,1.119,1.093.52,2.18,1.04,3.278,1.6a22.1,22.1,0,0,1,4.827,3.049c5.235,4.427,7.11,13.03,4.262,19.578-2.417,5.562-7.35,10.478-14.655,14.613Z" transform="translate(-78.903)" fill="#fff" stroke="#07f" stroke-width="2" fill-rule="evenodd"/>
    </g>
    <g id="Group_310" data-name="Group 310" transform="translate(1121.712 925.1)">
      <g id="Group_309" data-name="Group 309">
        <g id="Group_307" data-name="Group 307">
          <path id="Path_2588" data-name="Path 2588" d="M5.834,16.48s5.834-7.354,5.834-10.6A5.834,5.834,0,1,0,0,5.881c0,3.246,5.834,10.6,5.834,10.6V8.211A2.593,2.593,0,1,0,3.241,5.618,2.594,2.594,0,0,0,5.834,8.211Z" fill="#07f" fill-rule="evenodd"/>
        </g>
        <g id="Group_308" data-name="Group 308" transform="translate(4.105 3.889)">
          <circle id="Ellipse_24" data-name="Ellipse 24" cx="1.729" cy="1.729" r="1.729" fill="#07f"/>
        </g>
      </g>
    </g>
  </g>
</svg>
