<svg xmlns="http://www.w3.org/2000/svg" width="22.033" height="26.252" viewBox="0 0 22.033 26.252">
  <g id="Group_544" data-name="Group 544" transform="translate(-143.843 -5753.066)">
    <g id="Group_512" data-name="Group 512" transform="translate(144.859 5754.175)" opacity="0.8">
      <g id="Group_306" data-name="Group 306">
        <path id="Path_2587" data-name="Path 2587" d="M88.892,24l-.221-.122c-4.457-2.45-7.467-5.377-8.955-8.7A10.265,10.265,0,0,1,82.337,3.519a13.633,13.633,0,0,1,2.935-1.806c.68-.339,1.355-.653,2.032-.966C87.768.533,88.23.319,88.693.1l.2-.1.2.1c.478.229.951.449,1.424.666.669.309,1.335.619,2.007.952a13.586,13.586,0,0,1,2.956,1.815,10.265,10.265,0,0,1,2.61,11.652c-1.48,3.31-4.5,6.236-8.975,8.7Z" transform="translate(-78.903)" fill="none" stroke="#07f" stroke-width="2" fill-rule="evenodd"/>
      </g>
      <g id="Group_310" data-name="Group 310" transform="translate(5.773 6.072)">
        <g id="Group_309" data-name="Group 309">
          <g id="Group_307" data-name="Group 307">
            <path id="Path_2588" data-name="Path 2588" d="M4.291,12.122s4.291-5.409,4.291-7.8A4.291,4.291,0,1,0,0,4.326c0,2.387,4.291,7.8,4.291,7.8V6.039A1.907,1.907,0,1,0,2.384,4.132,1.908,1.908,0,0,0,4.291,6.039Z" fill="#07f" fill-rule="evenodd"/>
          </g>
          <g id="Group_308" data-name="Group 308" transform="translate(3.02 2.861)">
            <circle id="Ellipse_24" data-name="Ellipse 24" cx="1.271" cy="1.271" r="1.271" fill="#07f"/>
          </g>
        </g>
      </g>
    </g>
  </g>
</svg>
