<svg id="Short_Logo_UASD" data-name="Short Logo UASD" xmlns="http://www.w3.org/2000/svg" width="190.899" height="63.961" viewBox="0 0 190.899 63.961">
  <g id="Group_10" data-name="Group 10">
    <path id="Path_2" data-name="Path 2" d="M361.546,156.32l-.569-.326c-11.459-6.531-19.2-14.33-23.023-23.178-4.488-10.39-1.529-24.043,6.74-31.078a34.839,34.839,0,0,1,7.545-4.813c1.749-.9,3.484-1.739,5.225-2.576,1.192-.569,2.379-1.141,3.571-1.736l.516-.254.509.254c1.228.611,2.444,1.2,3.661,1.774,1.721.825,3.433,1.649,5.161,2.538a34.714,34.714,0,0,1,7.6,4.837c8.242,7.022,11.195,20.668,6.71,31.054-3.806,8.822-11.573,16.62-23.074,23.178Z" transform="translate(-335.862 -92.359)" fill="#17499f"/>
    <g id="Group_9" data-name="Group 9" transform="translate(0.576 0.717)">
      <g id="Group_8" data-name="Group 8">
        <g id="Group_1" data-name="Group 1">
          <path id="Path_3" data-name="Path 3" d="M363.054,157.479l-.557-.317c-11.2-6.386-18.766-14.011-22.5-22.66-4.391-10.157-1.5-23.505,6.585-30.384a34.092,34.092,0,0,1,7.376-4.7c1.71-.883,3.406-1.7,5.109-2.519,1.161-.557,2.325-1.116,3.489-1.695l.505-.25.5.25c1.2.595,2.391,1.166,3.579,1.734,1.683.805,3.355,1.61,5.047,2.48a33.8,33.8,0,0,1,7.426,4.728c8.058,6.865,10.944,20.2,6.56,30.359-3.717,8.626-11.313,16.249-22.557,22.66Zm0-61.418-.056.027c-1.174.582-2.339,1.142-3.5,1.7-1.7.815-3.387,1.631-5.086,2.507a32.994,32.994,0,0,0-7.166,4.56c-7.792,6.628-10.567,19.47-6.337,29.255,3.64,8.448,11.077,15.911,22.086,22.191l.061.036.067-.036c11.051-6.3,18.5-13.77,22.138-22.191,4.224-9.781,1.443-22.616-6.31-29.228a33.059,33.059,0,0,0-7.224-4.587c-1.676-.866-3.351-1.664-5.023-2.468-1.187-.568-2.381-1.144-3.591-1.741Z" transform="translate(-337.947 -94.951)" fill="#fff"/>
        </g>
        <path id="Path_4" data-name="Path 4" d="M426.378,306.2h-.6v.443h.6v.607h.441v-.607h.609V306.2h-.609v-.6h-.441Z" transform="translate(-401.496 -247.364)" fill="#fff"/>
        <path id="Path_5" data-name="Path 5" d="M410.557,297.459a.976.976,0,0,0,.319,1.3,1.264,1.264,0,0,0,1.483-2.036,1,1,0,0,0-1.418.186l.408.3a.533.533,0,0,1,.749-.122c.376.274.277.7.042,1.03s-.626.562-1,.288a.515.515,0,0,1-.169-.642Z" transform="translate(-390.391 -240.786)" fill="#fff"/>
        <path id="Path_6" data-name="Path 6" d="M404.611,292.342c-.27.325-.657.531-1.021.236s-.243-.715.025-1.045c.247-.308.639-.512,1-.219s.247.716,0,1.028m.395.325a1.16,1.16,0,1,0-1.8-1.457,1.162,1.162,0,1,0,1.8,1.457" transform="translate(-384.927 -236.582)" fill="#fff"/>
        <path id="Path_7" data-name="Path 7" d="M397.97,284.943l-.363-.317-1.062,1.213,0,0,.321-1.858-.393-.343-1.584,1.816.371.317,1.057-1.216.005,0L396,286.42l.391.335Z" transform="translate(-379.145 -231.473)" fill="#fff"/>
        <path id="Path_8" data-name="Path 8" d="M388.477,281.086l.391.365,1.54-.877.008.007-.769,1.593.391.364,1.08-2.277-.428-.4Z" transform="translate(-374.508 -228.743)" fill="#fff"/>
        <path id="Path_9" data-name="Path 9" d="M376.8,265.857a.884.884,0,0,0-.035-1.321c-.424-.473-.9-.505-1.23-.213a.764.764,0,0,0-.047.992c.277.545.332.642.192.764s-.327.039-.438-.083c-.168-.183-.247-.381-.039-.589l-.339-.37a.8.8,0,0,0,.063,1.214.777.777,0,0,0,1.123.17c.341-.3.2-.654.041-.977s-.365-.612-.175-.788.409.008.534.143a.452.452,0,0,1,.015.687Z" transform="translate(-364.477 -217.364)" fill="#fff"/>
        <path id="Path_10" data-name="Path 10" d="M363.83,251.92l-.215-.3c-.3-.42-.137-.736.264-1.01.435-.312.754-.18.921.062l.268.379Zm1.9-.7-.588-.832a1.21,1.21,0,0,0-1.969,1.379l.579.833Z" transform="translate(-356.049 -207.08)" fill="#fff"/>
        <path id="Path_11" data-name="Path 11" d="M359.172,243.552c-.364.212-.8.263-1.036-.139s.031-.761.393-.966.79-.254,1.019.152-.03.755-.376.953m.257.45a1.162,1.162,0,1,0-1.677-.369,1.153,1.153,0,0,0,1.677.369" transform="translate(-352.158 -201.2)" fill="#fff"/>
        <path id="Path_12" data-name="Path 12" d="M354.853,233.408l-.2-.44-1.534.712v0l1.283-1.236-.165-.363-1.793.2-.006,0,1.547-.722-.206-.438-2.181,1.017.317.661,1.712-.225h.005l-1.265,1.2.31.659Z" transform="translate(-347.822 -193.468)" fill="#fff"/>
        <rect id="Rectangle_4" data-name="Rectangle 4" width="2.406" height="0.521" transform="translate(3.394 37.536) rotate(-19.977)" fill="#fff"/>
        <path id="Path_13" data-name="Path 13" d="M350.457,220.834l-.134-.466-1.548.444v0l1.273-1.387-.141-.5-2.314.663.136.467,1.554-.444v.005l-1.28,1.391.14.494Z" transform="translate(-344.927 -184.65)" fill="#fff"/>
        <path id="Path_14" data-name="Path 14" d="M349.179,215.985l-.109-.5-2.353.5.1.5Z" transform="translate(-344.293 -182.16)" fill="#fff"/>
        <path id="Path_15" data-name="Path 15" d="M346.122,207.026a.958.958,0,0,0-.694,1.138,1.265,1.265,0,0,0,2.49-.394,1.014,1.014,0,0,0-1.14-.872l.083.5a.534.534,0,0,1,.614.443c.074.46-.3.7-.7.76s-.836-.044-.92-.5a.525.525,0,0,1,.339-.579Z" transform="translate(-343.348 -175.948)" fill="#fff"/>
        <path id="Path_16" data-name="Path 16" d="M344.953,203.4l.031.515,2.4-.167-.043-.52Z" transform="translate(-343.016 -173.292)" fill="#fff"/>
        <path id="Path_17" data-name="Path 17" d="M347.424,192.92l-.018.351.667.037-.031.654.354.021.036-.657.672.033.014-.352-.67-.037.041-.654-.361-.02-.035.66Z" transform="translate(-344.791 -165.386)" fill="#fff"/>
        <path id="Path_18" data-name="Path 18" d="M345.636,185.128l2.373.377.083-.513-2.375-.377Z" transform="translate(-343.511 -159.827)" fill="#fff"/>
        <path id="Path_19" data-name="Path 19" d="M348.544,177.833l.111-.47L347.08,177l0-.009,1.79-.592.113-.507-2.342-.54-.11.472,1.575.364-.009.005-1.787.6-.116.5Z" transform="translate(-343.918 -153.126)" fill="#fff"/>
        <path id="Path_20" data-name="Path 20" d="M350.363,169.779a.879.879,0,0,0,1.124-.689c.2-.607-.01-1.034-.432-1.169-.517-.171-.785.3-.887.45-.33.511-.38.611-.561.553s-.2-.265-.147-.42c.072-.235.208-.406.489-.33l.158-.48c-.53-.173-.877.187-1.031.658a.788.788,0,0,0,.42,1.066c.428.138.672-.152.867-.458s.347-.621.591-.544.206.357.148.527c-.086.265-.281.459-.584.358Z" transform="translate(-345.957 -147.552)" fill="#fff"/>
        <path id="Path_21" data-name="Path 21" d="M351.832,158.648l-.22.491,1.333,1.172-.007.009-1.759-.21-.214.488,2.51.28.234-.537Z" transform="translate(-347.366 -141.039)" fill="#fff"/>
        <path id="Path_22" data-name="Path 22" d="M356.657,157.063l.756-1.487-.4-.2L356.5,156.4l-1.75-.891-.233.463Z" transform="translate(-349.934 -138.669)" fill="#fff"/>
        <path id="Path_23" data-name="Path 23" d="M361.617,145.26l.34-.437-.278-.515.452-.579.425.326,1-1.28-.352-.271-.687.882-.471-.364.636-.812-.325-.253-.637.813-.4-.318.677-.864-.353-.274-1.228,1.579Zm-.672-2.326.07-.09.81.638-.351.447Z" transform="translate(-354.203 -128.496)" fill="#fff"/>
        <path id="Path_24" data-name="Path 24" d="M373.352,137.194l-.265.236.449.5-.487.439.237.264.491-.436.454.5.255-.234-.447-.5.488-.437-.239-.271-.49.441Z" transform="translate(-363.345 -125.516)" fill="#fff"/>
        <path id="Path_25" data-name="Path 25" d="M379.549,128.535l.422-.3-.6-.847.782-.549.6.85.426-.3-1.381-1.971-.425.3.529.754-.78.547-.529-.755-.419.3Z" transform="translate(-367.054 -116.999)" fill="#fff"/>
        <path id="Path_26" data-name="Path 26" d="M387.128,125.636l.44-.277-1.278-2.04-.435.276Z" transform="translate(-372.61 -115.476)" fill="#fff"/>
        <path id="Path_27" data-name="Path 27" d="M390.512,122.281a.887.887,0,0,0,1.292.265c.56-.317.7-.768.486-1.156a.769.769,0,0,0-.955-.276c-.591.154-.7.187-.788.028-.1-.183.031-.333.176-.414.216-.122.429-.152.581.092l.445-.242a.813.813,0,0,0-1.2-.223.788.788,0,0,0-.419,1.066c.219.4.595.343.943.254s.683-.214.809.012-.1.4-.262.482a.442.442,0,0,1-.668-.135Z" transform="translate(-375.638 -113.213)" fill="#fff"/>
        <path id="Path_28" data-name="Path 28" d="M397.078,116.879l.359-.185c.213-.107.432-.157.565.118s-.026.416-.24.523l-.36.186Zm.439,2.01.46-.235-.39-.768.49-.244a.74.74,0,0,0,.371-1.06.733.733,0,0,0-1.072-.318l-.952.482Z" transform="translate(-380.258 -110.289)" fill="#fff"/>
        <path id="Path_29" data-name="Path 29" d="M404.775,114.446l.449-.2-.66-1.471.007,0,1.548,1.074.473-.211-.974-2.2-.448.195.654,1.475,0,.005-1.55-1.077-.476.211Z" transform="translate(-385.592 -106.882)" fill="#fff"/>
        <path id="Path_30" data-name="Path 30" d="M384.522,278.1l.21.214.637-.214h0l-.213.632.211.214.3-.91-.229-.234Z" transform="translate(-371.646 -227.255)" fill="#fff"/>
        <path id="Path_31" data-name="Path 31" d="M382.826,274.715c.156-.145.026-.407-.179-.613-.258-.255-.476-.3-.584-.192-.137.138.042.373.094.454.195.273.235.326.19.369s-.143-.005-.209-.07c-.1-.1-.156-.194-.093-.276l-.195-.2c-.141.138-.021.375.179.568.165.172.408.289.524.168s.017-.292-.1-.453-.242-.313-.171-.376.181.032.255.106c.112.109.168.238.09.318Z" transform="translate(-369.668 -224.394)" fill="#fff"/>
        <path id="Path_32" data-name="Path 32" d="M386.655,272.65l.326.322-.222.218.178.177.214-.219.327.328.12-.119-.328-.323.216-.219-.175-.174-.218.219-.323-.326Z" transform="translate(-373.189 -223.44)" fill="#fff"/>
        <path id="Path_33" data-name="Path 33" d="M371.019,263.025l-.185-.225-.544.439-.248-.306-.124.1.682.844.123-.1-.251-.31Z" transform="translate(-361.08 -216.398)" fill="#fff"/>
        <path id="Path_34" data-name="Path 34" d="M368.583,260.58l.183.227.668-.542-.181-.226Z" transform="translate(-360.114 -214.4)" fill="#fff"/>
        <path id="Path_35" data-name="Path 35" d="M373.982,258.37l.288.355-.242.194.159.192.233-.192.294.355.134-.1-.3-.356.239-.193-.155-.192-.238.192-.292-.355Z" transform="translate(-364.02 -213.117)" fill="#fff"/>
        <path id="Path_36" data-name="Path 36" d="M413.316,111.868l.718-.347-.09-.192-.494.244-.4-.832-.224.112Z" transform="translate(-392.122 -106.376)" fill="#fff"/>
        <path id="Path_37" data-name="Path 37" d="M417.219,109.158l.236-.116-.007-.276.317-.156.112.225.694-.341-.09-.187-.484.233-.117-.245.443-.216-.094-.174-.434.216-.1-.218.466-.23-.088-.189-.864.42Zm.208-1.128.044-.02.208.435-.241.116Z" transform="translate(-395.295 -104.02)" fill="#fff"/>
        <path id="Path_38" data-name="Path 38" d="M426.69,105.9h-.374v.688h-.7v.373h.7v.688h.374v-.688h.7v-.373h-.7Z" transform="translate(-401.383 -102.875)" fill="#fff"/>
        <path id="Path_39" data-name="Path 39" d="M435.575,108.673l0,.007-.063.931-.577-.247Zm-1.8,1.209.5.21.385-.418.841.354-.044.563.512.219.1-2.571-.507-.214Z" transform="translate(-407.281 -104.411)" fill="#fff"/>
        <path id="Path_40" data-name="Path 40" d="M446.053,113.02a.982.982,0,0,0-.588-1.227,1.165,1.165,0,0,0-1.612.645,1.15,1.15,0,0,0,.552,1.634,1.016,1.016,0,0,0,1.382-.436l-.466-.221a.546.546,0,0,1-.728.255.687.687,0,0,1-.256-1.007c.175-.382.507-.67.944-.469a.519.519,0,0,1,.3.6Z" transform="translate(-414.471 -107.046)" fill="#fff"/>
        <path id="Path_41" data-name="Path 41" d="M451.979,116.576l0,0-.144.926-.556-.3Zm-1.9,1.045.476.251.42-.38.8.427-.085.558.482.26.327-2.548-.48-.259Z" transform="translate(-419.08 -110.131)" fill="#fff"/>
        <path id="Path_42" data-name="Path 42" d="M460.475,120.178l.323.2c.449.276.432.633.179,1.047-.288.449-.637.454-.9.29l-.409-.254Zm-1.491,1.381.89.558a1.072,1.072,0,0,0,1.576-.446,1.061,1.061,0,0,0-.3-1.6l-.889-.553Z" transform="translate(-425.523 -112.728)" fill="#fff"/>
        <path id="Path_43" data-name="Path 43" d="M467,126.6l1.513,1.055.259-.359-1.07-.754.334-.483.962.673.24-.334-.971-.675.3-.425,1.054.74.247-.368-1.487-1.042Z" transform="translate(-431.325 -116.425)" fill="#fff"/>
        <path id="Path_44" data-name="Path 44" d="M474.021,131.755l.381.319,1.077-1.291.013.005-.631,1.673.319.268,1.555-.922v0l-1.091,1.307.374.32,1.55-1.843-.576-.483-1.472.922v0l.621-1.636-.58-.482Z" transform="translate(-436.403 -120.247)" fill="#fff"/>
        <path id="Path_45" data-name="Path 45" d="M482.744,139.585l.381.368,1.675-1.731-.389-.369Z" transform="translate(-442.714 -125.993)" fill="#fff"/>
        <path id="Path_46" data-name="Path 46" d="M486.971,143.768l0,.008-.465.807-.415-.475Zm-2.149.293.355.411.527-.213.6.688-.286.49.363.419,1.221-2.263-.363-.414Z" transform="translate(-444.218 -129.845)" fill="#fff"/>
        <path id="Path_47" data-name="Path 47" d="M496.643,155.329l-.167-.325-.6.3-.3-.6-.327.16.308.6-.6.3.168.322.595-.3.3.6.326-.163-.306-.6Z" transform="translate(-451.554 -138.184)" fill="#fff"/>
        <path id="Path_48" data-name="Path 48" d="M463.029,277.639l-.4.358,1.607,1.788.4-.356Z" transform="translate(-428.163 -227.134)" fill="#fff"/>
        <path id="Path_49" data-name="Path 49" d="M454.906,281.389l-.384.322L455.606,283l-.008,0-1.535-.908-.317.261.637,1.691-.006,0-1.1-1.3-.382.322,1.545,1.841.573-.485-.645-1.611.005-.008,1.5.9.575-.483Z" transform="translate(-421.12 -229.848)" fill="#fff"/>
        <path id="Path_50" data-name="Path 50" d="M449.2,291.681l-.321.258c-.2.152-.405.247-.593,0s-.049-.42.146-.575l.327-.254Zm-.8-1.9-.42.328.532.681-.446.344a.775.775,0,1,0,.955,1.216l.859-.673Z" transform="translate(-417.361 -235.921)" fill="#fff"/>
        <path id="Path_51" data-name="Path 51" d="M440.675,298.8l-.917.721.123.159.634-.493.551.7.287-.223Z" transform="translate(-411.613 -242.442)" fill="#fff"/>
        <path id="Path_52" data-name="Path 52" d="M427.727,117.873a.289.289,0,1,1,.351.218.3.3,0,0,1-.351-.218" transform="translate(-402.903 -111.283)" fill="#fff"/>
        <path id="Path_53" data-name="Path 53" d="M432.233,119.544a.283.283,0,0,1,.219-.333.28.28,0,0,1,.333.223.282.282,0,1,1-.552.11" transform="translate(-406.163 -112.5)" fill="#fff"/>
        <path id="Path_54" data-name="Path 54" d="M436.692,121.3a.282.282,0,0,1,.229-.327.273.273,0,0,1,.317.235.277.277,0,0,1-.224.326.283.283,0,0,1-.321-.234" transform="translate(-409.391 -113.777)" fill="#fff"/>
        <path id="Path_55" data-name="Path 55" d="M441.1,123.138a.281.281,0,0,1,.237-.312.286.286,0,0,1,.318.244.28.28,0,1,1-.555.068" transform="translate(-412.583 -115.118)" fill="#fff"/>
        <path id="Path_56" data-name="Path 56" d="M445.482,125.087a.277.277,0,0,1,.247-.3.283.283,0,0,1,.3.255.28.28,0,0,1-.26.3.277.277,0,0,1-.29-.258" transform="translate(-415.753 -116.539)" fill="#fff"/>
        <path id="Path_57" data-name="Path 57" d="M449.787,127.146a.276.276,0,1,1,.28.271.278.278,0,0,1-.28-.271" transform="translate(-418.868 -118.041)" fill="#fff"/>
        <path id="Path_58" data-name="Path 58" d="M454.041,129.334a.278.278,0,0,1,.28-.272.271.271,0,0,1,.268.277.274.274,0,0,1-.548,0" transform="translate(-421.946 -119.632)" fill="#fff"/>
        <path id="Path_59" data-name="Path 59" d="M458.244,131.639a.275.275,0,0,1,.288-.259.278.278,0,0,1,.249.3.271.271,0,0,1-.293.25.262.262,0,0,1-.245-.288" transform="translate(-424.987 -121.308)" fill="#fff"/>
        <path id="Path_60" data-name="Path 60" d="M462.325,134.119a.267.267,0,0,1,.3-.238.272.272,0,1,1-.3.238" transform="translate(-427.939 -123.117)" fill="#fff"/>
        <path id="Path_61" data-name="Path 61" d="M466.318,136.744a.274.274,0,0,1,.317-.216.271.271,0,0,1-.1.532.276.276,0,0,1-.217-.317" transform="translate(-430.827 -125.031)" fill="#fff"/>
        <path id="Path_62" data-name="Path 62" d="M470.2,139.557a.258.258,0,0,1,.315-.194.265.265,0,0,1,.2.322.265.265,0,1,1-.513-.128" transform="translate(-433.633 -127.078)" fill="#fff"/>
        <path id="Path_63" data-name="Path 63" d="M473.92,142.555a.262.262,0,1,1,.5.171.272.272,0,0,1-.336.168.26.26,0,0,1-.159-.339" transform="translate(-436.319 -129.265)" fill="#fff"/>
        <path id="Path_64" data-name="Path 64" d="M477.465,145.754a.262.262,0,1,1,.482.2.269.269,0,0,1-.349.143.26.26,0,0,1-.134-.347" transform="translate(-438.877 -131.591)" fill="#fff"/>
        <path id="Path_65" data-name="Path 65" d="M480.8,149.168a.263.263,0,1,1,.114.353.259.259,0,0,1-.114-.353" transform="translate(-441.287 -134.073)" fill="#fff"/>
        <path id="Path_66" data-name="Path 66" d="M483.917,152.8a.268.268,0,0,1,.362-.084.263.263,0,0,1,.081.362.268.268,0,0,1-.361.087.262.262,0,0,1-.082-.364" transform="translate(-443.533 -136.716)" fill="#fff"/>
        <path id="Path_67" data-name="Path 67" d="M486.756,156.65a.258.258,0,1,1,.408.317.258.258,0,1,1-.408-.317" transform="translate(-445.577 -139.519)" fill="#fff"/>
        <path id="Path_68" data-name="Path 68" d="M489.272,160.7a.252.252,0,0,1,.361-.006.256.256,0,0,1,.011.364.259.259,0,0,1-.372.008.255.255,0,0,1,0-.367" transform="translate(-447.382 -142.468)" fill="#fff"/>
        <path id="Path_69" data-name="Path 69" d="M491.454,164.949a.256.256,0,0,1,.363.036.25.25,0,0,1-.039.362.256.256,0,1,1-.324-.4" transform="translate(-448.946 -145.554)" fill="#fff"/>
        <path id="Path_70" data-name="Path 70" d="M493.312,169.357a.255.255,0,0,1,.359.059.25.25,0,0,1-.065.357.259.259,0,0,1-.358-.056.256.256,0,0,1,.064-.359" transform="translate(-450.28 -148.752)" fill="#fff"/>
        <path id="Path_71" data-name="Path 71" d="M494.925,173.856a.264.264,0,0,1,.357.084.259.259,0,1,1-.443.268.253.253,0,0,1,.086-.352" transform="translate(-451.437 -152.016)" fill="#fff"/>
        <path id="Path_72" data-name="Path 72" d="M496.284,178.438a.259.259,0,0,1,.344.113.254.254,0,0,1-.124.344.249.249,0,0,1-.337-.111.256.256,0,0,1,.116-.346" transform="translate(-452.407 -155.34)" fill="#fff"/>
        <path id="Path_73" data-name="Path 73" d="M497.362,183.1a.256.256,0,0,1,.335.136.262.262,0,0,1-.144.335.254.254,0,0,1-.332-.137.247.247,0,0,1,.14-.333" transform="translate(-453.173 -158.715)" fill="#fff"/>
        <path id="Path_74" data-name="Path 74" d="M498.158,187.805a.255.255,0,1,1,.152.487.255.255,0,0,1-.32-.168.25.25,0,0,1,.168-.318" transform="translate(-453.736 -162.127)" fill="#fff"/>
        <path id="Path_75" data-name="Path 75" d="M498.668,192.563a.253.253,0,1,1,.111.493.246.246,0,0,1-.3-.192.243.243,0,0,1,.189-.3" transform="translate(-454.093 -165.573)" fill="#fff"/>
        <path id="Path_76" data-name="Path 76" d="M498.884,197.336a.254.254,0,1,1-.218.285.247.247,0,0,1,.218-.285" transform="translate(-454.233 -169.03)" fill="#fff"/>
        <path id="Path_77" data-name="Path 77" d="M498.788,202.118a.253.253,0,0,1,.271.237.243.243,0,0,1-.243.26.25.25,0,0,1-.27-.231.256.256,0,0,1,.242-.266" transform="translate(-454.147 -172.491)" fill="#fff"/>
        <path id="Path_78" data-name="Path 78" d="M498.418,206.875a.257.257,0,0,1,.261.254.265.265,0,0,1-.263.254.254.254,0,1,1,0-.508" transform="translate(-453.87 -175.933)" fill="#fff"/>
        <path id="Path_79" data-name="Path 79" d="M497.768,211.6a.255.255,0,1,1-.054.507.255.255,0,0,1,.054-.507" transform="translate(-453.382 -179.352)" fill="#fff"/>
        <path id="Path_80" data-name="Path 80" d="M496.821,216.29a.26.26,0,0,1,.213.3.256.256,0,1,1-.213-.3" transform="translate(-452.685 -182.742)" fill="#fff"/>
        <path id="Path_81" data-name="Path 81" d="M495.613,220.924a.253.253,0,1,1-.117.493.259.259,0,0,1-.192-.31.253.253,0,0,1,.309-.183" transform="translate(-451.797 -186.092)" fill="#fff"/>
        <path id="Path_82" data-name="Path 82" d="M494.164,225.472a.254.254,0,1,1-.16.482.254.254,0,1,1,.16-.482" transform="translate(-450.734 -189.381)" fill="#fff"/>
        <path id="Path_83" data-name="Path 83" d="M492.463,229.939a.256.256,0,1,1-.193.473.255.255,0,1,1,.193-.473" transform="translate(-449.492 -192.608)" fill="#fff"/>
        <path id="Path_84" data-name="Path 84" d="M490.543,234.317a.253.253,0,1,1-.228.452.259.259,0,0,1-.117-.348.251.251,0,0,1,.345-.1" transform="translate(-448.088 -195.766)" fill="#fff"/>
        <path id="Path_85" data-name="Path 85" d="M488.4,238.581a.25.25,0,0,1,.083.356.254.254,0,0,1-.349.084.259.259,0,0,1-.09-.357.253.253,0,0,1,.356-.083" transform="translate(-446.523 -198.844)" fill="#fff"/>
        <path id="Path_86" data-name="Path 86" d="M486.055,242.753a.273.273,0,0,1,.076.36.263.263,0,0,1-.434-.3.261.261,0,0,1,.358-.064" transform="translate(-444.819 -201.86)" fill="#fff"/>
        <path id="Path_87" data-name="Path 87" d="M483.523,246.8a.258.258,0,0,1,.041.368.252.252,0,0,1-.359.035.261.261,0,0,1-.045-.366.258.258,0,0,1,.364-.037" transform="translate(-442.975 -204.779)" fill="#fff"/>
        <path id="Path_88" data-name="Path 88" d="M480.8,250.741a.259.259,0,1,1-.344.386.26.26,0,0,1-.025-.368.264.264,0,0,1,.369-.018" transform="translate(-440.994 -207.624)" fill="#fff"/>
        <path id="Path_89" data-name="Path 89" d="M477.923,254.55a.257.257,0,1,1-.365.362.257.257,0,0,1,0-.368.253.253,0,0,1,.365.006" transform="translate(-438.907 -210.37)" fill="#fff"/>
        <path id="Path_90" data-name="Path 90" d="M474.888,258.241a.269.269,0,0,1-.018.374.265.265,0,0,1-.35-.4.258.258,0,0,1,.368.024" transform="translate(-436.702 -213.034)" fill="#fff"/>
        <path id="Path_91" data-name="Path 91" d="M471.711,261.818a.262.262,0,1,1-.409.326.262.262,0,1,1,.409-.326" transform="translate(-434.393 -215.613)" fill="#fff"/>
        <path id="Path_92" data-name="Path 92" d="M468.453,265.327a.263.263,0,0,1-.045.369.274.274,0,0,1-.377-.054.264.264,0,1,1,.422-.316" transform="translate(-432.029 -218.146)" fill="#fff"/>
        <path id="Path_93" data-name="Path 93" d="M465.134,268.762a.264.264,0,1,1-.371-.076.269.269,0,0,1,.371.076" transform="translate(-429.621 -220.625)" fill="#fff"/>
        <path id="Path_94" data-name="Path 94" d="M461.745,272.137a.268.268,0,0,1-.085.37.271.271,0,0,1-.284-.461.266.266,0,0,1,.369.091" transform="translate(-427.163 -223.059)" fill="#fff"/>
        <path id="Path_95" data-name="Path 95" d="M458.285,275.436a.268.268,0,0,1-.1.368.283.283,0,0,1-.374-.1.286.286,0,0,1,.1-.375.277.277,0,0,1,.368.109" transform="translate(-424.653 -225.439)" fill="#fff"/>
        <path id="Path_96" data-name="Path 96" d="M454.75,278.667a.266.266,0,0,1-.1.369.283.283,0,0,1-.374-.117.277.277,0,0,1,.114-.372.27.27,0,0,1,.362.121" transform="translate(-422.092 -227.77)" fill="#fff"/>
        <path id="Path_97" data-name="Path 97" d="M451.173,281.829a.273.273,0,0,1-.491.238.273.273,0,1,1,.491-.238" transform="translate(-419.496 -230.051)" fill="#fff"/>
        <path id="Path_98" data-name="Path 98" d="M447.532,284.918a.271.271,0,1,1-.5.219.278.278,0,0,1,.132-.365.273.273,0,0,1,.364.147" transform="translate(-416.86 -232.277)" fill="#fff"/>
        <path id="Path_99" data-name="Path 99" d="M443.8,287.94a.274.274,0,0,1-.145.362.281.281,0,0,1-.366-.158.276.276,0,0,1,.159-.361.272.272,0,0,1,.352.157" transform="translate(-414.155 -234.46)" fill="#fff"/>
        <path id="Path_100" data-name="Path 100" d="M440.049,290.883a.277.277,0,1,1-.524.179.288.288,0,0,1,.176-.357.274.274,0,0,1,.348.178" transform="translate(-411.434 -236.577)" fill="#fff"/>
        <path id="Path_101" data-name="Path 101" d="M436.2,293.733a.277.277,0,1,1-.53.16.277.277,0,1,1,.53-.16" transform="translate(-408.645 -238.633)" fill="#fff"/>
        <path id="Path_102" data-name="Path 102" d="M432.294,296.5a.279.279,0,1,1-.34-.212.275.275,0,0,1,.34.212" transform="translate(-405.812 -240.62)" fill="#fff"/>
        <path id="Path_103" data-name="Path 103" d="M427.734,299.252a.291.291,0,0,1,.235-.339.288.288,0,0,1,.106.567.292.292,0,0,1-.34-.227" transform="translate(-402.91 -242.523)" fill="#fff"/>
        <path id="Path_104" data-name="Path 104" d="M423.761,119.266a.282.282,0,0,1,.058.4.285.285,0,0,1-.452-.346.284.284,0,0,1,.394-.054" transform="translate(-399.71 -112.503)" fill="#fff"/>
        <path id="Path_105" data-name="Path 105" d="M419.311,121.032a.267.267,0,0,1,.059.389.273.273,0,0,1-.39.058.279.279,0,0,1-.06-.4.274.274,0,0,1,.391-.051" transform="translate(-396.494 -113.778)" fill="#fff"/>
        <path id="Path_106" data-name="Path 106" d="M414.908,122.884a.278.278,0,0,1-.332.447.278.278,0,1,1,.332-.447" transform="translate(-393.309 -115.121)" fill="#fff"/>
        <path id="Path_107" data-name="Path 107" d="M410.55,124.838a.272.272,0,0,1,.063.386.284.284,0,0,1-.391.061.287.287,0,0,1-.064-.386.279.279,0,0,1,.391-.061" transform="translate(-390.16 -116.537)" fill="#fff"/>
        <path id="Path_108" data-name="Path 108" d="M406.234,126.911a.265.265,0,0,1,.071.381.278.278,0,0,1-.382.066.273.273,0,0,1-.07-.38.265.265,0,0,1,.38-.067" transform="translate(-387.045 -118.037)" fill="#fff"/>
        <path id="Path_109" data-name="Path 109" d="M401.983,129.1a.273.273,0,0,1,.069.38.275.275,0,0,1-.452-.313.274.274,0,0,1,.383-.066" transform="translate(-383.966 -119.626)" fill="#fff"/>
        <path id="Path_110" data-name="Path 110" d="M397.809,131.436a.271.271,0,1,1-.3.448.271.271,0,1,1,.3-.448" transform="translate(-380.952 -121.314)" fill="#fff"/>
        <path id="Path_111" data-name="Path 111" d="M393.72,133.925a.269.269,0,1,1-.376.081.274.274,0,0,1,.376-.081" transform="translate(-377.999 -123.12)" fill="#fff"/>
        <path id="Path_112" data-name="Path 112" d="M389.734,136.567a.266.266,0,0,1,.09.369.262.262,0,0,1-.361.088.266.266,0,1,1,.271-.457" transform="translate(-375.124 -125.034)" fill="#fff"/>
        <path id="Path_113" data-name="Path 113" d="M385.88,139.391a.268.268,0,0,1,.1.364.267.267,0,1,1-.461-.267.272.272,0,0,1,.365-.1" transform="translate(-372.337 -127.081)" fill="#fff"/>
        <path id="Path_114" data-name="Path 114" d="M382.15,142.4a.263.263,0,1,1-.235.471.262.262,0,0,1-.118-.358.259.259,0,0,1,.353-.113" transform="translate(-369.652 -129.263)" fill="#fff"/>
        <path id="Path_115" data-name="Path 115" d="M378.6,145.616a.27.27,0,0,1,.132.352.267.267,0,0,1-.484-.223.266.266,0,0,1,.352-.129" transform="translate(-367.088 -131.592)" fill="#fff"/>
        <path id="Path_116" data-name="Path 116" d="M375.27,149.043a.271.271,0,0,1,.139.345.262.262,0,0,1-.344.137.262.262,0,1,1,.206-.482" transform="translate(-364.685 -134.073)" fill="#fff"/>
        <path id="Path_117" data-name="Path 117" d="M372.165,152.693a.269.269,0,0,1,.16.335.261.261,0,0,1-.331.155.26.26,0,1,1,.171-.49" transform="translate(-362.45 -136.717)" fill="#fff"/>
        <path id="Path_118" data-name="Path 118" d="M369.338,156.554a.259.259,0,0,1-.146.5.259.259,0,0,1-.178-.324.252.252,0,0,1,.323-.174" transform="translate(-360.418 -139.515)" fill="#fff"/>
        <path id="Path_119" data-name="Path 119" d="M366.818,160.631a.257.257,0,1,1-.1.5.256.256,0,0,1-.2-.306.249.249,0,0,1,.3-.2" transform="translate(-358.613 -142.468)" fill="#fff"/>
        <path id="Path_120" data-name="Path 120" d="M364.642,164.891a.263.263,0,0,1,.224.294.259.259,0,0,1-.3.213.267.267,0,0,1-.22-.294.255.255,0,0,1,.294-.214" transform="translate(-357.048 -145.553)" fill="#fff"/>
        <path id="Path_121" data-name="Path 121" d="M362.792,169.3a.262.262,0,0,1,.231.289.254.254,0,0,1-.283.224.261.261,0,0,1-.232-.285.264.264,0,0,1,.284-.228" transform="translate(-355.717 -148.744)" fill="#fff"/>
        <path id="Path_122" data-name="Path 122" d="M361.187,173.817a.256.256,0,0,1-.038.51.262.262,0,0,1-.247-.279.267.267,0,0,1,.285-.231" transform="translate(-354.556 -152.014)" fill="#fff"/>
        <path id="Path_123" data-name="Path 123" d="M359.838,178.4a.263.263,0,0,1,.254.266.261.261,0,0,1-.521-.017.266.266,0,0,1,.267-.249" transform="translate(-353.593 -155.332)" fill="#fff"/>
        <path id="Path_124" data-name="Path 124" d="M358.79,183.076a.258.258,0,0,1,.258.251.253.253,0,0,1-.258.256.254.254,0,0,1,0-.507" transform="translate(-352.845 -158.714)" fill="#fff"/>
        <path id="Path_125" data-name="Path 125" d="M358,187.8a.253.253,0,0,1,.272.236.259.259,0,0,1-.25.267.252.252,0,0,1-.022-.5" transform="translate(-352.281 -162.132)" fill="#fff"/>
        <path id="Path_126" data-name="Path 126" d="M357.491,192.548a.255.255,0,1,1,.048.507.263.263,0,0,1-.282-.233.256.256,0,0,1,.233-.274" transform="translate(-351.919 -165.566)" fill="#fff"/>
        <path id="Path_127" data-name="Path 127" d="M357.3,197.335a.25.25,0,0,1,.293.213.26.26,0,0,1-.218.288.256.256,0,0,1-.289-.219.246.246,0,0,1,.214-.282" transform="translate(-351.794 -169.029)" fill="#fff"/>
        <path id="Path_128" data-name="Path 128" d="M357.392,202.111a.257.257,0,0,1,.3.2.25.25,0,0,1-.21.293.256.256,0,0,1-.3-.207.251.251,0,0,1,.21-.29" transform="translate(-351.862 -172.484)" fill="#fff"/>
        <path id="Path_129" data-name="Path 129" d="M357.774,206.874a.256.256,0,0,1,.3.2.251.251,0,0,1-.2.3.253.253,0,1,1-.1-.5" transform="translate(-352.14 -175.929)" fill="#fff"/>
        <path id="Path_130" data-name="Path 130" d="M358.441,211.612a.256.256,0,0,1,.309.184.247.247,0,0,1-.184.305.254.254,0,0,1-.312-.183.249.249,0,0,1,.187-.306" transform="translate(-352.634 -179.355)" fill="#fff"/>
        <path id="Path_131" data-name="Path 131" d="M359.388,216.3a.253.253,0,1,1-.176.316.251.251,0,0,1,.176-.316" transform="translate(-353.325 -182.742)" fill="#fff"/>
        <path id="Path_132" data-name="Path 132" d="M360.593,220.921a.259.259,0,0,1,.327.161.253.253,0,0,1-.17.322.254.254,0,1,1-.156-.482" transform="translate(-354.204 -186.087)" fill="#fff"/>
        <path id="Path_133" data-name="Path 133" d="M362.066,225.468a.254.254,0,1,1,.174.478.254.254,0,1,1-.174-.478" transform="translate(-355.277 -189.374)" fill="#fff"/>
        <path id="Path_134" data-name="Path 134" d="M363.77,229.928a.255.255,0,1,1-.145.33.249.249,0,0,1,.145-.33" transform="translate(-356.512 -192.599)" fill="#fff"/>
        <path id="Path_135" data-name="Path 135" d="M365.688,234.3a.262.262,0,0,1,.342.128.254.254,0,0,1-.126.339.271.271,0,0,1-.351-.122.266.266,0,0,1,.134-.344" transform="translate(-357.907 -195.763)" fill="#fff"/>
        <path id="Path_136" data-name="Path 136" d="M367.851,238.575a.259.259,0,0,1,.349.111.263.263,0,0,1-.117.346.258.258,0,0,1-.348-.117.255.255,0,0,1,.117-.339" transform="translate(-359.481 -198.848)" fill="#fff"/>
        <path id="Path_137" data-name="Path 137" d="M370.195,242.727a.265.265,0,0,1,.355.11.264.264,0,0,1-.471.24.267.267,0,0,1,.116-.35" transform="translate(-361.177 -201.853)" fill="#fff"/>
        <path id="Path_138" data-name="Path 138" d="M372.736,246.779a.259.259,0,1,1-.1.352.261.261,0,0,1,.1-.352" transform="translate(-363.021 -204.782)" fill="#fff"/>
        <path id="Path_139" data-name="Path 139" d="M375.451,250.705a.259.259,0,1,1-.1.356.263.263,0,0,1,.1-.356" transform="translate(-364.989 -207.62)" fill="#fff"/>
        <path id="Path_140" data-name="Path 140" d="M378.338,254.511a.267.267,0,0,1,.362.082.265.265,0,0,1-.448.281.267.267,0,0,1,.087-.362" transform="translate(-367.081 -210.372)" fill="#fff"/>
        <path id="Path_141" data-name="Path 141" d="M381.381,258.19a.267.267,0,0,1,.365.075.267.267,0,0,1-.448.289.269.269,0,0,1,.083-.364" transform="translate(-369.285 -213.031)" fill="#fff"/>
        <path id="Path_142" data-name="Path 142" d="M384.545,261.766a.267.267,0,0,1,.364.072.262.262,0,0,1-.081.366.273.273,0,0,1-.372-.073.269.269,0,0,1,.088-.365" transform="translate(-371.572 -215.619)" fill="#fff"/>
        <path id="Path_143" data-name="Path 143" d="M387.8,265.26a.266.266,0,0,1,.368.076.267.267,0,1,1-.368-.076" transform="translate(-373.933 -218.146)" fill="#fff"/>
        <path id="Path_144" data-name="Path 144" d="M391.115,268.686a.274.274,0,0,1,.375.072.27.27,0,1,1-.375-.072" transform="translate(-376.329 -220.624)" fill="#fff"/>
        <path id="Path_145" data-name="Path 145" d="M394.523,272.045a.267.267,0,1,1-.082.374.276.276,0,0,1,.082-.374" transform="translate(-378.794 -223.055)" fill="#fff"/>
        <path id="Path_146" data-name="Path 146" d="M397.971,275.347a.268.268,0,1,1-.077.373.265.265,0,0,1,.077-.373" transform="translate(-381.288 -225.442)" fill="#fff"/>
        <path id="Path_147" data-name="Path 147" d="M401.489,278.562a.27.27,0,1,1,.3.45.271.271,0,0,1-.38-.07.278.278,0,0,1,.083-.38" transform="translate(-383.831 -227.768)" fill="#fff"/>
        <path id="Path_148" data-name="Path 148" d="M405.064,281.725a.265.265,0,0,1,.38.069.278.278,0,1,1-.38-.069" transform="translate(-386.418 -230.053)" fill="#fff"/>
        <path id="Path_149" data-name="Path 149" d="M408.709,284.806a.277.277,0,0,1,.382.075.271.271,0,0,1-.081.378.272.272,0,1,1-.3-.453" transform="translate(-389.054 -232.286)" fill="#fff"/>
        <path id="Path_150" data-name="Path 150" d="M412.422,287.81a.276.276,0,1,1-.079.388.282.282,0,0,1,.079-.388" transform="translate(-391.743 -234.459)" fill="#fff"/>
        <path id="Path_151" data-name="Path 151" d="M416.188,290.748a.275.275,0,1,1,.312.453.275.275,0,1,1-.312-.453" transform="translate(-394.468 -236.582)" fill="#fff"/>
        <path id="Path_152" data-name="Path 152" d="M420.018,293.589a.279.279,0,1,1,.317.458.279.279,0,1,1-.317-.458" transform="translate(-397.239 -238.636)" fill="#fff"/>
        <path id="Path_153" data-name="Path 153" d="M423.91,296.343a.289.289,0,0,1,.4.061.287.287,0,1,1-.4-.061" transform="translate(-400.06 -240.628)" fill="#fff"/>
        <path id="Path_154" data-name="Path 154" d="M379.219,120.665v23.011h18.757v.734h-38.2v-.734h18.715V120.665Z" transform="translate(-353.74 -113.556)" fill="#fff"/>
        <path id="Path_155" data-name="Path 155" d="M430.353,219.545a.173.173,0,0,1,.166-.131.369.369,0,0,1,.335.229.171.171,0,0,1-.158.247c-.06,0-.31.056-.31-.138a1.265,1.265,0,0,0-.95.013c-.166.093.3.271.3.271a.425.425,0,0,1,.4.268.2.2,0,0,1-.176.3.442.442,0,0,1-.4-.272.282.282,0,0,1,0-.206,1.254,1.254,0,0,0-1.177-.36c-.134,0,.169.339.3.438.018,0,.04.087.063.087a.441.441,0,0,1,.392.164c.058.151-.052.226-.207.236a.334.334,0,0,1-.364-.2.292.292,0,0,1-.021-.122,1.47,1.47,0,0,0-1.431-.6c0,.063.422.268.58.423a.257.257,0,0,1,.052-.009.42.42,0,0,1,.394.245c.062.152-.008.2-.16.218a.369.369,0,0,1-.4-.169c-.029-.074-.11-.137-.082-.193a2.008,2.008,0,0,0-1.433-.466c-.17.117.543.512.543.515.147-.007.38.042.438.183a.2.2,0,0,1-.156.3.431.431,0,0,1-.391-.241.18.18,0,0,1-.022-.08l-.025-.027a1.637,1.637,0,0,0-1.473-.574c-.1.015.4.291.624.431a.207.207,0,0,1,.062-.021.412.412,0,0,1,.393.226.2.2,0,0,1-.153.292.406.406,0,0,1-.389-.226c-.027-.06-.126-.115-.118-.166-1.161-.816-1.5-.443-1.69-.443-.166,0,.833.562.833.562.141-.019.359-.026.425.113a.186.186,0,0,1-.136.292.4.4,0,0,1-.389-.21.156.156,0,0,1-.025-.119c-1.528-.866-1.549-.419-1.549-.419l.878.538c.016,0,.027-.006.041-.01a.381.381,0,0,1,.388.194.181.181,0,0,1-.126.289.4.4,0,0,1-.392-.19.226.226,0,0,1-.02-.074l-.05-.052c-.912-.708-1.368-.574-1.658-.505-.246.061.576.326.836.49a.155.155,0,0,1,.041-.016.546.546,0,0,1,.488.17c.081.129-.068.257-.2.292a.378.378,0,0,1-.39-.17.193.193,0,0,1-.018-.2l-.028-.016c-1.55-.712-1.482-.261-1.9-.166-.391.09,1.065.45,1.186.478a.394.394,0,0,1,.389.131.181.181,0,0,1-.081.3.366.366,0,0,1-.394-.13.2.2,0,0,1-.053-.132,11.921,11.921,0,0,0-1.441-.382c-.244,0-.289.144-.483.194-.151.038.67.314.99.416a.059.059,0,0,1,.025-.014.368.368,0,0,1,.4.092.179.179,0,0,1-.051.3.374.374,0,0,1-.4-.093,1.117,1.117,0,0,1-.066-.1c-1.614-.609-1.569-.385-1.927-.191a5.173,5.173,0,0,0,1.208.431.368.368,0,0,1,.335.087.169.169,0,0,1-.027.293.37.37,0,0,1-.4-.058.215.215,0,0,1-.06-.1l-.023-.009c-1.564-.625-1.77-.31-1.91-.168s1.109.475,1.109.475a.226.226,0,0,1,.047-.029.355.355,0,0,1,.4.077.166.166,0,0,1-.049.284.35.35,0,0,1-.386-.077s-1.465-.562-1.85-.342a13.779,13.779,0,0,0-4.354,3.653l-.669-.015c.191-.552,4.257-3.788,4.823-4,.237.01.919-1.973.919-1.827a.059.059,0,0,0,.006.03.611.611,0,0,1,.148-.459.227.227,0,0,1,.4.075.578.578,0,0,1-.124.581.259.259,0,0,1-.23.088c-.034.122-.676,1.265-.395,1.2.775-.184.984-.912,1.488-1.991a.061.061,0,0,0,.007-.024.243.243,0,0,1-.018-.06.537.537,0,0,1,.293-.474c.177-.08.33,0,.345.174a.521.521,0,0,1-.293.477.384.384,0,0,1-.082.027c-.109.391-1.319,1.921.176.978a3.434,3.434,0,0,0,.988-1.519c-.034-.015-.051-.036-.02-.068,0-.021-.006-.041-.006-.063a.463.463,0,0,1,.294-.42c.18-.07.332.01.338.179a.457.457,0,0,1-.3.42.106.106,0,0,1-.028.013c-.122.055-.925,1.255-.526,1.145a3,3,0,0,0,.548-.351,4.4,4.4,0,0,0,.738-1.108c-.019-.014-.028-.03,0-.054a.367.367,0,0,1-.014-.075.421.421,0,0,1,.289-.389c.174-.059.319.021.33.173a.4.4,0,0,1-.286.385.308.308,0,0,1-.073.019c-.318.539-.816,1.082-.246.96.7-.421.66-.64,1.117-1.132.09-.091.04-.13.035-.169a.375.375,0,0,1,.276-.356c.168-.053.316.02.335.165a.36.36,0,0,1-.266.355.3.3,0,0,1-.136.015l.026.015s-.923.914-.3.767a2.893,2.893,0,0,0,1.426-1.159c-.005.019.03.04.075.056a.21.21,0,0,1-.057-.114.309.309,0,0,1,.259-.314c.176-.042.325.033.346.171a.322.322,0,0,1-.26.319h-.027c-.027.134-1.572,1.1-.292.788a5.2,5.2,0,0,0,1.161-.984v-.017a.314.314,0,0,1,.6-.12.269.269,0,0,1-.245.293c-.023,0-.053,0-.053.008-.49.374-1.412.762-.544.762.547.092,1.286-.809,1.537-.936l-.006-.02c-.037-.127.068-.247.225-.276a.313.313,0,0,1,.354.182c.032.124-.066.242-.226.269-.026.005-.187-.017-.2-.017-.145.028-1.1.717-.386.717a1.992,1.992,0,0,0,1.3-.785c-.018-.111.068-.216.218-.235a.345.345,0,0,1,.36.184c.045.124-.044.239-.2.258a.532.532,0,0,1-.13-.007c-.081.07-.879.493-.448.542.786.116.7-.552,1.261-.676-.054-.123.032-.232.189-.24a.379.379,0,0,1,.332.254c.047.126-.082.271-.181.195-.227-.163-.925.414-.7.443a1.238,1.238,0,0,0,1.237-.476.177.177,0,0,1,.194-.124.439.439,0,0,1,.373.228c.05.128-.152.119-.2.184a.363.363,0,0,1-.241-.046c-.012,0-.288.254-.3.26a3.7,3.7,0,0,1,.831.131" transform="translate(-391.686 -184.196)" fill="#fff"/>
        <path id="Path_156" data-name="Path 156" d="M425.258,211.718l-1.273-.836-.286,1.464-.289-1.464-1.275.836.863-1.232-1.511-.281,1.511-.281-.863-1.233,1.275.836.289-1.461.286,1.461,1.273-.836-.859,1.233,1.51.281-1.51.281Z" transform="translate(-398.392 -176.795)" fill="#fff"/>
        <g id="Group_2" data-name="Group 2" transform="translate(5.925 6.903)">
          <path id="Path_157" data-name="Path 157" d="M378.561,169.137l-.074-.048a46.222,46.222,0,0,1-3.916-2.821,66.233,66.233,0,0,1-8.4-7.944c-6.88-7.8-8.635-17.123-4.813-25.579,3.171-7.014,11.307-10.668,17.153-12.807l.046-.019.058.019c5.866,2.146,14.036,5.81,17.194,12.807,3.827,8.456,2.075,17.775-4.812,25.579a65.8,65.8,0,0,1-8.419,7.944,47.23,47.23,0,0,1-3.938,2.821Zm0-48.9c-5.788,2.124-13.814,5.741-16.927,12.635-3.774,8.346-2.039,17.55,4.758,25.256a67.111,67.111,0,0,0,8.357,7.912c1.977,1.561,3.468,2.529,3.811,2.747a46.551,46.551,0,0,0,3.839-2.747,66.008,66.008,0,0,0,8.383-7.914c6.8-7.7,8.537-16.908,4.761-25.254C392.433,125.993,384.377,122.365,378.561,120.235Z" transform="translate(-359.378 -119.92)" fill="#fff"/>
        </g>
        <g id="Group_3" data-name="Group 3" transform="translate(4.874 5.638)">
          <path id="Path_158" data-name="Path 158" d="M375.811,167.281l-.039-.029a48.848,48.848,0,0,1-4.141-2.983,69.806,69.806,0,0,1-8.875-8.4c-7.268-8.23-9.119-18.072-5.085-27,3.35-7.4,11.94-11.26,18.117-13.517l.023-.009.033.009c6.2,2.27,14.825,6.137,18.157,13.517,4.039,8.924,2.185,18.762-5.078,27a68.892,68.892,0,0,1-8.9,8.4,49.121,49.121,0,0,1-4.159,2.983Zm0-51.754c-6.135,2.249-14.672,6.085-17.987,13.417-4.006,8.86-2.162,18.63,5.054,26.811a69.657,69.657,0,0,0,8.855,8.383c2.175,1.719,3.8,2.761,4.078,2.944.291-.183,1.919-1.225,4.1-2.944a68.563,68.563,0,0,0,8.888-8.383c7.215-8.18,9.053-17.952,5.052-26.811C390.55,121.633,381.98,117.785,375.811,115.527Z" transform="translate(-355.578 -115.346)" fill="#fff"/>
        </g>
        <path id="Path_159" data-name="Path 159" d="M499.606,166.016a.511.511,0,0,0-.222.145.535.535,0,0,0-.039.442.955.955,0,0,0,.106.277.275.275,0,0,0,.317.141.21.21,0,0,0,.151-.143,1.182,1.182,0,0,0,.031-.347l-.006-.26a1.668,1.668,0,0,1,.058-.552.557.557,0,0,1,.441-.353.677.677,0,0,1,.567.1.994.994,0,0,1,.367.623,1.016,1.016,0,0,1-.043.676.683.683,0,0,1-.492.409l-.111-.463a.334.334,0,0,0,.249-.256.651.651,0,0,0-.01-.305.569.569,0,0,0-.146-.282.238.238,0,0,0-.241-.064.212.212,0,0,0-.159.155,1.308,1.308,0,0,0-.016.33v.43a.962.962,0,0,1-.077.436.562.562,0,0,1-.413.322.689.689,0,0,1-.587-.116,1.058,1.058,0,0,1-.376-.64,1.141,1.141,0,0,1,.032-.764.7.7,0,0,1,.5-.4Z" transform="translate(-454.409 -145.883)" fill="#fff"/>
        <g id="Group_4" data-name="Group 4" transform="translate(38.622 26.074)">
          <path id="Path_160" data-name="Path 160" d="M503.862,190.69l-.033-.518,2.039-.13-.048-.749.438-.028.128,2.015-.438.028-.048-.749Z" transform="translate(-496.592 -189.266)" fill="#fff"/>
          <path id="Path_161" data-name="Path 161" d="M505.056,198.5l-1.112-.037.017-.518,2.481.082-.017.518-.94-.031-.032.967.94.031-.017.518-2.481-.082.017-.518,1.112.037Z" transform="translate(-496.64 -195.546)" fill="#fff"/>
          <path id="Path_162" data-name="Path 162" d="M505.525,208.356a1.312,1.312,0,1,1-1.125-1.365A1.158,1.158,0,0,1,505.525,208.356Zm-2.152-.308c-.04.277.076.692.763.79s.915-.267.954-.544-.076-.692-.763-.79S503.412,207.771,503.373,208.048Z" transform="translate(-495.938 -202.075)" fill="#fff"/>
          <path id="Path_163" data-name="Path 163" d="M497.284,218.42l.122-.468,2.007.521,0-.007-1.891-.97.128-.492,2.121.083,0-.007-2.007-.521.122-.468,2.4.624-.19.733-2.006-.057,0,.006,1.783.92-.189.726Zm-.014.155-.19.52.421.406-.254.689-.5-.181-.564,1.524.417.151.386-1.049.559.2-.359.966.386.142.359-.968.483.18-.382,1.03.42.154.689-1.878Zm1.348,2.011-.039.107-.966-.362.2-.532Z" transform="translate(-491.056 -208.676)" fill="#fff"/>
          <path id="Path_164" data-name="Path 164" d="M492.965,243.4l-.192.336-.592-.337-.336.589-.336-.192.336-.589-.592-.338.192-.336.592.338.336-.589.336.192-.336.589Z" transform="translate(-487.493 -227.624)" fill="#fff"/>
          <path id="Path_165" data-name="Path 165" d="M484.176,250.156l.317-.445,1.51,2.16-.347.487-2.53-.726.326-.459.509.167.531-.747Zm.586.8-.367.516.979.318,0-.006Z" transform="translate(-481.612 -233.001)" fill="#fff"/>
          <path id="Path_166" data-name="Path 166" d="M477.651,259.4l.4-.048a1.291,1.291,0,0,1,.277-.6,1.313,1.313,0,1,1,.248,1.752,1.391,1.391,0,0,1-.518-.763l-.369.045Zm1.277.234-.357.046a1.108,1.108,0,0,0,.338.427c.536.443.92.249,1.1.033s.3-.63-.24-1.073-.92-.249-1.1-.033a.611.611,0,0,0-.128.258l.34-.042Z" transform="translate(-477.651 -239.214)" fill="#fff"/>
        </g>
        <path id="Path_167" data-name="Path 167" d="M503.962,178.77l-.35.07.116.66-.66.128.069.35.661-.127.13.66.357-.069-.128-.659.668-.128-.071-.351-.666.125Z" transform="translate(-457.42 -155.598)" fill="#fff"/>
        <path id="Path_168" data-name="Path 168" d="M478.332,270.45l-.171.177.665.6-.223.243.146.136.613-.662-.158-.142-.217.244Z" transform="translate(-439.398 -221.933)" fill="#fff"/>
        <path id="Path_169" data-name="Path 169" d="M476.5,272.5l.814.739.156-.18-.815-.735Z" transform="translate(-438.193 -223.291)" fill="#fff"/>
        <path id="Path_170" data-name="Path 170" d="M475.119,273.97a.412.412,0,0,0-.608.085c-.2.221-.189.441-.044.574a.35.35,0,0,0,.455-.025c.24-.158.281-.192.343-.13a.132.132,0,0,1-.014.2c-.081.087-.163.134-.27.05l-.162.174a.377.377,0,0,0,.562-.09.36.36,0,0,0,.029-.525c-.153-.139-.314-.059-.454.033s-.265.2-.349.116-.022-.188.039-.247a.2.2,0,0,1,.31-.045Z" transform="translate(-436.649 -224.406)" fill="#fff"/>
        <path id="Path_171" data-name="Path 171" d="M472.5,268.886l-.25-.231-.129.136.256.231-.231.254.133.123.232-.254.261.233.117-.138-.253-.23.232-.259-.138-.124Z" transform="translate(-435.026 -220.614)" fill="#fff"/>
        <path id="Path_172" data-name="Path 172" d="M392.161,224.942c.194,0,.537.289.631,0s-7.05-7.076-12.8-8.083a8.461,8.461,0,0,0-6.912,1.494c-.3.18.364-.169.77-.169-.31.144-.429.314-.625.721-.082.173.748-.863.935-.7l-.354.649s.743-.7.888-.649l-.286.6s.849-.909,1-.689c.142-.049-.185.345-.4.617l1.349-.819c-.1.313-.529.531-.479.819a5.288,5.288,0,0,1,1.679-1.083,13.02,13.02,0,0,0-.984,1.133s.583-.493.895-.7l-.246.605a3.884,3.884,0,0,1,1.448-.836s-1.222,1.325-.942,1a7.525,7.525,0,0,1,2.021-.984c-.347.239-1.307.791-1.152,1.109a3.229,3.229,0,0,1,1.4-.776c.05.031-1.579,1.059-1.153.859a18.047,18.047,0,0,1,1.947-.62s-1.163.33-1.269.94a16.773,16.773,0,0,1,1.773-.688c.12.054-1.221.78-1.221.78l1.245-.265-.572.479a7.539,7.539,0,0,1,1.425-.31c.127.061-.877.389-.939.435s1.788-.22,2.009-.246a7.075,7.075,0,0,1-.98.373s1.512-.038,1.937-.054-1.163.44-1.364.44,2.717-.145,2.937-.066-1.211.358-1.433.445,1.9-.157,2.037-.022-1.513.374-1.548.4,2.495-.21,2.821-.145a22.833,22.833,0,0,1,4.511,4" transform="translate(-363.315 -183.034)" fill="#fff"/>
        <path id="Path_173" data-name="Path 173" d="M430.353,219.545a.173.173,0,0,1,.166-.131.369.369,0,0,1,.335.229.171.171,0,0,1-.158.247c-.06,0-.31.056-.31-.138a1.265,1.265,0,0,0-.95.013c-.166.093.3.271.3.271a.425.425,0,0,1,.4.268.2.2,0,0,1-.176.3.442.442,0,0,1-.4-.272.282.282,0,0,1,0-.206,1.254,1.254,0,0,0-1.177-.36c-.134,0,.169.339.3.438.018,0,.04.087.063.087a.441.441,0,0,1,.392.164c.058.151-.052.226-.207.236a.334.334,0,0,1-.364-.2.292.292,0,0,1-.021-.122,1.47,1.47,0,0,0-1.431-.6c0,.063.422.268.58.423a.257.257,0,0,1,.052-.009.42.42,0,0,1,.394.245c.062.152-.008.2-.16.218a.369.369,0,0,1-.4-.169c-.029-.074-.11-.137-.082-.193a2.008,2.008,0,0,0-1.433-.466c-.17.117.543.512.543.515.147-.007.38.042.438.183a.2.2,0,0,1-.156.3.431.431,0,0,1-.391-.241.18.18,0,0,1-.022-.08l-.025-.027a1.637,1.637,0,0,0-1.473-.574c-.1.015.4.291.624.431a.207.207,0,0,1,.062-.021.412.412,0,0,1,.393.226.2.2,0,0,1-.153.292.406.406,0,0,1-.389-.226c-.027-.06-.126-.115-.118-.166-1.161-.816-1.5-.443-1.69-.443-.166,0,.833.562.833.562.141-.019.359-.026.425.113a.186.186,0,0,1-.136.292.4.4,0,0,1-.389-.21.156.156,0,0,1-.025-.119c-1.528-.866-1.549-.419-1.549-.419l.878.538c.016,0,.027-.006.041-.01a.381.381,0,0,1,.388.194.181.181,0,0,1-.126.289.4.4,0,0,1-.392-.19.226.226,0,0,1-.02-.074l-.05-.052c-.912-.708-1.368-.574-1.658-.505-.246.061.576.326.836.49a.155.155,0,0,1,.041-.016.546.546,0,0,1,.488.17c.081.129-.068.257-.2.292a.378.378,0,0,1-.39-.17.193.193,0,0,1-.018-.2l-.028-.016c-1.55-.712-1.482-.261-1.9-.166-.391.09,1.065.45,1.186.478a.394.394,0,0,1,.389.131.181.181,0,0,1-.081.3.366.366,0,0,1-.394-.13.2.2,0,0,1-.053-.132,11.921,11.921,0,0,0-1.441-.382c-.244,0-.289.144-.483.194-.151.038.67.314.99.416a.059.059,0,0,1,.025-.014.368.368,0,0,1,.4.092.179.179,0,0,1-.051.3.374.374,0,0,1-.4-.093,1.117,1.117,0,0,1-.066-.1c-1.614-.609-1.569-.385-1.927-.191a5.173,5.173,0,0,0,1.208.431.368.368,0,0,1,.335.087.169.169,0,0,1-.027.293.37.37,0,0,1-.4-.058.215.215,0,0,1-.06-.1l-.023-.009c-1.564-.625-1.77-.31-1.91-.168s1.109.475,1.109.475a.226.226,0,0,1,.047-.029.355.355,0,0,1,.4.077.166.166,0,0,1-.049.284.35.35,0,0,1-.386-.077s-1.465-.562-1.85-.342a13.779,13.779,0,0,0-4.354,3.653l-.669-.015c.191-.552,4.257-3.788,4.823-4,.237.01.919-1.973.919-1.827a.059.059,0,0,0,.006.03.611.611,0,0,1,.148-.459.227.227,0,0,1,.4.075.578.578,0,0,1-.124.581.259.259,0,0,1-.23.088c-.034.122-.676,1.265-.395,1.2.775-.184.984-.912,1.488-1.991a.061.061,0,0,0,.007-.024.243.243,0,0,1-.018-.06.537.537,0,0,1,.293-.474c.177-.08.33,0,.345.174a.521.521,0,0,1-.293.477.384.384,0,0,1-.082.027c-.109.391-1.319,1.921.176.978a3.434,3.434,0,0,0,.988-1.519c-.034-.015-.051-.036-.02-.068,0-.021-.006-.041-.006-.063a.463.463,0,0,1,.294-.42c.18-.07.332.01.338.179a.457.457,0,0,1-.3.42.106.106,0,0,1-.028.013c-.122.055-.925,1.255-.526,1.145a3,3,0,0,0,.548-.351,4.4,4.4,0,0,0,.738-1.108c-.019-.014-.028-.03,0-.054a.367.367,0,0,1-.014-.075.421.421,0,0,1,.289-.389c.174-.059.319.021.33.173a.4.4,0,0,1-.286.385.308.308,0,0,1-.073.019c-.318.539-.816,1.082-.246.96.7-.421.66-.64,1.117-1.132.09-.091.04-.13.035-.169a.375.375,0,0,1,.276-.356c.168-.053.316.02.335.165a.36.36,0,0,1-.266.355.3.3,0,0,1-.136.015l.026.015s-.923.914-.3.767a2.893,2.893,0,0,0,1.426-1.159c-.005.019.03.04.075.056a.21.21,0,0,1-.057-.114.309.309,0,0,1,.259-.314c.176-.042.325.033.346.171a.322.322,0,0,1-.26.319h-.027c-.027.134-1.572,1.1-.292.788a5.2,5.2,0,0,0,1.161-.984v-.017a.314.314,0,0,1,.6-.12.269.269,0,0,1-.245.293c-.023,0-.053,0-.053.008-.49.374-1.412.762-.544.762.547.092,1.286-.809,1.537-.936l-.006-.02c-.037-.127.068-.247.225-.276a.313.313,0,0,1,.354.182c.032.124-.066.242-.226.269-.026.005-.187-.017-.2-.017-.145.028-1.1.717-.386.717a1.992,1.992,0,0,0,1.3-.785c-.018-.111.068-.216.218-.235a.345.345,0,0,1,.36.184c.045.124-.044.239-.2.258a.532.532,0,0,1-.13-.007c-.081.07-.879.493-.448.542.786.116.7-.552,1.261-.676-.054-.123.032-.232.189-.24a.379.379,0,0,1,.332.254c.047.126-.082.271-.181.195-.227-.163-.925.414-.7.443a1.238,1.238,0,0,0,1.237-.476.177.177,0,0,1,.194-.124.439.439,0,0,1,.373.228c.05.128-.152.119-.2.184a.363.363,0,0,1-.241-.046c-.012,0-.288.254-.3.26A3.7,3.7,0,0,1,430.353,219.545Z" transform="translate(-391.686 -184.196)" fill="#fff"/>
        <path id="Path_174" data-name="Path 174" d="M425.258,211.718l-1.273-.836-.286,1.464-.289-1.464-1.275.836.863-1.232-1.511-.281,1.511-.281-.863-1.233,1.275.836.289-1.461.286,1.461,1.273-.836-.859,1.233,1.51.281-1.51.281Z" transform="translate(-398.392 -176.795)" fill="#fff"/>
        <path id="Path_175" data-name="Path 175" d="M385.068,235.477a.721.721,0,0,0-.056.145l-.009-.007Z" transform="translate(-371.994 -196.628)" fill="#fff"/>
        <path id="Path_176" data-name="Path 176" d="M389.5,235.632c.04.005.064.005.05,0A.14.14,0,0,1,389.5,235.632Zm.34-3.7a.233.233,0,0,0-.078-.01.311.311,0,0,1,.1.021A.034.034,0,0,0,389.839,231.929Zm-.748.012a1.063,1.063,0,0,0-.251.077C388.919,231.987,389.011,231.962,389.091,231.941Z" transform="translate(-374.77 -194.054)" fill="#fff"/>
        <path id="Path_177" data-name="Path 177" d="M385.853,235.373l.176.282a1.855,1.855,0,0,1-1.566-1.83,1.717,1.717,0,0,1,.158-.722l.016.02c.082.031.159.067.159.146a1.348,1.348,0,0,1-.067.589.7.7,0,0,1,.131.276h.057c0-.066-.043-.114-.049-.193.029-.054.1-.054.169-.054a.525.525,0,0,0,.038.2c.06.1.2.12.26.143.192.067.14.247.066.388.061.048.053.2.139.2C385.818,234.829,385.77,235.172,385.853,235.373Zm2.344-1.549a1.861,1.861,0,0,1-1.814,1.859c-.12-.082-.113-.126-.139-.226a.747.747,0,0,0,.109-.2c.024-.088.064-.145.015-.233a2.4,2.4,0,0,0,.182-.491c-.05-.07-.1-.135-.2-.1-.149.043-.165-.178-.266-.255-.111.009-.2.083-.327.077-.079.1-.162.014-.249,0-.082-.059.032-.141-.022-.207-.045-.05-.083.021-.117.045a.134.134,0,0,1-.132-.209c.059-.08.163-.213.163-.213.076.021.042.113.06.156l.081-.066-.025-.111c-.04-.129.123-.221.2-.306a.269.269,0,0,0-.036-.218l.15-.26c.1-.12-.07-.171-.122-.239l-.3.228c-.052-.044-.111-.155-.043-.169s.112-.086.177-.126a.172.172,0,0,0-.134-.086,2.284,2.284,0,0,0-.448.092,1.833,1.833,0,0,1,.709-.486c.02.084.01.2.078.255s.158-.046.215.046c.129.09-.03.184-.072.258.061.038.109.1.179.118,0,0,.082-.143.162-.132s.121.106.121.106c.059-.046.235-.046.15-.174l.17-.087.09-.128.036-.122c-.052-.058-.027-.181-.085-.224a1.607,1.607,0,0,1,.687.3c-.008,0-.008,0-.016-.007-.055-.017-.082.02-.107.075,0,.051-.052.054-.083.034l-.088-.054-.077.163c.077.063.177.08.2.179s-.113.2-.221.232c-.077-.043-.106-.24-.247-.159,0,.036.036.12-.013.13h-.07l.035.1c-.087.08-.241.054-.328.141-.066.062.152.141.228.21.082-.062.291.035.258-.148.151-.011.232.052.362-.062.032.08-.042.158-.064.23a1.328,1.328,0,0,1-.531.111c-.137,0-.119.259-.171.39-.066.156.256.172.38.254.1.064.217-.158.318-.085.129.094.1.351.226.575,0,.072-.04.065-.077.115.1.035.134.144.219.192.09-.02.17.072.286.014a1.344,1.344,0,0,1-.016-.545l-.066-.286s.193.043.2-.036c0-.134-.077-.189.005-.254a.346.346,0,0,0-.241-.22l-.133-.005a1.122,1.122,0,0,1-.1-.343c-.04-.06-.124-.044-.143-.106a.27.27,0,0,1,.259.016,1.27,1.27,0,0,1,.227.3c.028.042.106-.011.139-.055.041.049.212.2.222.14A2.057,2.057,0,0,1,388.2,233.824Zm-2.462.092c-.056-.064-.112-.01-.17,0-.009.067.109,0,.119.072C385.729,233.985,385.719,233.941,385.734,233.917Zm.155-.058c-.045.009-.111.012-.129.07a.084.084,0,0,0,.149.046C385.936,233.936,385.927,233.847,385.889,233.858Zm.125.04c-.03,0-.045.067-.021.064l.047-.027C386.051,233.912,386.029,233.9,386.014,233.9Z" transform="translate(-371.604 -194.109)" fill="#fff"/>
        <g id="Group_5" data-name="Group 5" transform="translate(28.692 13.452)">
          <path id="Path_178" data-name="Path 178" d="M446.688,147.586c-1.8,0-1.63,1.659-4.956,3.089v13.15h9.913v-13.15C448.322,149.245,448.488,147.586,446.688,147.586Zm-4.512,3.37c3.006-1.305,2.872-2.985,4.512-2.985s1.5,1.68,4.509,2.985v4.812h-9.021Zm0,5.388H451.2v4.926h-9.021Zm9.021,6.971h-9.021v-.574H451.2Zm0-.766h-9.021V162.1H451.2Zm0-.575h-9.021v-.253H451.2Z" transform="translate(-441.732 -146.487)" fill="#fff"/>
          <path id="Path_179" data-name="Path 179" d="M457.92,144.084a.477.477,0,1,1,.478.474.478.478,0,0,1-.478-.474" transform="translate(-453.445 -143.609)" fill="#fff"/>
          <path id="Path_180" data-name="Path 180" d="M446.755,184.019v-4.858h.5l.743.556.757-.556h.8l.77.565.771-.565h.8l.755.559.76-.559h.477v4.957H453.4l-.731-.534-.743.534h-.851l-.754-.54-.746.54h-.853l-.77-.55-.762.55h-.432Zm.335-4.547v.9l.621-.448Zm0,1.32v.038l.868.622.914-.667-.875-.651Zm0,.457v.834l.579-.422Zm0,1.25v.033l.86.619.886-.648-.878-.633Zm0,.452v.82l.574-.413Zm1.151.407.729.532v-1.074Zm1.794.015-.722-.528v1.047Zm-1.793-1.712.728.527V181.13Zm1.167.841.911.659.892-.647-.9-.669Zm1.2.871.723.519v-1.047Zm2.931-2.581-.9-.654-.88.641.922.673.855-.622Zm-1.177-.865-.7-.507v1.013Zm.57,0,.607.448v-.894Zm.607,2.572-.858-.629-.894.647.882.649.871-.633Zm-1.141-.838-.734-.531v1.059Zm-1.209-.882-.87-.64-.877.646.868.641Zm-1.155-.845-.722-.529v1.057Zm.574,0,.723.528v-1.057Zm2.358,1.726.573.422v-.834Zm-.584,1.712-.719-.528v1.045Zm-2.357-1.742-.713-.527v1.052Zm-1.745-1.7.689.509v-1.016Zm2.309,1.7.743.547V181.1Zm2.359,1.744.591.439v-.863Z" transform="translate(-445.366 -169.333)" fill="#fff"/>
          <path id="Path_181" data-name="Path 181" d="M457.507,151.84c.038.014.333-.645.5-.83.187-.225-.6-.111-.74.145l-.6-.89-.649.89c-.135-.258-.952-.337-.739-.145.354.321.311.882.378.847a2.351,2.351,0,0,1,1.848-.016" transform="translate(-451.51 -148.424)" fill="#fff"/>
          <path id="Path_182" data-name="Path 182" d="M448.338,171.17h-.959a2.975,2.975,0,0,1,.671-1.873c.254-.294.887.686,1.83.887.165.036-.5.986-.5.986h-.64c-.32-.24-1.1-.795-.986-.6a3.224,3.224,0,0,0,.589.6" transform="translate(-445.818 -162.156)" fill="#fff"/>
          <path id="Path_183" data-name="Path 183" d="M465.878,171.671h1.159a2.059,2.059,0,0,0-.556-1.623c-.312-.363-.329.254-1.191.369-.23.034-.016,1.242-.016,1.242s1.5-.784,1.389-.589a2.845,2.845,0,0,1-.785.6" transform="translate(-458.7 -162.657)" fill="#fff"/>
          <path id="Path_184" data-name="Path 184" d="M460.293,173.693c-.049-.2-.471-.148-.471,0,0,.237.516.189.471,0" transform="translate(-454.821 -165.283)" fill="#fff"/>
          <path id="Path_185" data-name="Path 185" d="M459.207,175.23a3.532,3.532,0,0,1,.782,0,.349.349,0,0,0-.351-.376c-.459,0-.477.391-.431.376" transform="translate(-454.363 -166.216)" fill="#fff"/>
          <path id="Path_186" data-name="Path 186" d="M463.127,174.074h-.448c-.014-.443.011-.344-.116-.579-.036-.074.431-.315.442-.216a3.851,3.851,0,0,0,.122.795" transform="translate(-456.803 -165.06)" fill="#fff"/>
          <path id="Path_187" data-name="Path 187" d="M456.113,174.074h.688c.009-.443-.086-.344.031-.579.042-.074-.424-.315-.437-.216a8.327,8.327,0,0,0-.282.795" transform="translate(-452.137 -165.06)" fill="#fff"/>
          <path id="Path_188" data-name="Path 188" d="M456.113,174.074h.688c.009-.443-.086-.344.031-.579.042-.074-.424-.315-.437-.216A8.327,8.327,0,0,0,456.113,174.074Z" transform="translate(-452.137 -165.06)" fill="#fff"/>
          <path id="Path_189" data-name="Path 189" d="M458.576,156.645s.058-.3-.092-.318a10.236,10.236,0,0,0-1.31.038c-.242.068-.419.247-.117.683.226.336.136.607.623.777a.413.413,0,0,0,.354-.027,2.176,2.176,0,0,0,.449-.371c.092-.1,0-.268.109-.4C458.9,156.667,458.576,156.645,458.576,156.645Zm-1.344.129c-.113-.207.357-.2.341-.063S457.3,156.879,457.232,156.774Zm.474.727c-.061.03-.073-.027-.1-.068-.075-.1.35-.083.325-.015C457.879,157.542,457.808,157.47,457.706,157.5Zm.119-.283c-.1.022-.215-.025-.181-.077a.53.53,0,0,0,.119-.189c.044-.11.145.058.171.144S457.924,157.193,457.825,157.218Zm.4-.017c-.192.027-.113-.094-.09-.163S458.3,157.193,458.227,157.2Zm.093-.49c-.032.122-.274.087-.285-.052S458.368,156.553,458.32,156.711Z" transform="translate(-452.705 -152.81)" fill="#fff"/>
          <path id="Path_190" data-name="Path 190" d="M454.311,161.088c-.8.21-1.133.444-1.316.375-.125-.051-.272-.091.76-.4.6-.177.047-.934-.156-.914-.1.013.181.722-.946.868-1.595-.262-.892-.844-.99-.855-.2-.023-.911.556-.236.8,1,.359.884.4.787.5-.139.141-.48.24-1.021-.385s-1.47,1.382-1.4,1.409a3.408,3.408,0,0,0,.34.044c-.317-.155-.014-.23.118-.293.47-.213,1.983.7,1.974.584-.1-.94.039-1.111.12-.975a1.731,1.731,0,0,1,.035,1.145c-.169.249-.5.021-1.047-.317a1.3,1.3,0,0,0-1.152-.179,6.628,6.628,0,0,0,2.486,1.178c.58.12,2.2-.954,1.961-1.013s-.041-.155-.633.146c-.57.288-.391.254-.673.33a1.222,1.222,0,0,1-.713.041c-.182-.084.692-.135.976-.324a2.131,2.131,0,0,1,1.72-.349C455.436,162.532,454.961,160.92,454.311,161.088Zm-1.6.518a.12.12,0,0,1,.132.1c0,.052-.059.1-.132.1s-.133-.047-.133-.1A.12.12,0,0,1,452.709,161.606Zm-.057,1.133c-.077,0-.135-.032-.135-.067s.059-.067.135-.067.141.029.141.067S452.733,162.738,452.652,162.738Zm-.1-.5c.011-.1.375-.143.375,0S452.539,162.365,452.553,162.239Z" transform="translate(-447.563 -155.576)" fill="#fff"/>
        </g>
        <path id="Path_191" data-name="Path 191" d="M414.733,254.849c.016.045-.06.119-.106.169a.553.553,0,0,0-.243.1.084.084,0,0,0-.021,0h.021a.158.158,0,0,0-.021.008c-.3.174-.552.489-.842.627l-.087.286c-.162.058-.335-.06-.5.054-.1-.042-.318.087-.3-.074.076-.161.167-.328.366-.372l.276-.058a6.2,6.2,0,0,1,.59-.472h.016a1.883,1.883,0,0,0,.334-.4,3.365,3.365,0,0,1,.223-1.064c.04-.065.072-.164.118-.235a.914.914,0,0,0,.245-.029c-.016.075-.042.13-.07.26A1.559,1.559,0,0,0,414.733,254.849Zm4.508-2.761a1.723,1.723,0,0,1-.993.619,3.436,3.436,0,0,1-1.276-.008,1.827,1.827,0,0,1-.418.952v0l-1.151,1.085a.876.876,0,0,0-.077.371s0,.009,0,.011h0s0,.08.01.121a7.81,7.81,0,0,0-1.211,1.3,5.977,5.977,0,0,0-.783.02s-.025-.009-.02-.021c.007-.378.516-.338.689-.359a5.539,5.539,0,0,0,.848-.989.253.253,0,0,0,0-.063.016.016,0,0,1,0-.008.649.649,0,0,0-.1-.3,1.645,1.645,0,0,1,.022-1.17c.025-.064.05-.169.077-.244l.014-.1a.858.858,0,0,1-.318.054c.077-.041.3-.163.347-.189,0,0,.086-.061.008-.053-.048.034-.476.25-.476.25-.234.063-.437.215-.657.279h-.13a1.556,1.556,0,0,0,.13-.177s-.02-.075-.045-.029a.648.648,0,0,1-.1.148l-.038.058-.044.049a.613.613,0,0,1-.505.124,1.971,1.971,0,0,0,.217-.174c.007,0,.024-.027.026-.04s.009-.071-.034-.032c-.02.024-.039.008-.059.072-.034,0-.068.051-.1.076s-.1.065-.129.083a.579.579,0,0,1-.366,0l-.009-.016a.8.8,0,0,0,.164-.11l.006-.036h-.026a.05.05,0,0,0-.019,0,.619.619,0,0,1-.1.065.439.439,0,0,1-.116.065,3.981,3.981,0,0,1-.436-.02c0-.037.009-.048.009-.113a1.428,1.428,0,0,0-.014-.215,1.514,1.514,0,0,1,.337-.18.44.44,0,0,0,.252-.46s-.061-.076-.052.006a.383.383,0,0,1-.224.412c-.117.067-.282.1-.364.2a.962.962,0,0,1,.02.225.217.217,0,0,1-.027.112c-.157.184-.046.519-.366.526-.212,0-.449-.141-.7-.148L409.859,254a.675.675,0,0,1-.3.14c-.218.134-.077.25-.166.425a2.362,2.362,0,0,1-.518.006c-.151-.36.333-.563.531-.758a.617.617,0,0,1,.127-.166l.029,0a.1.1,0,0,1-.021.01h.193a.1.1,0,0,1-.041-.01l.041,0a7.984,7.984,0,0,0,1.524.185.736.736,0,0,0,.036-.185.436.436,0,0,0,.009-.112,1.492,1.492,0,0,1,.247-.833c.062-.055-.035-.037-.035-.037a1.119,1.119,0,0,0-.245.61l-.009-.036c-.018-.069-.169-.437-.1-.488.05-.05-.031-.036-.031-.036a.145.145,0,0,0-.037.135,4.981,4.981,0,0,0,.156.509l-.112-.105c-.231.059-.413.267-.674.225l-.214-.243-1.05-.7c-.185.074-.468.12-.526.36-.173.051-.332-.064-.491-.112-.059-.054-.178-.075-.236-.139-.042-.085.066-.181.151-.195.14-.061.314.051.42.025.251-.065.42-.362.73-.312l.263.2,1.093.587.426-.267c.157-.388.409-.884.118-1.266-.185-.177-.157-.425-.317-.617-.1-.113-.153-.29-.254-.413l.166.046c.046.017.052-.038.014-.046-.022-.009-.246-.072-.246-.072a.344.344,0,0,0-.187-.08.529.529,0,0,0-.285-.323,1.545,1.545,0,0,1-.056.91c-.025.1-.11.163-.151.162a.083.083,0,0,1-.086-.049.48.48,0,0,1,.069-.294,2.336,2.336,0,0,0-.453-1.726,2.564,2.564,0,0,0-.347-.49s-.668.442-.9-.628a1.277,1.277,0,0,0-.444-.808c.459-.1.743,1.064,1.07.837.146-.106-.433-.244-.376-.5.036-.172-.225-.4-.1-1.059.093.889,1.263.393.92,1.94a5.319,5.319,0,0,1,.654.982.1.1,0,0,1,.1-.032c.032.017.678.284.678.284.222-.153.34.134.477.215a.407.407,0,0,1,.384.33l.014.1a1.272,1.272,0,0,1-.027.205.445.445,0,0,1-.037.228l-.045-.054c-.153-.029-.127-.164-.135-.279l0-.039a.336.336,0,0,0-.035-.1l-.048-.108c-.036-.057-.058-.011-.042.018a.742.742,0,0,0,.027.071c-.061,0-.131.027-.173.009-.062-.014-.043.045-.018.045.064.03.137-.016.2,0l.033.087.006.023c.009.129-.014.284.156.316l.072.1c.12-.175.062-.243.1-.407.312.314.577.6.9.968a.62.62,0,0,1,.378.247,1.636,1.636,0,0,1,.714.389,3.925,3.925,0,0,0,1.429.125c.723-.061,1.435-.3,1.957.376a2.36,2.36,0,0,0,1.726-.163,1.71,1.71,0,0,0,.789-1.328,1.278,1.278,0,0,0-.638-1.124.155.155,0,0,1,.027-.222,1.159,1.159,0,0,1,.775.617A1.957,1.957,0,0,1,419.241,252.088Zm-8.637-2.523a.164.164,0,0,0,.089.078c.067.036.172.063.195,0C410.953,249.471,410.617,249.5,410.6,249.565Z" transform="translate(-388.401 -204.436)" fill="#fff"/>
        <g id="Group_7" data-name="Group 7" transform="translate(7.285 12.536)">
          <path id="Path_192" data-name="Path 192" d="M397.88,140.5a.2.2,0,0,1,.2-.2.2.2,0,0,1,.2.2.2.2,0,0,1-.2.2.2.2,0,0,1-.2-.2" transform="translate(-388.596 -140.297)" fill="#fff"/>
          <path id="Path_193" data-name="Path 193" d="M400.734,143.289a.2.2,0,0,1,.4,0,.2.2,0,0,1-.4,0" transform="translate(-390.661 -142.319)" fill="#fff"/>
          <path id="Path_194" data-name="Path 194" d="M395.03,143.289a.2.2,0,0,1,.2-.2.2.2,0,0,1,.2.2.2.2,0,0,1-.2.2.208.208,0,0,1-.2-.2" transform="translate(-386.534 -142.319)" fill="#fff"/>
          <path id="Path_195" data-name="Path 195" d="M397.88,143.289a.2.2,0,0,1,.2-.2.2.2,0,0,1,.2.2.2.2,0,0,1-.2.2.2.2,0,0,1-.2-.2" transform="translate(-388.596 -142.319)" fill="#fff"/>
          <path id="Path_196" data-name="Path 196" d="M392.719,146.867c-.25-.451-.758,0-.77-.26-.055-1.608-1.72-.869-2.012-.772-.061-.226-.322-.506-.514-.506a.78.78,0,0,0-.548.506c-.288-.1-1.955-.836-2.014.772-.013.26-.522-.191-.773.26-.181.317.773-.315.933,1.478H391.8C391.948,146.552,392.9,147.183,392.719,146.867Zm-1.147-.344c.1.46-.514.627-.891.568-.079-.015-.179-.175-.319-.167-.159.014-.167.206-.317.259-.133.042-.139,0-.361,0-.025-.261-.093-.248,0-.55S391.35,145.422,391.572,146.523Zm-2.162-.846c.126,0,.237.163.237.369s-.111.369-.237.369-.243-.162-.243-.369S389.273,145.677,389.409,145.677Zm-2.135.846c.226-1.1,1.806-.176,1.892.113s.02.289-.007.55c-.223,0-.223.04-.359,0s-.16-.245-.317-.259c-.14-.009-.242.151-.318.167C387.791,147.15,387.176,146.983,387.274,146.523Zm4.219,1.443h-4.059s.056-.561-.183-.649c.079.02.406.11.427.3h.48a.43.43,0,0,1,.333-.119.408.408,0,0,1,.251.165h1.434a.372.372,0,0,1,.588-.046h.478c.017-.186.352-.276.433-.3C391.426,147.4,391.493,147.966,391.493,147.966Z" transform="translate(-380.047 -143.938)" fill="#fff"/>
          <path id="Path_197" data-name="Path 197" d="M402.242,179.349c.017.156.276.352.385.5s.1.027.1.027.058.107-.02-.175a2.849,2.849,0,0,0-.424-.861s-.094.329.089.388.094.153.094.153Z" transform="translate(-391.753 -168.185)" fill="#fff"/>
          <path id="Path_198" data-name="Path 198" d="M374.293,180.4c-.062.127-.158.336-.231.285l-.018-.011a4.434,4.434,0,0,0,.322-.7,1,1,0,0,1-.074.43" transform="translate(-371.35 -168.987)" fill="#fff"/>
          <path id="Path_199" data-name="Path 199" d="M419.195,179.838c0,.149.268.591.268.784,0,.26-.753-.962-.946-1.687-.061-.236-.047.236-.047.384-.234-.384-.445-1.79-.638-1.954-.173-.155.419,1.79.419,2.4,0,.014-.731-2.188-.8-2.488-.087-.34.237,2.965,1.245,3.184.119.027-.22-.5-.193-.871.032-.4.225.871,1.124,1.448C420.025,181.273,419.195,179.69,419.195,179.838Z" transform="translate(-402.745 -167.034)" fill="#fff"/>
          <path id="Path_200" data-name="Path 200" d="M420.265,180.4c.059.127.156.336.229.285l.025-.011a3.745,3.745,0,0,1-.328-.7C420.166,179.859,420.191,180.246,420.265,180.4Z" transform="translate(-404.733 -168.987)" fill="#fff"/>
          <path id="Path_201" data-name="Path 201" d="M381.217,191.382c.365.086.4-.026.566-.026s-.288.624-.348.674.932.091.289.974c-.517.711.419-1-.65-.324a.769.769,0,0,0-.215.675.547.547,0,0,1-.3-.82c.043.013-.423.337-.417.759.009.539-.449-.844-.093-.938-.374.049-.6.71-.635.615-.133-.375.84-1.265.767-1a.17.17,0,0,0,.132.287c.2.025.116-.322.116-.322l.352.122S381.016,191.475,381.217,191.382Z" transform="translate(-375.228 -177.241)" fill="#fff"/>
          <path id="Path_202" data-name="Path 202" d="M392.979,182.823a1.175,1.175,0,0,1-.493.846c-.228.083-.17-.1-.009-.193C392.872,183.23,392.822,183,392.979,182.823Z" transform="translate(-384.585 -171.067)" fill="#fff"/>
          <path id="Path_203" data-name="Path 203" d="M407.61,167.46a7.74,7.74,0,0,1,.664,2.058s-.466.006-.57-.378a5.315,5.315,0,0,0-.288-.778c-.043-.088,0,0,0,.313a2.692,2.692,0,0,0,.041.5c.015.1-.2.072-.342-.224a14.674,14.674,0,0,1-.5-1.758c-.058-.236.183,1.523.207,1.642s-.222.134-.344,0a7.4,7.4,0,0,1-.41-1.363c-.046-.19-.122.77.058,1.172s-.46-.088-.522-.176-.192-.595-.192-.595a1.949,1.949,0,0,0-.085.608c.03.2-.164.1-.253.058s-.117-.429-.2-.533-.07-.117-.1-.031.045.357,0,.492-.076.192-.189.088a.773.773,0,0,1-.3-.475c-.032-.225.048-.238.048-.238s.056.311.156.325.077-.25.077-.25.331-.262.4-.117c.072.165.111.471.181.533s-.018-.578.053-.648a.745.745,0,0,1,.334-.123c.112-.032.171.651.292.739.062.043-.13-.972.016-1.091,0,0,.17-.3.287-.192.148.119.33,1.3.453,1.416s-.289-1.453-.137-1.554c.313-.191.626,1.186.805,1.465.1.174-.341-1.3-.3-1.522a20.638,20.638,0,0,1,1.031,2.437c.159.408-.3-1.328-.3-1.328s-.265-.708-.071-.473" transform="translate(-393.228 -159.483)" fill="#fff"/>
          <path id="Path_204" data-name="Path 204" d="M415.312,176.238c.084.235.264,2.561.557,2.737s-.929-.5-1.065-1.391.1-1.775.115-1.523c.11,1.553.505,2.529.464,2.085a14.993,14.993,0,0,1-.07-1.908" transform="translate(-400.812 -166.143)" fill="#fff"/>
          <path id="Path_205" data-name="Path 205" d="M410.824,174.516a15.715,15.715,0,0,0,.137,2.178,3.359,3.359,0,0,1-.627-1.418c-.179-.829-.133.327-.069.824.017.17-.522-.191-.613-.945s-.008-.65.007-.8c.015-.067.133,1.23.3,1.23.134,0-.066-.953-.038-1.124.038-.251.255-.214.3.069.1.929.3-.138.27,0a7.632,7.632,0,0,0,.224,1.36c.027.09.027-1.7.116-1.377" transform="translate(-397.084 -164.897)" fill="#fff"/>
          <path id="Path_206" data-name="Path 206" d="M406.076,173.249a6.611,6.611,0,0,0,.088,1.34c.129.255-.249-.075-.4-.422s-.075.18-.075.18-.77-.565-.57-.955a4.733,4.733,0,0,1,.273.482c.051.128-.111-.589.022-.55s.017.252.227.658c.214.388.09-.552.09-.552s.247.827.247.678.057-1.077.094-.86" transform="translate(-393.813 -164.115)" fill="#fff"/>
          <path id="Path_207" data-name="Path 207" d="M405.352,184.766c-.087.024.2.271-.287.384a6.816,6.816,0,0,1,.856,1.973c0,.079-.966.428-.527.755s-.358-.209.561-.269c.063.119.091.045.2.153a.8.8,0,0,0,.554.6.684.684,0,0,1,.091-.737c.151.174.434.325.269.691-.271.612.888-.573.23-.869.375.048.491.568.523.475a.582.582,0,0,0-.588-.742,1.078,1.078,0,0,1-.74-.359S406.121,186.748,405.352,184.766Z" transform="translate(-393.795 -172.472)" fill="#fff"/>
          <path id="Path_208" data-name="Path 208" d="M404.275,183.607c0,.19.235-.2-.067.646-.028.08-.134-.368-.252-.38s.174-.06.174-.06a.391.391,0,0,1-.066-.528C404.1,183.237,404.275,183.41,404.275,183.607Z" transform="translate(-392.973 -171.395)" fill="#fff"/>
          <path id="Path_209" data-name="Path 209" d="M404.848,180.768c-.129.107-.362-.12-.362,0,0,.169.478.471.536.673s0-.078.071-.262c.063-.156-.414-1.333-.244-.411m.121.194a.349.349,0,0,1,.018.229c-.023.048.049.018-.035-.049-.288-.226,0-.226.017-.18" transform="translate(-393.376 -169.327)" fill="#fff"/>
          <path id="Path_210" data-name="Path 210" d="M401.431,181.106a1.179,1.179,0,0,0,.386.9c.217.108.18-.077.039-.189C401.491,181.526,401.564,181.305,401.431,181.106Z" transform="translate(-391.165 -169.824)" fill="#fff"/>
          <path id="Path_211" data-name="Path 211" d="M399.384,181.079a.7.7,0,0,1,0-.487s-.084-.077-.154.072c-.054.149-.043.1-.117.107s-.074-.074-.084-.124a1.666,1.666,0,0,0,.122,1.151C399.229,181.967,399.657,181.886,399.384,181.079Zm-.208.492a1.6,1.6,0,0,1-.059-.441s.123-.043.156.04C399.317,181.314,399.4,181.874,399.176,181.571Z" transform="translate(-389.391 -169.438)" fill="#fff"/>
          <path id="Path_212" data-name="Path 212" d="M403.064,175.483c-.024.17.081.387.365.846.136.228.246-.488.173-.665s-.456-.611-.432-.813c.016-.123.063.426.183.649-.031.14.161.665.027.541C403.289,175.961,403.113,175.428,403.064,175.483Z" transform="translate(-392.345 -165.285)" fill="#fff"/>
          <path id="Path_213" data-name="Path 213" d="M394.533,172.825c-.05.154-.2.252-.063.468a1.541,1.541,0,0,1,.179.667c0,.1.2-.124.271-.242a1,1,0,0,0,.065-.681.394.394,0,0,0-.212-.12s.1.444,0,.542-.132.266-.184.08S394.576,172.675,394.533,172.825Z" transform="translate(-386.089 -163.817)" fill="#fff"/>
          <path id="Path_214" data-name="Path 214" d="M397.423,172.7a.517.517,0,0,0-.245.373c-.01.077.136.1.179.259a3.431,3.431,0,0,0,.214.44c.032.058.271-.486.238-.664s-.043-.184-.1-.017,0,.208-.134.148-.089-.148-.089-.242.135-.432-.059-.3" transform="translate(-388.088 -163.717)" fill="#fff"/>
          <path id="Path_215" data-name="Path 215" d="M398.415,172.339c-.1.087.1.134.152.31s.251-.155.117-.283-.069-.128-.149-.157Z" transform="translate(-388.963 -163.388)" fill="#fff"/>
          <path id="Path_216" data-name="Path 216" d="M399.969,175.445a.679.679,0,0,1-.06.558c0,.106-.152-.044-.09-.229s-.094-.494-.075-.74-.185.454-.261.59.195.288.185.393a.328.328,0,0,0,.1.331C399.894,176.437,400.193,175.293,399.969,175.445Z" transform="translate(-389.747 -165.393)" fill="#fff"/>
          <path id="Path_217" data-name="Path 217" d="M401.6,172.512c-.045-.228-.034-.527-.125-.559s-.11.069-.1.134a.5.5,0,0,1-.161.358c-.029-.887-.239-.029-.25.09-.035.229.453.875.491.8A2.363,2.363,0,0,0,401.6,172.512Zm-.546.162c-.143-.046.084-.452.084-.452l.043.2S401.166,172.7,401.055,172.673Zm.371.048c-.059.143-.086.206-.11.056s-.059-.376.033-.42.108.036.1.145S401.5,172.534,401.426,172.721Z" transform="translate(-390.824 -163.197)" fill="#fff"/>
          <path id="Path_218" data-name="Path 218" d="M396.651,176.673c-.09-.087-.286-.419-.382-.254s-.108.116-.162.284-.207.545-.049.653.262.241.249.3.294-.287.312-.38S396.741,176.764,396.651,176.673Zm-.4.576s-.095-.059-.03-.106c.049-.037.034-.294.034-.34a.567.567,0,0,1,.144.177C396.452,177.085,396.256,177.249,396.256,177.249Z" transform="translate(-387.227 -166.4)" fill="#fff"/>
          <path id="Path_219" data-name="Path 219" d="M393.978,176.787c-.013-.025-.025-.038-.046-.033h0a.268.268,0,0,0,.046.038Zm.116.093a.376.376,0,0,0-.083-.068.136.136,0,0,1-.032-.025.207.207,0,0,1-.046-.033.227.227,0,0,1-.048-.048.024.024,0,0,0,.01,0c-.02-.022-.039-.042-.039-.064h0c-.064-.021-.03-.043-.04-.062a.311.311,0,0,1,0-.206c0-.023.015-.042.02-.059v0a.313.313,0,0,1-.043.041c-.029.026-.046.06-.038.187a5.184,5.184,0,0,0-.043.737c.043.169.047.368.135.321s.259-.095.226-.321C394.041,177.082,394.226,177.005,394.094,176.88Zm-.162.368c-.079.063-.107-.076-.168-.193s.014-.168.126-.271a.208.208,0,0,1,.039-.029s0,0,0,0a.268.268,0,0,0,.046.038c.018.046.024.129.043.187A.231.231,0,0,1,393.932,177.247Zm-.086-.958h0a.04.04,0,0,1-.006.01l0,0A.006.006,0,0,0,393.846,176.289Zm-.016.019v0h0Z" transform="translate(-385.566 -166.338)" fill="#fff"/>
          <path id="Path_220" data-name="Path 220" d="M397.269,181.639c-.046.33.048.318-.046.526s0,.129-.029.407c-.009.138.322.32.322.32l.16-.182a.576.576,0,0,1-.041-.273c.011-.148.085-.1-.015-.222s-.167.037-.123-.156.138-.507.048-.54-.184-.106-.091.092,0,.31.043.448.123.156.064.306.007.237-.107.089-.107-.009-.136-.238,0-.905-.048-.575" transform="translate(-388.092 -170.093)" fill="#fff"/>
          <path id="Path_221" data-name="Path 221" d="M395.516,180.528s-.358-.425-.073,0c.108.168-.03.475-.021.659s-.009.411-.083.457-.073.03-.073.03a1.39,1.39,0,0,0-.091-.39c-.06-.08.056.238-.047.48s.056.081.149.134c.076.045.255-.583.317-.859a1.19,1.19,0,0,0-.078-.511" transform="translate(-386.581 -169.269)" fill="#fff"/>
          <path id="Path_222" data-name="Path 222" d="M390.223,189.235a4.547,4.547,0,0,0,.861-1.132c.225-.347-.043-.318-.134-.333s-1.182,2.065-1.35,2.263a5.249,5.249,0,0,1,4.416.108c.113.041.054-.169-.776-1.221-.435-.563-.043-1.164-.48-1.479-.341-.245.291.449.152.737-.048.09-.178-.1-.2-.208s-.058.463-.1.329-.173.367.033.4c.186.025.118.042.118.042a2.176,2.176,0,0,1-.015.449c-.032.079-.242.045-.254-.135s-.172-.015-.172-.015l-.207-.164v.328a1.7,1.7,0,0,1-.4.048c-.213,0-.3-.54-.223-.649.1-.169-.056.406-.056.406s-.069-.262-.1-.342-.026.31-.116.357.16.3.089.362-.267,0-.359-.033.181-.088.092-.239-.013-.163-.134-.138-.25-.072-.341.032.034.325-.058.391c-.061.043-.105.063-.168.015C390.39,189.243,390.187,189.259,390.223,189.235Z" transform="translate(-382.597 -174.371)" fill="#fff"/>
          <path id="Path_223" data-name="Path 223" d="M397.316,189.008c-.127.155,0,.451-.038.678a.522.522,0,0,0,.152.515c.141.09-.046-.083.079-.313s.091-.592.182-.71-.119-.119-.119-.119a2.619,2.619,0,0,1-.1.67c-.107.352-.241-.434-.095-.567s.029-.168.029-.168S397.43,188.851,397.316,189.008Z" transform="translate(-388.147 -175.489)" fill="#fff"/>
          <path id="Path_224" data-name="Path 224" d="M399.227,190.623c-.014.195-.014.5.076.487s.129-.117.062-.258c-.138-.334-.054-.168-.138-.229" transform="translate(-389.566 -176.71)" fill="#fff"/>
          <path id="Path_225" data-name="Path 225" d="M395.658,186.91c.054.178-.013.2-.013.253s.04.159.04.3.129-.111.169-.23.1-.528.1-.528l-.061.029s.077.433-.016.527-.135.09-.135.09a.527.527,0,0,0,0-.329C395.685,186.849,395.6,186.73,395.658,186.91Z" transform="translate(-386.974 -173.872)" fill="#fff"/>
          <path id="Path_226" data-name="Path 226" d="M398.879,186.988a.971.971,0,0,1-.017.267s.148,0,.166.062-.049.3.032.259.08-.3.08-.3a.872.872,0,0,1,.072-.362c.059-.078-.072-.148-.072-.148a2.249,2.249,0,0,1-.053.466c-.044.133-.164-.064-.134-.152S398.862,186.855,398.879,186.988Z" transform="translate(-389.307 -173.917)" fill="#fff"/>
          <path id="Path_227" data-name="Path 227" d="M395.5,190.428a.368.368,0,0,0,.1-.014s.078.24.02.253-.181-.239-.121-.239" transform="translate(-386.861 -176.559)" fill="#fff"/>
          <path id="Path_228" data-name="Path 228" d="M394.583,190.909c.056-.116.047-.179-.031-.132s-.134.029-.134.087-.072.364.134.441.087,0,.087,0l.047.239-.116.046s-.223-.235-.181-.449-.066-.276-.043-.362-.05.058.072-.033.074-.164.118-.088S394.523,191.029,394.583,190.909Z" transform="translate(-386.036 -176.711)" fill="#fff"/>
          <path id="Path_229" data-name="Path 229" d="M377.383,167.46a7.531,7.531,0,0,0-.67,2.058s.466.006.569-.378a4.014,4.014,0,0,1,.291-.778c.041-.088,0,0,0,.313a1.948,1.948,0,0,1-.049.5c-.013.1.211.072.345-.224a15.457,15.457,0,0,0,.5-1.758c.06-.236-.178,1.523-.208,1.642s.22.134.344,0a7.946,7.946,0,0,0,.414-1.363c.042-.19.116.77-.059,1.172s.459-.088.516-.176a4.34,4.34,0,0,0,.19-.595,2,2,0,0,1,.094.608c-.031.2.158.1.249.058s.115-.429.19-.533.074-.117.1-.031-.043.357,0,.492.077.192.2.088a.783.783,0,0,0,.294-.475c.027-.225-.043-.238-.043-.238s-.065.311-.165.325-.078-.25-.078-.25-.33-.262-.394-.117c-.079.165-.108.471-.181.533s.014-.578-.059-.648a.745.745,0,0,0-.329-.123c-.114-.032-.169.651-.29.739-.061.043.13-.972-.018-1.091,0,0-.172-.3-.291-.192-.14.119-.33,1.3-.448,1.416s.291-1.453.131-1.554c-.314-.191-.618,1.186-.8,1.465-.107.174.336-1.3.3-1.522A19.879,19.879,0,0,0,377,169.26c-.163.408.3-1.328.3-1.328s.272-.708.081-.473" transform="translate(-373.281 -159.483)" fill="#fff"/>
          <path id="Path_230" data-name="Path 230" d="M370.208,179.838c0,.149-.262.591-.262.784,0,.26.749-.962.948-1.687.061-.236.048.236.042.384.242-.384.451-1.79.64-1.954s-.416,1.79-.416,2.4c0,.014.725-2.188.8-2.488.089-.34-.231,2.965-1.239,3.184-.115.027.22-.5.192-.871-.027-.4-.218.871-1.123,1.448-.407.239.423-1.344.423-1.2" transform="translate(-368.187 -167.034)" fill="#fff"/>
          <path id="Path_231" data-name="Path 231" d="M377.11,176.238c-.091.235-.27,2.561-.561,2.737s.925-.5,1.062-1.391-.1-1.775-.117-1.523c-.1,1.553-.5,2.529-.461,2.085a16.018,16.018,0,0,0,.078-1.908" transform="translate(-373.127 -166.143)" fill="#fff"/>
          <path id="Path_232" data-name="Path 232" d="M381.016,174.516a14.683,14.683,0,0,1-.133,2.178,3.469,3.469,0,0,0,.625-1.418c.173-.829.129.327.069.824-.016.17.521-.191.609-.945s.015-.65,0-.8c-.006-.067-.137,1.23-.3,1.23-.134,0,.06-.953.04-1.124-.04-.251-.26-.214-.291.069-.108.929-.308-.138-.273,0a7.722,7.722,0,0,1-.223,1.36c-.03.09-.03-1.7-.118-1.377" transform="translate(-376.281 -164.897)" fill="#fff"/>
          <path id="Path_233" data-name="Path 233" d="M386.475,173.249a6.757,6.757,0,0,1-.1,1.34c-.125.255.249-.075.4-.422s.077.18.077.18.768-.565.568-.955a5.42,5.42,0,0,0-.276.482c-.054.128.111-.589-.018-.55s-.012.252-.239.658c-.2.388-.078-.552-.078-.552s-.253.827-.253.678-.05-1.077-.084-.86" transform="translate(-380.257 -164.115)" fill="#fff"/>
          <path id="Path_234" data-name="Path 234" d="M388.108,189.672a.142.142,0,0,1,0,.125l.065.046a.365.365,0,0,0,.137-.106c.076-.086-.062-.122-.062-.122S388.127,189.7,388.108,189.672Z" transform="translate(-381.526 -175.98)" fill="#fff"/>
          <path id="Path_235" data-name="Path 235" d="M387.557,188.624c-.013.121.01.046-.038.157s-.085.083-.085.083a.134.134,0,0,0,.123-.022C387.6,188.793,387.568,188.5,387.557,188.624Z" transform="translate(-381.038 -175.242)" fill="#fff"/>
          <path id="Path_236" data-name="Path 236" d="M388.6,186.938c-.036.107-.022.179-.093.208s.009.165.168.126a1.4,1.4,0,0,1,.178-.034s-.122-.048-.178-.063.074-.1.056-.167S388.644,186.829,388.6,186.938Z" transform="translate(-381.798 -174.012)" fill="#fff"/>
          <path id="Path_237" data-name="Path 237" d="M390.376,186.6c-.023.07.01.084-.036.145s-.066.009-.117.034-.185.037-.088.123.064.015.107.015a.222.222,0,0,0,.208-.148C390.482,186.65,390.4,186.531,390.376,186.6Z" transform="translate(-382.966 -173.785)" fill="#fff"/>
          <path id="Path_238" data-name="Path 238" d="M388.387,185.514c.054.109.187.122.03.209a.443.443,0,0,0-.2.19s-.158-.159-.086-.207S388.393,185.49,388.387,185.514Z" transform="translate(-381.527 -173.012)" fill="#fff"/>
          <path id="Path_239" data-name="Path 239" d="M390.089,183.651c0,.193-.27.378-.064.483.072.035.205-.232.323-.244s-.093-.145-.093-.145.045-.419-.011-.443S390.089,183.457,390.089,183.651Z" transform="translate(-382.857 -171.411)" fill="#fff"/>
          <path id="Path_240" data-name="Path 240" d="M389.026,181.352c.137.107.238.155.238.277,0,.167-.36.476-.418.683s0-.08-.075-.264c-.058-.156.24-.458.254-.7m-.144.579a.139.139,0,0,0,0,.129c.022.045-.061.012.033-.046.111-.075-.011-.131-.033-.083" transform="translate(-382.001 -170.002)" fill="#fff"/>
          <path id="Path_241" data-name="Path 241" d="M392.076,180.607c-.025.05-.035.133-.109.112s-.011-.1-.049-.255-.129-.1-.129-.1a.908.908,0,0,1-.087.48c-.122.276,0,.905.109.744A1.181,1.181,0,0,0,392.076,180.607Zm-.251.758c-.036.074-.1-.275-.027-.406.043-.082.158-.015.158-.015S391.858,181.294,391.825,181.365Z" transform="translate(-384.09 -169.282)" fill="#fff"/>
          <path id="Path_242" data-name="Path 242" d="M390.708,176.613a1.047,1.047,0,0,1-.324.912c-.214.159-.2-.589-.121-.766a.434.434,0,0,0,.041-.339c-.017-.121.058-.1.1.1.038.142,0,.454.055.472C390.582,177.034,390.661,176.55,390.708,176.613Z" transform="translate(-383.048 -166.382)" fill="#fff"/>
          <path id="Path_243" data-name="Path 243" d="M392.29,172.078c-.031-.249-.408-.3-.4-.529,0-.067-.018-.179-.119-.142s-.087.362-.134.614a2.428,2.428,0,0,0,.17.9C391.844,173,392.325,172.332,392.29,172.078Zm-.337.228c-.024.172-.05.1-.119-.061-.085-.2-.015-.115-.024-.236s.071.013.167.059S391.978,172.139,391.953,172.306Z" transform="translate(-384.076 -162.801)" fill="#fff"/>
          <g id="Group_6" data-name="Group 6" transform="translate(0 4.658)">
            <path id="Path_244" data-name="Path 244" d="M408.657,166.635c-.4-3.821-1.638-3.365-2.079-3.317-1.027.1-.785,1.02-2.549,1.574-.01,0,.244.037.294.048.966.277,2.026-1.717,2.939-1.167.248.148.313.09.505.529.558,1.251.224.863.8,3.348.335,1.466.743,2.908,1.518,3.581A12.669,12.669,0,0,1,408.657,166.635Z" transform="translate(-393.045 -161.582)" fill="#fff"/>
            <path id="Path_245" data-name="Path 245" d="M397.089,172.617a.046.046,0,0,1,0,.017A.046.046,0,0,0,397.089,172.617Z" transform="translate(-388.024 -168.34)" fill="#fff"/>
            <path id="Path_246" data-name="Path 246" d="M400.755,171.595v0Z" transform="translate(-390.677 -167.6)" fill="#fff"/>
            <path id="Path_247" data-name="Path 247" d="M395.886,169.062a.016.016,0,0,0,.01,0A.017.017,0,0,0,395.886,169.062Z" transform="translate(-387.154 -165.765)" fill="#fff"/>
            <path id="Path_248" data-name="Path 248" d="M400.755,171.6v0Z" transform="translate(-390.677 -167.6)" fill="#fff"/>
            <path id="Path_249" data-name="Path 249" d="M377.831,157.954c-.042-.5-1.383-.247-1.383-.247l-.024-.113a.7.7,0,0,1,.368-.049c.148.012.212-.362-.163-.362a6.514,6.514,0,0,1-1.387-.037c-.075-.016.313.181.233.188-.819.065-1.009.32-.864.305.269-.023.261.128,0,.206-.328.1-.234.107-.606.3-.059.036.158-.014.256,0s-.326.122-.582.763h-.006a.273.273,0,0,1-.026.091c-.033.081-.075.034-.148-.091h-.012a.972.972,0,0,0-.331-.355c.065.031.443.191.328.035a1.6,1.6,0,0,0-1.039-.672s.353-.1.3-.134a1.558,1.558,0,0,0-.79-.163s.348-.134.237-.12a.947.947,0,0,1-.567-.077s.208-.193.133-.163c-.37.163-.718-.025-1.43.016-.191.011-.261.3-.11.328a1.807,1.807,0,0,0,.475-.021l.054.122s-1.636-.15-1.681.351c-.011.077-.015.644.116.545.277-.21.516-.461,1.637-.271l.231.058-.045.167c.21-.173.809-.008,1,.38a.588.588,0,0,1,.016.543c-.032.077.221.01.221.01a1.561,1.561,0,0,1,.056.18.485.485,0,0,1-.2.6c-.654.3-1.111-.15-1.572-.6a2.048,2.048,0,0,0-1.113-.694,1.343,1.343,0,0,0-1.343.7h0a4.01,4.01,0,0,0-.428.731,5.628,5.628,0,0,0-.3.726c-.1.286-.2.6-.293.964a10.9,10.9,0,0,1-2.76,4.9c1.116-.474,2.127-2.24,2.64-3.617.6-1.571.634-1.778.853-2.247.084-.175.2-.39.38-.728.024-.044.048-.088.077-.138a2.43,2.43,0,0,1,.449-.586h0c.306-.318.7-.482,1.058-.168l.181.16c.339.308.578.553.8.733a1.351,1.351,0,0,0,1.161.281s.125.035.089.139a.837.837,0,0,1,.146-.182c.075-.045.348-.206.168.043a.391.391,0,0,0,0,.446.317.317,0,0,0,.26.18.231.231,0,0,0,.2-.156c0-.009-.009-.014-.009-.024a.954.954,0,0,1-.061-.586c-.014-.148.076.1.182.08.06-.009.119-.151.156-.181-.068.013-.153.006-.18.05-.014.026-.158-.134-.315,0a1.816,1.816,0,0,1-.261-.092c-.025-.017-.025-.034.035-.043.263-.038.433-.143.444-.326s.143.1.107.2.218-.158.144-.364.151-.032.219-.032-.037.179.043.179a.212.212,0,0,1,.231.139c.036.125.275-.163.275-.163s.171.228.149.333.306-.213.338-.333c.016-.122.177.132.082.32a.189.189,0,0,0-.025.094c-.021.126.1.16.181.02,0-.012.007-.013.015-.02a.416.416,0,0,0-.036-.378c-.039-.074.346.24.464.192.089-.032.089.088.077.186a.746.746,0,0,0-.009.092c-.014.07-.128.169-.086.237s-.241-.162-.148-.308a.074.074,0,0,0,.016-.04h-.046c-.088.063-.267.171-.317.2s-.118.092-.189.27c-.015.1-.038.167-.06.283v.019c-.043.128-.068.195-.029.013,0-.011,0-.021,0-.033a1.586,1.586,0,0,1,.085-.284.68.68,0,0,0-.018-.4c-.014-.021-.025,0-.039-.063h-.013c-.076-.088-.108-.061-.121,0h-.013c0,.063,0,.163-.016.222s-.049.053-.1.025a.564.564,0,0,0,.022.062c.031.082.036.282.088.439a.3.3,0,0,0,.254.22c.055,0,.1-.082.1-.2v0h-.007a1.845,1.845,0,0,1,.033-.466c.067-.124.148-.051.244-.1s.223.165.179.373a1.343,1.343,0,0,0-.043.19v.013c0,.059.033.111.141.072a.336.336,0,0,0,.152-.1.505.505,0,0,0,.066-.306c0-.258-.119-.339-.119-.339a.889.889,0,0,1,0-.092c0-.087,0-.187.05-.15a.6.6,0,0,0,.355.042c-.6.011-.6-.433-.566-.625h-.056c-.02.093-.1.068-.177.011l-.008,0h-.006c-.09-.064,0-.088-.047-.2s.061-.1.061-.1.166.012.177.1a.421.421,0,0,1,0,.2h.056c.008-.054.016-.086.016-.086s.194.138.172.054a1.384,1.384,0,0,1-.058-.7c.032-.061.082-.025.111,0l.022,0c.181-1.075,2.209-.836,2.528-.4C377.751,158.665,377.842,158.03,377.831,157.954Zm-4.463,1.522c-.046.025-.27.11-.385.15a.135.135,0,0,0-.062.043c-.089.088-.158.288-.167.251a.623.623,0,0,0-.117-.242s0-.009,0-.009c-.06-.063-.151,0-.217-.05s.083-.123.131-.2.086-.18.111-.108.179.375.193.059c.01-.3-.235-.2-.351-.437a.47.47,0,0,1-.018-.067c-.025-.063.1.093.151.061.028-.025.121-.144.172-.207.02.024.072.123.116.188h.007a1.584,1.584,0,0,1,.045.207c.021.269.407.231.407.231S373.417,159.455,373.368,159.477Zm1.009,1.665v0h0Zm-.249-2.163a.361.361,0,0,1,0-.043c-.006-.123.093-.1.157-.031a.123.123,0,0,1,.021.031c.025.069-.049.153-.14.185S374.151,159.145,374.128,158.979Zm.286.917c-.009.056-.184-.081-.244.072a.727.727,0,0,0-.043-.289h0c-.015-.064-.046-.044-.09-.046-.115-.006.095-.128.161-.221a1.524,1.524,0,0,0,.09.216c.014.027.022.042.035.046a.062.062,0,0,0,.025,0h.02c.014,0,.029.011.051.037C374.481,159.815,374.429,159.835,374.414,159.9Zm-.022-.984h0a.76.76,0,0,1,.008-.215c.014-.107.288-.017.218.02s-.048.117-.138.215c0,.009-.013,0-.013.009C374.414,158.986,374.395,158.974,374.392,158.911Zm.339.257c-.107.023-.091.032-.265-.118.048.017.165-.093.231-.114a.041.041,0,0,1,.034,0c.014.006.021.021.021.05C374.753,159.058,374.833,159.145,374.732,159.169Zm-.043-.649c-.056.091-.129.043-.207,0-.118-.078.21-.4.283-.263C374.815,158.346,374.775,158.386,374.688,158.519Z" transform="translate(-364.299 -157.146)" fill="#fff"/>
            <path id="Path_250" data-name="Path 250" d="M392,170.476c.011-.009.011-.019.016-.027C391.979,170.5,391.956,170.539,392,170.476Z" transform="translate(-384.324 -166.771)" fill="#fff"/>
            <path id="Path_251" data-name="Path 251" d="M398.939,169.642a.561.561,0,0,1,.049.034C398.974,169.642,398.956,169.634,398.939,169.642Z" transform="translate(-389.363 -166.185)" fill="#fff"/>
            <path id="Path_252" data-name="Path 252" d="M396.663,168.775a.617.617,0,0,1-.1.042c-.109.032-.148.088-.134.3.017.152-.04.14-.121.195a.683.683,0,0,0-.089.1.311.311,0,0,0-.066.2.049.049,0,0,0-.014-.024c-.049-.075-.17-.126-.269-.254h0a.6.6,0,0,0-.062-.115,1.956,1.956,0,0,1,.031-.5c0-.06,0-.088-.007-.1a.107.107,0,0,0,.052-.025s.005-.028.013-.028h.012a.337.337,0,0,0,.047-.111v.111h0c.014.256.054.5.066.445.025-.069.23.044.163-.052s.005-.207.045-.28c.027-.056.147-.05.2-.113h.049c.012.063.038.181.06.149S396.6,168.738,396.663,168.775Z" transform="translate(-387.087 -165.326)" fill="#fff"/>
            <path id="Path_253" data-name="Path 253" d="M404.88,168.387c-.04.01-.176.027-.314.04a1.764,1.764,0,0,0,.274-.03C404.856,168.4,404.871,168.387,404.88,168.387Z" transform="translate(-393.434 -165.279)" fill="#fff"/>
            <path id="Path_254" data-name="Path 254" d="M405.7,168.383a.02.02,0,0,1,.008,0Z" transform="translate(-394.256 -165.275)" fill="#fff"/>
            <path id="Path_255" data-name="Path 255" d="M403.409,163.622h-.022l.02.016C403.407,163.632,403.409,163.628,403.409,163.622Z" transform="translate(-392.581 -161.832)" fill="#fff"/>
          </g>
        </g>
      </g>
    </g>
  </g>
  <g id="Group_704" data-name="Group 704" transform="translate(628.899 24743.375)">
    <g id="Group_11" data-name="Group 11" transform="translate(-572 -24737.377)">
      <path id="Path_256" data-name="Path 256" d="M539.725,129.539c-.059-5.295-.07-6.271-.152-7.384-.083-1.184-.368-1.738-1.52-1.97a7.169,7.169,0,0,0-1.36-.089c-.383,0-.593-.062-.6-.307s.24-.316.763-.322c1.847-.021,4.042.059,5.088.048.836-.009,3.03-.138,4.284-.152.522-.006.767.061.77.3s-.205.316-.554.319a5.192,5.192,0,0,0-1.009.116c-.939.185-1.211.78-1.267,2-.058,1.115-.046,2.091.012,7.385l.055,4.878c.056,5.052,1.09,7.166,2.813,8.54a6.452,6.452,0,0,0,4.371,1.38,6.826,6.826,0,0,0,4.787-1.935c1.894-1.937,1.965-5.074,1.924-8.663l-.049-4.355c-.059-5.295-.07-6.271-.152-7.384-.083-1.184-.368-1.738-1.52-1.969a6.739,6.739,0,0,0-1.256-.091c-.383,0-.593-.062-.6-.307s.24-.316.728-.322c1.777-.02,3.973.061,4.008.06.418,0,2.611-.134,3.97-.149.488-.005.733.062.735.305s-.205.316-.623.32a5.269,5.269,0,0,0-1.01.116c-.939.186-1.211.78-1.267,2-.058,1.115-.046,2.091.012,7.386l.042,3.728c.043,3.867-.294,7.983-3.193,10.523a10.4,10.4,0,0,1-7.219,2.59c-1.846.021-5.192-.047-7.76-2.318-1.795-1.583-3.147-4.146-3.2-9.2Z" transform="translate(-536.098 -118.362)" fill="#fff"/>
      <path id="Path_257" data-name="Path 257" d="M608.293,135.416c-.174,0-.243.072-.31.282l-1.828,4.794a6.754,6.754,0,0,0-.5,2.131c.006.627.326,1.076,1.406,1.064l.523-.006c.418,0,.523.064.526.274,0,.278-.206.351-.589.355-1.115.013-2.614-.076-3.694-.064-.383,0-2.3.13-4.11.15-.453,0-.663-.062-.666-.341,0-.209.136-.281.415-.284a10.6,10.6,0,0,0,1.079-.082c1.6-.226,2.249-1.419,2.927-3.168l8.5-21.7c.407-1.015.612-1.4.96-1.4.314,0,.526.307.884,1.1.857,1.907,6.586,15.781,8.875,21.051,1.359,3.12,2.375,3.6,3.108,3.762a7.63,7.63,0,0,0,1.465.124c.279,0,.453.03.456.274,0,.278-.31.352-1.6.366-1.254.014-3.8.043-6.586,0-.627-.028-1.045-.024-1.048-.267,0-.209.136-.281.484-.319a.568.568,0,0,0,.3-.8l-2.867-7.146a.336.336,0,0,0-.351-.239Zm7.088-1.821c.174,0,.208-.107.172-.212l-3.231-8.535c-.036-.138-.073-.312-.177-.311s-.172.176-.206.316l-3.109,8.571c-.034.14,0,.244.142.243Z" transform="translate(-578.737 -117.175)" fill="#fff"/>
      <path id="Path_258" data-name="Path 258" d="M684.311,143.159c-.56-.238-.667-.411-.676-1.178-.021-1.916.1-4.007.124-4.565.029-.523.129-.908.408-.911.314,0,.352.31.355.588a7.359,7.359,0,0,0,.333,1.773,4.8,4.8,0,0,0,5.021,3.462c3.135-.035,4.645-2.177,4.624-4.023-.019-1.707-.559-3.3-3.477-5.536l-1.616-1.236c-3.866-2.954-5.217-5.378-5.248-8.2-.043-3.832,3.132-6.621,7.974-6.674a16.816,16.816,0,0,1,4.64.541c.314.065.49.168.492.412.005.453-.123,1.465-.093,4.182.009.767-.093,1.046-.371,1.05-.243,0-.35-.206-.354-.624a4.227,4.227,0,0,0-.932-2.289,4.415,4.415,0,0,0-3.817-1.665c-2.578.028-4.129,1.544-4.106,3.635.018,1.6.833,2.813,3.749,4.975l.984.721c4.251,3.124,5.775,5.511,5.812,8.821a7.018,7.018,0,0,1-3.207,6.1,10.067,10.067,0,0,1-5.523,1.49A12.076,12.076,0,0,1,684.311,143.159Z" transform="translate(-636.027 -116.66)" fill="#fff"/>
      <path id="Path_259" data-name="Path 259" d="M731.223,127.758c-.059-5.295-.07-6.271-.151-7.384-.083-1.184-.368-1.738-1.521-1.97a7.161,7.161,0,0,0-1.36-.09c-.383,0-.593-.062-.6-.307s.241-.316.763-.322c1.846-.021,4.042.059,5.018.049,1.079-.012,3.274-.141,5.364-.165,4.355-.048,10.173-.113,14.014,3.817a12.447,12.447,0,0,1,3.478,8.811,13.835,13.835,0,0,1-3.689,9.762c-1.584,1.655-5.18,4.169-11.625,4.24-1.254.015-2.684-.075-4.009-.164s-2.546-.181-3.417-.172c-.383,0-1.149.013-1.985.057-.8.009-1.706.089-2.4.1-.453.005-.7-.1-.7-.34,0-.175.136-.281.554-.286a5.7,5.7,0,0,0,1.253-.154c.695-.147.86-.915.988-1.927.158-1.465.127-4.217.091-7.423Zm4.4,3.785c.041,3.692.105,6.375.147,7.037a7.611,7.611,0,0,0,.413,2.642c.461.657,1.828,1.374,4.58,1.343,3.554-.04,5.915-.763,7.985-2.6,2.208-1.941,2.87-5.119,2.831-8.707a11.849,11.849,0,0,0-3.442-8.673,13.808,13.808,0,0,0-9.933-3.374,9.293,9.293,0,0,0-2.262.269.63.63,0,0,0-.41.7c-.023,1.185.012,4.217.042,6.968Z" transform="translate(-665.803 -117.269)" fill="#fff"/>
    </g>
    <text id="UNIVERSIDAD_AUTNOMA_DE_SANTO_DOMINGO" data-name="UNIVERSIDAD AUTNOMADE SANTO DOMINGO" transform="translate(-572 -24697)" fill="#fff" font-size="9" font-family="TrajanPro-Regular, Trajan Pro"><tspan x="0" y="0">UNIVERSIDAD AUTNOMA</tspan><tspan x="0" y="10">DE SANTO DOMINGO</tspan></text>
  </g>
</svg>
