<svg xmlns="http://www.w3.org/2000/svg" width="60.896" height="74.873" viewBox="0 0 60.896 74.873">
  <g id="Group_511" data-name="Group 511" transform="translate(-1110.088 -911.885)">
    <g id="Group_306" data-name="Group 306" transform="translate(1111.134 913)">
      <path id="Path_2587" data-name="Path 2587" d="M108.274,72.607l-.65-.37c-13.1-7.413-21.954-16.267-26.33-26.311C76.162,34.131,79.546,18.635,89,10.647A39.926,39.926,0,0,1,97.63,5.183c2-1.026,3.985-1.975,5.975-2.923,1.364-.646,2.721-1.3,4.083-1.971L108.279,0l.582.289c1.4.694,2.8,1.357,4.187,2.014,1.967.935,3.926,1.872,5.9,2.88a39.787,39.787,0,0,1,8.692,5.491c9.426,7.971,12.8,23.461,7.674,35.251-4.352,10.015-13.235,18.867-26.388,26.311Z" transform="translate(-78.903)" fill="none" stroke="#293340" stroke-width="2" fill-rule="evenodd"/>
    </g>
    <g id="Subtraction_5" data-name="Subtraction 5" transform="translate(-2112 -5128)" fill="#07f" stroke-linecap="round" stroke-linejoin="round">
      <path d="M 3252.876708984375 6094.08251953125 L 3252.0859375 6093.03759765625 C 3251.592529296875 6092.44287109375 3249.2080078125 6089.52197265625 3246.837890625 6085.8271484375 C 3243.345458984375 6080.38037109375 3241.49951171875 6075.77197265625 3241.49951171875 6072.50048828125 C 3241.49951171875 6066.43505859375 3246.4345703125 6061.50048828125 3252.50048828125 6061.50048828125 C 3258.565673828125 6061.50048828125 3263.500244140625 6066.43505859375 3263.500244140625 6072.50048828125 C 3263.500244140625 6076.0693359375 3261.725830078125 6080.84130859375 3258.369140625 6086.30078125 C 3256.418701171875 6089.47119140625 3254.436279296875 6092.05126953125 3253.664306640625 6093.025390625 L 3252.876708984375 6094.08251953125 Z M 3252.6826171875 6067.87353515625 C 3249.911376953125 6067.87353515625 3247.65673828125 6070.12890625 3247.65673828125 6072.90087890625 C 3247.65673828125 6075.67236328125 3249.911376953125 6077.9267578125 3252.6826171875 6077.9267578125 C 3255.45458984375 6077.9267578125 3257.7099609375 6075.67236328125 3257.7099609375 6072.90087890625 C 3257.7099609375 6070.12890625 3255.45458984375 6067.87353515625 3252.6826171875 6067.87353515625 Z" stroke="none"/>
      <path d="M 3252.87060546875 6092.4169921875 L 3252.871337890625 6092.416015625 C 3253.625 6091.46533203125 3255.58642578125 6088.91552734375 3257.517333984375 6085.77685546875 C 3260.77734375 6080.47509765625 3262.500244140625 6075.88427734375 3262.500244140625 6072.50048828125 C 3262.500244140625 6066.986328125 3258.014404296875 6062.50048828125 3252.50048828125 6062.50048828125 C 3246.98583984375 6062.50048828125 3242.49951171875 6066.986328125 3242.49951171875 6072.50048828125 C 3242.49951171875 6075.580078125 3244.290771484375 6080.001953125 3247.6796875 6085.287109375 C 3250.04150390625 6088.96923828125 3252.41748046875 6091.87158203125 3252.869873046875 6092.416015625 L 3252.87060546875 6092.4169921875 M 3252.6826171875 6066.87353515625 C 3256.006103515625 6066.87353515625 3258.7099609375 6069.57763671875 3258.7099609375 6072.90087890625 C 3258.7099609375 6076.2236328125 3256.006103515625 6078.9267578125 3252.6826171875 6078.9267578125 C 3249.35986328125 6078.9267578125 3246.65673828125 6076.2236328125 3246.65673828125 6072.90087890625 C 3246.65673828125 6069.57763671875 3249.35986328125 6066.87353515625 3252.6826171875 6066.87353515625 M 3252.870849609375 6094.41650390625 C 3252.269775390625 6094.41650390625 3251.70166015625 6094.146484375 3251.322509765625 6093.68310546875 C 3250.835693359375 6093.0966796875 3248.4072265625 6090.1259765625 3245.996337890625 6086.36669921875 C 3242.348876953125 6080.6787109375 3240.49951171875 6076.01318359375 3240.49951171875 6072.50048828125 C 3240.49951171875 6065.8837890625 3245.883056640625 6060.50048828125 3252.50048828125 6060.50048828125 C 3259.1171875 6060.50048828125 3264.500244140625 6065.8837890625 3264.500244140625 6072.50048828125 C 3264.500244140625 6074.42529296875 3264.0302734375 6076.6533203125 3263.103759765625 6079.1220703125 C 3262.216796875 6081.48583984375 3260.910400390625 6084.0771484375 3259.220947265625 6086.82421875 C 3257.235595703125 6090.0517578125 3255.21728515625 6092.67578125 3254.440185546875 6093.65673828125 C 3254.06298828125 6094.1337890625 3253.48779296875 6094.41455078125 3252.87744140625 6094.41650390625 C 3252.875244140625 6094.41650390625 3252.873046875 6094.41650390625 3252.870849609375 6094.41650390625 Z M 3252.6826171875 6068.87353515625 C 3250.462646484375 6068.87353515625 3248.65673828125 6070.68017578125 3248.65673828125 6072.90087890625 C 3248.65673828125 6075.12060546875 3250.462646484375 6076.9267578125 3252.6826171875 6076.9267578125 C 3254.9033203125 6076.9267578125 3256.7099609375 6075.12060546875 3256.7099609375 6072.90087890625 C 3256.7099609375 6070.68017578125 3254.9033203125 6068.87353515625 3252.6826171875 6068.87353515625 Z" stroke="none" fill="#293340"/>
    </g>
    <g id="Group_683" data-name="Group 683" transform="translate(1137.571 941.789)">
      <circle id="Ellipse_24" data-name="Ellipse 24" cx="3.112" cy="3.112" r="3.112" fill="#07f"/>
    </g>
  </g>
</svg>
