<svg xmlns="http://www.w3.org/2000/svg" width="68.336" height="80.691" viewBox="0 0 68.336 80.691">
  <g id="Group_657" data-name="Group 657" transform="translate(703.602 5162)">
    <path id="Path_2563" data-name="Path 2563" d="M1189.72,777.391l-.679-.389c-13.686-7.8-22.929-17.115-27.5-27.682-5.36-12.409-1.826-28.715,8.049-37.117,1.75-1.643,4.624-3.476,9.012-5.749,2.088-1.079,4.162-2.077,6.24-3.075,1.424-.68,2.842-1.364,4.264-2.074l.617-.3.608.3c1.467.73,2.919,1.428,4.372,2.119,2.055.984,4.1,1.97,6.164,3.03,4.418,2.273,7.3,4.111,9.077,5.777,9.844,8.386,13.371,24.684,8.015,37.09-4.546,10.537-13.822,19.85-27.559,27.682Z" transform="translate(-1861.599 -5859.852)" fill="#fff" stroke="#293340" stroke-width="2"/>
    <g id="Group_655" data-name="Group 655">
      <path id="Path_2561" data-name="Path 2561" d="M832.933,1186.9c-3.394-.014-.49-.032-3.884-.036-2.057,0,2.183.026.126.027-4.227,0-2.158,0-6.385-.014-.368,0-.548.061-.582.33a4.577,4.577,0,0,1-.242.764c-.3-.434-.193-.881-.559-1.212l-.139.014-.376,2.333h-.076l-.4-2.812-.239-.009-.383,1.278c-.24-.588-.287-1.188-.513-1.76l-.222.012-.372,2.489a6.309,6.309,0,0,1-.205-1.083c-.046-.366-.081-.732-.135-1.1a2.333,2.333,0,0,0-.21-1.03l-.19,0-.414,4.113c-.271-.724-.167-1.488-.473-2.2h-.2l-.3,1.067c-.156-.708-.209-1.407-.309-2.1a10.433,10.433,0,0,0-.289-2.068l-.215,0-.385,4.251H815.3l-.382-3.782-.057,0v-.4l-.181-.021a1.45,1.45,0,0,0-.114.341q-.036.507-.073,1.014c0,.027-.008.054-.012.081v.087c-.085,1.169-.177,2.339-.312,3.509q-.209-3.719-.417-7.438h-.24c-.146,2.526-.139,5.056-.219,7.583s-.146,1.833-.252,4.371c-.131-4.891-.263-6.542-.394-11.433-.13,0-.146,0-.16,0a.173.173,0,0,0-.044.012.08.08,0,0,0-.033.021.239.239,0,0,0-.034.059.229.229,0,0,0-.01.064c0,.043,0,.086,0,.13-.118,5.94-.236,7.148-.4,13.089-.142-9.3-.283-8.675-.425-17.972h-.265c-.13,6.841-.261,8.5-.391,15.337h-.036c-.143-9.454-.286-4.648-.429-14.085a1.084,1.084,0,0,0-.126-.025.084.084,0,0,0-.044.011c-.028.024-.064.048-.074.075a.39.39,0,0,0-.014.129c-.134,9.224-.268,4.186-.443,13.409-.077-5.79-.215.088-.413-14.777h-.24c-.155,10.383-.2.024-.216,1.333-.072,5.865-.132,11.731-.241,17.6-.139-11.241-.277-8.221-.416-19.462h-.246c-.142,12.3-.285,5.8-.427,18.106h-.029c-.134-11.029-.268-7.8-.4-18.826h-.26c-.132,8.266-.265,6.808-.4,15.074h-.049c-.137-8.976-.275-8.229-.412-17.206h-.257c-.141,12.087-.281,9.718-.422,21.8-.211-8.358-.243-6.8-.438-15.157h-.264c-.118,7.514-.237,9.843-.355,17.357h-.059c-.141-10.69-.282-11.658-.422-22.348h-.234c-.119,2.893-.1,1.251-.164,4.145-.067,2.916-.106.647-.127,3.563s0,5.831,0,8.747h-.2c-.128-6.661-.256-8.135-.384-14.8h-.267c-.136,8.568-.272,11.951-.408,20.519h-.042c-.128-8.009-.257-10.832-.385-18.841h-.285c-.127,7.135-.254,9.085-.381,16.22h-.048c-.134-7.539-.269-9.892-.4-17.43h-.273c-.14,5.834-.28,6.482-.419,12.316H799.7c-.132-4.714-.264-4.242-.4-8.956l-.091-.012q0-.148-.008-.3c-.043-1.631-.078-3.262-.123-4.893a1.114,1.114,0,0,0-.1-.3l-.18.023q-.2,7.071-.392,14.142h-.023q-.208-8.751-.415-17.5h-.27q-.2,11.308-.4,22.616h-.048q-.188-10.7-.377-21.406H796.6q-.191,12.014-.382,24.027h-.042l-.4-25.7h-.264q-.191,9.991-.381,19.982h-.194c0-2.915.016-5.831,0-8.746s-.059-5.833-.126-8.749c-.066-2.894-.044-5.789-.163-8.682h-.232q-.209,16.036-.418,32.072h-.058l-.352-22.543h-.262c-.193,8.358-.225,16.717-.434,25.075q-.209-18.13-.418-36.26h-.255l-.408,26.929h-.049q-.2-12.4-.393-24.8H791.1q-.2,16.543-.4,33.087h-.028q-.212-18.452-.423-36.9h-.243q-.206,16.861-.412,33.722c-.108-5.866-.168-11.731-.239-17.6-.071-5.846-.128-11.692-.214-17.538h-.237q-.2,15.491-.409,30.983-.26-13.835-.439-27.67a.394.394,0,0,0-.013-.129c-.01-.028-.046-.052-.073-.075a.082.082,0,0,0-.043-.012,1.141,1.141,0,0,0-.125.025q-.212,14.156-.425,28.346h-.035q-.194-10.261-.388-20.522h-.263q-.21,13.945-.421,27.89c-.167-5.94-.283-11.88-.4-17.821,0-.043,0-.086,0-.13a.183.183,0,0,0-.043-.124.081.081,0,0,0-.032-.021.166.166,0,0,0-.044-.012c-.015,0-.03,0-.159,0q-.2,7.336-.39,14.674c-.106-2.537-.17-5.075-.25-7.612s-.072-5.057-.217-7.583H784.5l-.413,7.438c-.178-1.564-.281-3.127-.393-4.691a1.451,1.451,0,0,0-.113-.341l-.187.022-.39,6.5a.979.979,0,0,1-.107-.409c-.108-1.543-.212-3.086-.324-4.628a.921.921,0,0,0-.118-.271l-.158.023-.337,5.745c-.12-1.368-.181-2.736-.226-4.105s-.034-2.723-.122-4.082-.01-2.705-.2-4.051l-.223,0q-.191,6.163-.382,12.325c-.091-.044-.1-.086-.1-.128q-.164-5.071-.331-10.141a1.848,1.848,0,0,0-.085-.36l-.2.016q-.182,4.211-.365,8.423h-.135q-.178-3.05-.356-6.1l-.238,0-.453,4.542c-.237-.49-.235-1.006-.466-1.483l-.193.018-.413,3.891c-.08-.8-.024-1.6-.1-2.4s-.27-1.607-.413-2.41l-.157,0-.485,3.205h-.134a4,4,0,0,1-.094-.53c-.013-.283-.2-.4-.62-.4-1.218.021-2.437.027-3.655.043a2.32,2.32,0,0,0-.311.045.63.63,0,0,0,.362.109c.979.021,1.959.065,2.937.052,1.014-.014,1.031.336,1.121.782a6.524,6.524,0,0,0,.331.922l.229-.015.3-1.742a1.127,1.127,0,0,1,.238.622,13.087,13.087,0,0,0,.155,2.108c.08.491.09.987.141,1.481a1.05,1.05,0,0,0,.1.261l.171-.011.444-4.21.075,0,.4,1.006.206-.008a33.981,33.981,0,0,1,.406-3.429c.063.981.034,1.962.071,2.942.039,1.032.147,2.063.213,3.094.047.734.07,1.468.109,2.2a2.233,2.233,0,0,0,.062.316l.213-.005q.183-4.333.366-8.666l.191,0c0,.993-.022,1.987,0,2.979.073,2.689.165,5.378.256,8.067a.791.791,0,0,0,.117.26l.173-.017.38-12.385h.081q.186,5.383.372,10.766l.257,0,.405-6.7h.07l.377,5.219.249,0q.206-3.291.413-6.582a9.6,9.6,0,0,1,.165,1.3c.032.431.055.863.085,1.295s.045.886.1,1.327a4.454,4.454,0,0,0,.134,1.23l.208-.007q.16-2.905.32-5.811c.22,5.632.359,11.264.535,16.895h.245q.181-6.71.362-13.42c.2,6.61.342,13.22.508,19.83h.224q.206-13.14.411-26.28h.073q.183,9.937.366,19.874h.261q.2-13.452.4-26.9h.039q.2,14.638.408,29.275h.261q.187-14.9.374-29.8h.053l.422,35.5h.233q.212-16.967.424-33.933h.015q.218,18.4.436,36.8h.22q.226-17.591.453-35.183.231,11.99.4,23.98a.687.687,0,0,0,.015.161c.007.029.04.056.065.082a.08.08,0,0,0,.041.015,1.461,1.461,0,0,0,.153-.015q.19-12.912.381-25.848c.176,12.033.305,24.066.489,36.1h.2q.215-12.838.429-25.676c.217,7.438.283,14.878.474,22.316h.217q.209-15.589.417-31.177c.179,8.015.3,16.029.423,24.043a.725.725,0,0,0,.011.161c.007.029.041.055.067.08a.083.083,0,0,0,.042.013,1.453,1.453,0,0,0,.147-.015q.2-10.351.4-20.727h.023q.216,13.23.432,26.46h.238q.215-12.314.43-24.627c.106,3.856.18,7.712.252,11.567q.085,4.585.168,9.17a1.367,1.367,0,0,0,.091.328l.175-.017q.206-11.672.412-23.343c.2,5.128.269,10.259.428,15.388h.264q.156-5.682.313-11.363l.12,5.272q.048-1.92.1-3.841.05,1.772.093,3.544l.114-5.027q.163,5.856.326,11.712h.266c.161-5.129.235-10.26.433-15.388.139,7.781.277,10.83.416,18.611l.177.017a1.353,1.353,0,0,0,.092-.328c.06-3.057.113-1.381.17-4.438.072-3.856.147-7.711.254-11.567.145,8.209.289,7.8.434,16.006h.24c.145-8.82.291-9.019.436-17.839h.023c.134,6.913.268,9.094.4,15.995.119.013.134.017.149.015a.083.083,0,0,0,.042-.014c.026-.026.06-.052.068-.08a.732.732,0,0,0,.011-.161c.123-8.014.246-11.3.427-19.311.141,10.392.281,12.163.421,22.556h.219c.193-7.438.259-6.256.479-13.695.144,8.559.289,5.255.433,13.813h.2c.186-12.032.316-7.017.494-19.05.128,8.62.257,7.322.385,15.93a1.546,1.546,0,0,0,.155.015.08.08,0,0,0,.041-.016c.025-.026.058-.053.066-.082a.683.683,0,0,0,.015-.161c.123-7.994.246-11.255.4-19.249.152,11.728.3,5.11.457,16.838h.222c.147-12.268.294-1,.44-13.272h.015c.143,11.311.285,5.573.428,16.884h.236c.142-11.833.284-6.617.426-18.45h.054c.126,9.933.252,3.467.377,13.4h.263c.138-9.758.275-3.117.412-12.875h.039c.133,8.968.267,4.777.4,13.745.088,0,.176-.648.263-.648.123-6.625.246-4.628.37-11.253h.074c.138,8.76.277,4.361.415,13.121h.226c.168-6.61.307-.061.513-6.67.122,4.473.244.325.366,4.8h.248c.177-5.631.318-2.641.54-8.273l.323,5.811.21.007a4.417,4.417,0,0,0,.135-1.23c.056-.441.071-.884.1-1.327s.053-.864.086-1.3a9.523,9.523,0,0,1,.167-1.3l.116,1.826v-1.487l.344,3.4h.259l.441-4.619c.206,1.144.182,2.254.444,3.342l.2.006.355-1.123c.2.854.329,1.7.467,2.546a.966.966,0,0,0,.144.266l.165-.023.4-3.928h.046l.389,2.976h.256l.428-2.916h.063l.37,1.489.21,0,.344-1.062h.079l.464,3.2h.24l.453-2.876.064,0,.379.975.158-.01a2.467,2.467,0,0,0,.136-.291c.108-.338.229-.674.3-1.016.053-.247.221-.306.569-.3,1.567.016,3.134.015,4.7.013,4.993-.007-2.608-.021,2.385-.026,2.265,0-1.766,0,.693,0h2.035a3.663,3.663,0,0,0,.407-.045A.5.5,0,0,0,832.933,1186.9Z" transform="translate(-1474.698 -6309.117)" fill="none" stroke="#293340" stroke-linecap="round" stroke-linejoin="round" stroke-width="0.5"/>
      <path id="Path_2564" data-name="Path 2564" d="M799.366,1169.19c-.136,2.813-.272,3.125-.408,5.938h-.023c-.128-2.272-.257-2.045-.385-4.318l-.088-.005q0-.071-.008-.143c-.042-.786-.076-1.573-.12-2.359,0-.049-.065-.1-.1-.147l-.175.011-.382,6.818h-.023l-.4-8.438h-.263q-.194,5.452-.388,10.9h-.047q-.183-5.16-.367-10.32h-.274q-.186,5.792-.371,11.584H795.5q-.2-6.2-.393-12.393h-.257l-.37,9.634h-.189c0-1.406.016-2.811,0-4.217s-.057-2.812-.122-4.218-.043-2.791-.158-4.186h-.226q-.2,7.731-.407,15.463h-.057l-.342-10.868h-.255c-.188,4.03-.219,8.06-.422,12.089q-.2-8.741-.406-17.482h-.248q-.2,6.492-.4,12.983H791.2q-.191-5.978-.382-11.955h-.251q-.194,7.976-.387,15.952h-.028q-.206-8.9-.411-17.793H789.5q-.2,8.129-.4,16.258c-.105-2.828-.163-5.656-.232-8.484s-.125-5.637-.208-8.456h-.231q-.2,7.469-.4,14.938c-.169-4.447-.3-8.894-.427-13.34a.1.1,0,0,0-.013-.062.22.22,0,0,0-.071-.036.146.146,0,0,0-.042-.005c-.015,0-.03,0-.121.012q-.206,6.825-.413,13.666h-.034l-.377-9.894h-.256l-.409,13.446c-.162-2.864-.276-5.728-.389-8.592,0-.021,0-.042,0-.062a.063.063,0,0,0-.009-.031.129.129,0,0,0-.033-.029.107.107,0,0,0-.031-.01.3.3,0,0,0-.043-.006h-.155l-.38,7.075c-.1-1.223-.166-2.447-.243-3.67s-.071-2.438-.211-3.656h-.231l-.4,3.586c-.173-.754-.274-1.508-.382-2.262-.008-.055-.072-.11-.11-.164l-.181.01-.38,3.134a.311.311,0,0,1-.1-.2c-.1-.744-.206-1.488-.315-2.231-.006-.044-.075-.087-.115-.131l-.154.011-.328,2.77a18.17,18.17,0,0,1-.22-1.979c-.044-.656-.033-1.313-.119-1.968a13.1,13.1,0,0,0-.194-1.953h-.217l-.371,5.942c-.089-.021-.094-.041-.1-.062q-.16-2.444-.322-4.889a.554.554,0,0,0-.082-.173l-.192.007-.355,4.061h-.131l-.346-2.941h-.231l-.441,2.19c-.23-.236-.229-.485-.453-.715l-.188.009-.4,1.876c-.078-.385-.024-.772-.093-1.156a7.706,7.706,0,0,0-.4-1.162l-.153,0-.472,1.545h-.13a1.092,1.092,0,0,1-.091-.255c-.013-.136-.2-.194-.6-.191-1.185.01-2.37.013-3.555.021-.1,0-.2.014-.3.022a1.1,1.1,0,0,0,.352.053c.952.01,1.905.031,2.857.025.986-.007,1,.162,1.091.377a2.446,2.446,0,0,0,.322.445l.223-.007.294-.84c.139.1.231.2.232.3a3.221,3.221,0,0,0,.151,1.016,6.253,6.253,0,0,1,.137.714c.009.042.065.084.1.126l.166-.005.432-2.03.073,0,.389.485.2,0c.226-.547.054-1.108.394-1.653.061.473.033.946.069,1.418.038.5.143.994.207,1.492.045.354.068.708.106,1.062a.626.626,0,0,0,.061.152l.207,0,.356-4.178h.186c0,.479-.022.958,0,1.436.071,1.3.161,2.593.249,3.889,0,.042.074.084.114.125l.169-.008.37-5.971h.079l.362,5.19h.25l.394-3.229h.068l.367,2.516h.242l.4-3.173a2.48,2.48,0,0,1,.161.625c.031.208.054.416.083.624a5.759,5.759,0,0,0,.1.64c.05.2-.031.4.13.593l.2,0,.312-2.8c.214,2.716.349,5.431.52,8.145h.239q.176-3.235.352-6.47c.2,3.187.332,6.374.494,9.56h.218l.4-12.67h.071q.178,4.791.356,9.582h.254q.193-6.485.385-12.971h.038q.2,7.057.4,14.114h.254q.182-7.184.364-14.367h.052l.411,17.115h.227l.412-16.36h.014q.212,8.872.424,17.743h.214q.22-8.481.44-16.963c.15,3.854.268,7.708.387,11.562a.172.172,0,0,0,.015.078c.007.014.039.027.063.039a.13.13,0,0,0,.04.007c.014,0,.029,0,.149-.007q.185-6.225.37-12.462c.171,5.8.3,11.6.476,17.4h.2q.209-6.189.418-12.379c.211,3.586.275,7.173.461,10.759h.211q.2-7.516.406-15.031c.174,3.864.292,7.728.411,11.592a.179.179,0,0,0,.011.078c.007.014.04.026.065.039a.142.142,0,0,0,.041.006c.014,0,.029,0,.143-.007q.193-4.99.387-9.993h.022q.21,6.378.42,12.757h.231q.209-5.937.418-11.873c.1,1.859.175,3.718.245,5.577.055,1.474.106,2.948.164,4.421,0,.053.058.105.088.158l.17-.008q.2-5.627.4-11.254c.191,2.473.262,4.946.417,7.419h.256q.152-2.739.3-5.478l.117,2.542q.047-.926.1-1.852.048.854.09,1.709l.11-2.424q.159,2.823.317,5.647h.259c.156-2.473.228-4.946.421-7.419C799.64,1174.75,799.454,1169.191,799.366,1169.19Z" transform="translate(-1440.066 -6295.521)" fill="none" stroke="#293340" stroke-linecap="round" stroke-linejoin="round" stroke-width="0.5"/>
    </g>
    <ellipse id="Ellipse_17" data-name="Ellipse 17" cx="14.798" cy="14.797" rx="14.798" ry="14.797" transform="translate(-664.861 -5162)" fill="red"/>
    <g id="Group_298" data-name="Group 298" transform="translate(-658.399 -5156.815)">
      <g id="Subtraction_4" data-name="Subtraction 4" transform="translate(6.599 16.79)" fill="none">
        <path d="M2.145,2.188A2.147,2.147,0,0,1,0,.043V.018C.572.034,1.2.043,1.877.043,2.753.043,3.565.028,4.289,0c0,.011,0,.021,0,.032V.043A2.147,2.147,0,0,1,2.145,2.188Z" stroke="none"/>
        <path d="M 2.145009279251099 2.18772029876709 C 0.9622493982315063 2.18772029876709 -6.24160747975111e-07 1.225480318069458 -6.24160747975111e-07 0.04272026941180229 L 0.0001493758463766426 0.01798026822507381 C 0.5716593861579895 0.03419026732444763 1.202889323234558 0.04272026941180229 1.876949429512024 0.04272026941180229 C 2.752989292144775 0.04272026941180229 3.56451940536499 0.02835026942193508 4.288999557495117 2.685928279788641e-07 C 4.289369583129883 0.01086026895791292 4.289399147033691 0.02148026786744595 4.289429187774658 0.03220026940107346 L 4.289459228515625 0.04272026941180229 C 4.289459228515625 1.225480318069458 3.327459335327148 2.18772029876709 2.145009279251099 2.18772029876709 Z" stroke="none" fill="#fff"/>
      </g>
      <g id="Path_2585" data-name="Path 2585" transform="translate(9.581)" fill="none">
        <path d="M-1.105,0C2.443,0,5.319,3.6,5.319,8.043s7.589,8.043-6.424,8.043-6.424-3.6-6.424-8.043S-4.653,0-1.105,0Z" stroke="none"/>
        <path d="M -1.105198860168457 2.000003814697266 C -2.200758934020996 2.000003814697266 -3.259099006652832 2.569614410400391 -4.085278987884521 3.603903770446777 C -5.016668796539307 4.769924163818359 -5.529608726501465 6.346343994140625 -5.529608726501465 8.042774200439453 C -5.529608726501465 9.819524765014648 -6.320758819580078 11.33209419250488 -6.956459045410156 12.54746437072754 C -7.11010217666626 12.84121513366699 -7.314537525177002 13.2320728302002 -7.447818279266357 13.53704261779785 C -7.19892692565918 13.62047958374023 -6.799084186553955 13.72377395629883 -6.176208972930908 13.8165340423584 C -4.977648735046387 13.99503421783447 -3.271518707275391 14.08554458618164 -1.105198860168457 14.08554458618164 C 1.061111211776733 14.08554458618164 2.767251014709473 13.99503421783447 3.965811252593994 13.8165340423584 C 4.588686466217041 13.72377395629883 4.988527774810791 13.62048053741455 5.237418174743652 13.53704357147217 C 5.104134559631348 13.23207378387451 4.899694442749023 12.84121513366699 4.74605131149292 12.54746437072754 C 4.110351085662842 11.33209419250488 3.319200992584229 9.819524765014648 3.319200992584229 8.042774200439453 C 3.319200992584229 6.346343994140625 2.80626106262207 4.769924163818359 1.874871253967285 3.603903770446777 C 1.048701047897339 2.569614410400391 -0.009638786315917969 2.000003814697266 -1.105198860168457 2.000003814697266 M -1.105198860168457 3.814697265625e-06 C 2.442901134490967 3.814697265625e-06 5.319200992584229 3.600873947143555 5.319200992584229 8.042774200439453 C 5.319200992584229 12.48467445373535 12.90867137908936 16.08554458618164 -1.105198860168457 16.08554458618164 C -15.11906909942627 16.08554458618164 -7.529608726501465 12.48467445373535 -7.529608726501465 8.042774200439453 C -7.529608726501465 3.600873947143555 -4.653298854827881 3.814697265625e-06 -1.105198860168457 3.814697265625e-06 Z" stroke="none" fill="#fff"/>
      </g>
    </g>
  </g>
</svg>
