<svg id="Group_37" data-name="Group 37" xmlns="http://www.w3.org/2000/svg" width="25.679" height="20.817" viewBox="0 0 25.679 20.817">
  <path id="Path_962" data-name="Path 962" d="M701.183,233.907Z" transform="translate(-676.382 -233.575)" fill="#fff"/>
  <path id="Path_963" data-name="Path 963" d="M645.289,235.787a3.428,3.428,0,0,1-1,.13l.018-.106a8.175,8.175,0,0,0,2-2.285c.075-.258-.014-.346-.014-.355l-1.671.709-1.4.631h0a5.573,5.573,0,0,0-4.059-1.672c-2.906,0-5.263,2.058-5.263,4.6a6.807,6.807,0,0,0,.216,1.735c0,.133.005-.134,0,0a16.414,16.414,0,0,1-6.407-1.9c-4.213-2.135-4.477-3.612-4.477-3.612-.661.7-1,3.03-.332,4.854a6.047,6.047,0,0,0,1.905,2.216h0a4.477,4.477,0,0,1-1.351-.222,2.987,2.987,0,0,1-.953-.465c-.411,1,.414,2.794,1.839,4.078a7.549,7.549,0,0,0,2.349,1.219l-2.372.067c-.133,2.3,4.834,3.673,4.834,3.673h0a8.116,8.116,0,0,1-4.956,1.8,9.432,9.432,0,0,1-2.706-.4,12.9,12.9,0,0,0,8.809,3.156c8.868-.466,13.875-8.089,14.113-15.576l.012.015a6.228,6.228,0,0,0,1.3-1.1,9.188,9.188,0,0,0,1.441-1.928S645.847,235.634,645.289,235.787Z" transform="translate(-621.496 -232.84)" fill="#fff"/>
  <path id="Path_964" data-name="Path 964" d="M701.183,233.907c.007.142,0,.014,0,0Z" transform="translate(-676.382 -233.575)" fill="#fff"/>
</svg>
