<svg xmlns="http://www.w3.org/2000/svg" width="25.518" height="24.402" viewBox="0 0 25.518 24.402">
  <path id="Union_2" data-name="Union 2" d="M7.562,23.4A7.571,7.571,0,0,1,0,15.84V7.561A7.57,7.57,0,0,1,7.562,0h9.4a7.57,7.57,0,0,1,7.561,7.561V15.84A7.571,7.571,0,0,1,16.957,23.4ZM1.68,7.561V15.84a5.888,5.888,0,0,0,5.882,5.882h9.4a5.888,5.888,0,0,0,5.881-5.882V7.561A5.888,5.888,0,0,0,16.957,1.68h-9.4A5.888,5.888,0,0,0,1.68,7.561ZM5.529,11.7a6.731,6.731,0,1,1,6.731,6.731A6.738,6.738,0,0,1,5.529,11.7Zm1.68,0A5.051,5.051,0,1,0,12.26,6.65,5.056,5.056,0,0,0,7.209,11.7ZM17.491,5.177a1.4,1.4,0,1,1,1.4,1.4A1.4,1.4,0,0,1,17.491,5.177Z" transform="translate(0.5 0.5)" fill="#fff" stroke="rgba(0,0,0,0)" stroke-width="1"/>
</svg>
