<svg xmlns="http://www.w3.org/2000/svg" width="29.951" height="21.035" viewBox="0 0 29.951 21.035">
  <path id="Path_1641" data-name="Path 1641" d="M12.41,21.11c-5.7-.105-7.652-.2-8.85-.446a3.89,3.89,0,0,1-2.03-1.056,4.274,4.274,0,0,1-.962-1.855A12.132,12.132,0,0,1,.156,15.03a64.676,64.676,0,0,1,0-8.826c.183-1.63.272-3.566,1.49-4.695A4,4,0,0,1,3.642.5,110.189,110.189,0,0,1,14.992.1a110.392,110.392,0,0,1,11.35.4,3.9,3.9,0,0,1,2.335,1.385c1.111,1.748,1.131,3.922,1.244,5.622.047.81.047,5.411,0,6.221a14.216,14.216,0,0,1-.716,4.624,3.409,3.409,0,0,1-.822,1.315,3.937,3.937,0,0,1-2.089,1.068c-4.936.371-9.128.452-13.885.376Zm7.559-10.8C17.222,8.845,14.593,7.484,11.9,6.075V14.5c2.828-1.538,5.81-2.946,8.075-4.2l-.012.012Z" transform="translate(-0.005 -0.101)" fill="#fff"/>
</svg>
